STARTFONT 2.1
COMMENT
COMMENT Converted from OpenType font "DejaVuSans-Bold.ttf" by "otf2bdf 3.0".
COMMENT
FONT -FreeType-DejaVu Sans-Bold-R-Normal--9-90-75-75-P-59-ISO10646-1
SIZE 9 75 75
FONTBOUNDINGBOX 27 15 -9 -4
STARTPROPERTIES 19
FOUNDRY "FreeType"
FAMILY_NAME "DejaVu Sans"
WEIGHT_NAME "Bold"
SLANT "R"
SETWIDTH_NAME "Normal"
ADD_STYLE_NAME ""
PIXEL_SIZE 9
POINT_SIZE 90
RESOLUTION_X 75
RESOLUTION_Y 75
SPACING "P"
AVERAGE_WIDTH 59
CHARSET_REGISTRY "ISO10646"
CHARSET_ENCODING "1"
FONT_ASCENT 8
FONT_DESCENT 2
COPYRIGHT "Copyright (c) 2003 by Bitstream, Inc. All Rights Reserved.  Copyright (c) 2006 by Tavmjong Bah. All Rights Reserved.  DejaVu changes are in public domain  "
_OTF_FONTFILE "DejaVuSans-Bold.ttf"
_OTF_PSNAME "DejaVuSans-Bold"
ENDPROPERTIES
CHARS 5366
STARTCHAR 0020
ENCODING 32
SWIDTH 320 0
DWIDTH 3 0
BBX 0 0 0 0
BITMAP
ENDCHAR
STARTCHAR 0021
ENCODING 33
SWIDTH 426 0
DWIDTH 4 0
BBX 2 7 1 0
BITMAP
C0
C0
C0
C0
00
C0
C0
ENDCHAR
STARTCHAR 0022
ENCODING 34
SWIDTH 533 0
DWIDTH 5 0
BBX 3 2 1 5
BITMAP
A0
A0
ENDCHAR
STARTCHAR 0023
ENCODING 35
SWIDTH 853 0
DWIDTH 8 0
BBX 6 7 1 0
BITMAP
28
28
FC
50
F8
50
90
ENDCHAR
STARTCHAR 0024
ENCODING 36
SWIDTH 640 0
DWIDTH 6 0
BBX 5 8 1 -1
BITMAP
20
F0
A0
F0
78
38
F0
20
ENDCHAR
STARTCHAR 0025
ENCODING 37
SWIDTH 960 0
DWIDTH 9 0
BBX 9 7 0 0
BITMAP
6200
9400
9400
6B00
1480
1480
2300
ENDCHAR
STARTCHAR 0026
ENCODING 38
SWIDTH 853 0
DWIDTH 8 0
BBX 6 7 1 0
BITMAP
70
40
60
E4
BC
98
FC
ENDCHAR
STARTCHAR 0027
ENCODING 39
SWIDTH 320 0
DWIDTH 3 0
BBX 1 2 1 5
BITMAP
80
80
ENDCHAR
STARTCHAR 0028
ENCODING 40
SWIDTH 426 0
DWIDTH 4 0
BBX 2 8 1 0
BITMAP
40
C0
80
80
80
80
C0
40
ENDCHAR
STARTCHAR 0029
ENCODING 41
SWIDTH 426 0
DWIDTH 4 0
BBX 2 8 1 0
BITMAP
80
C0
40
40
40
40
C0
80
ENDCHAR
STARTCHAR 002A
ENCODING 42
SWIDTH 533 0
DWIDTH 5 0
BBX 4 5 0 2
BITMAP
20
B0
60
F0
20
ENDCHAR
STARTCHAR 002B
ENCODING 43
SWIDTH 853 0
DWIDTH 8 0
BBX 6 5 1 0
BITMAP
20
20
FC
20
20
ENDCHAR
STARTCHAR 002C
ENCODING 44
SWIDTH 320 0
DWIDTH 3 0
BBX 2 3 1 -1
BITMAP
C0
80
80
ENDCHAR
STARTCHAR 002D
ENCODING 45
SWIDTH 426 0
DWIDTH 4 0
BBX 3 1 0 2
BITMAP
E0
ENDCHAR
STARTCHAR 002E
ENCODING 46
SWIDTH 320 0
DWIDTH 3 0
BBX 2 2 1 0
BITMAP
C0
C0
ENDCHAR
STARTCHAR 002F
ENCODING 47
SWIDTH 320 0
DWIDTH 3 0
BBX 3 7 0 0
BITMAP
20
20
40
40
40
80
80
ENDCHAR
STARTCHAR 0030
ENCODING 48
SWIDTH 640 0
DWIDTH 6 0
BBX 6 7 0 0
BITMAP
38
48
4C
CC
4C
48
38
ENDCHAR
STARTCHAR 0031
ENCODING 49
SWIDTH 640 0
DWIDTH 6 0
BBX 5 7 1 0
BITMAP
E0
20
20
20
20
20
F8
ENDCHAR
STARTCHAR 0032
ENCODING 50
SWIDTH 640 0
DWIDTH 6 0
BBX 4 7 1 0
BITMAP
F0
10
10
30
60
C0
F0
ENDCHAR
STARTCHAR 0033
ENCODING 51
SWIDTH 640 0
DWIDTH 6 0
BBX 4 7 1 0
BITMAP
F0
10
10
70
10
10
F0
ENDCHAR
STARTCHAR 0034
ENCODING 52
SWIDTH 640 0
DWIDTH 6 0
BBX 6 7 0 0
BITMAP
18
38
38
58
D8
FC
18
ENDCHAR
STARTCHAR 0035
ENCODING 53
SWIDTH 640 0
DWIDTH 6 0
BBX 5 7 1 0
BITMAP
F0
80
80
F0
18
18
F0
ENDCHAR
STARTCHAR 0036
ENCODING 54
SWIDTH 640 0
DWIDTH 6 0
BBX 5 7 1 0
BITMAP
70
C0
80
F0
98
98
70
ENDCHAR
STARTCHAR 0037
ENCODING 55
SWIDTH 640 0
DWIDTH 6 0
BBX 5 7 1 0
BITMAP
F8
10
30
20
60
60
40
ENDCHAR
STARTCHAR 0038
ENCODING 56
SWIDTH 640 0
DWIDTH 6 0
BBX 5 7 1 0
BITMAP
F0
98
90
60
98
98
F0
ENDCHAR
STARTCHAR 0039
ENCODING 57
SWIDTH 640 0
DWIDTH 6 0
BBX 5 7 1 0
BITMAP
F0
90
98
F8
18
30
E0
ENDCHAR
STARTCHAR 003A
ENCODING 58
SWIDTH 426 0
DWIDTH 4 0
BBX 2 5 1 0
BITMAP
C0
C0
00
C0
C0
ENDCHAR
STARTCHAR 003B
ENCODING 59
SWIDTH 426 0
DWIDTH 4 0
BBX 2 6 1 -1
BITMAP
C0
C0
00
C0
80
80
ENDCHAR
STARTCHAR 003C
ENCODING 60
SWIDTH 853 0
DWIDTH 8 0
BBX 6 5 1 0
BITMAP
0C
70
80
70
0C
ENDCHAR
STARTCHAR 003D
ENCODING 61
SWIDTH 853 0
DWIDTH 8 0
BBX 6 3 1 1
BITMAP
FC
00
FC
ENDCHAR
STARTCHAR 003E
ENCODING 62
SWIDTH 853 0
DWIDTH 8 0
BBX 6 5 1 0
BITMAP
80
70
0C
70
80
ENDCHAR
STARTCHAR 003F
ENCODING 63
SWIDTH 533 0
DWIDTH 5 0
BBX 4 7 1 0
BITMAP
E0
30
60
40
00
40
40
ENDCHAR
STARTCHAR 0040
ENCODING 64
SWIDTH 960 0
DWIDTH 9 0
BBX 7 8 1 -1
BITMAP
3C
C6
BA
AA
AA
BC
C4
38
ENDCHAR
STARTCHAR 0041
ENCODING 65
SWIDTH 746 0
DWIDTH 7 0
BBX 7 7 0 0
BITMAP
38
38
28
6C
6C
7C
C6
ENDCHAR
STARTCHAR 0042
ENCODING 66
SWIDTH 746 0
DWIDTH 7 0
BBX 5 7 1 0
BITMAP
F0
D8
D8
F0
D8
D8
F8
ENDCHAR
STARTCHAR 0043
ENCODING 67
SWIDTH 746 0
DWIDTH 7 0
BBX 6 7 0 0
BITMAP
3C
64
40
C0
40
64
3C
ENDCHAR
STARTCHAR 0044
ENCODING 68
SWIDTH 746 0
DWIDTH 7 0
BBX 6 7 1 0
BITMAP
F0
C8
CC
CC
CC
C8
F0
ENDCHAR
STARTCHAR 0045
ENCODING 69
SWIDTH 640 0
DWIDTH 6 0
BBX 4 7 1 0
BITMAP
F0
C0
C0
F0
C0
C0
F0
ENDCHAR
STARTCHAR 0046
ENCODING 70
SWIDTH 640 0
DWIDTH 6 0
BBX 4 7 1 0
BITMAP
F0
C0
C0
F0
C0
C0
C0
ENDCHAR
STARTCHAR 0047
ENCODING 71
SWIDTH 746 0
DWIDTH 7 0
BBX 7 7 0 0
BITMAP
3C
64
40
CE
46
66
3E
ENDCHAR
STARTCHAR 0048
ENCODING 72
SWIDTH 853 0
DWIDTH 8 0
BBX 6 7 1 0
BITMAP
CC
CC
CC
FC
CC
CC
CC
ENDCHAR
STARTCHAR 0049
ENCODING 73
SWIDTH 320 0
DWIDTH 3 0
BBX 2 7 1 0
BITMAP
C0
C0
C0
C0
C0
C0
C0
ENDCHAR
STARTCHAR 004A
ENCODING 74
SWIDTH 320 0
DWIDTH 3 0
BBX 4 9 -1 -2
BITMAP
30
30
30
30
30
30
30
20
E0
ENDCHAR
STARTCHAR 004B
ENCODING 75
SWIDTH 746 0
DWIDTH 7 0
BBX 6 7 1 0
BITMAP
D8
D0
F0
E0
F0
D8
CC
ENDCHAR
STARTCHAR 004C
ENCODING 76
SWIDTH 640 0
DWIDTH 6 0
BBX 4 7 1 0
BITMAP
C0
C0
C0
C0
C0
C0
F0
ENDCHAR
STARTCHAR 004D
ENCODING 77
SWIDTH 960 0
DWIDTH 9 0
BBX 7 7 1 0
BITMAP
C6
EE
AA
AA
BA
92
82
ENDCHAR
STARTCHAR 004E
ENCODING 78
SWIDTH 853 0
DWIDTH 8 0
BBX 6 7 1 0
BITMAP
CC
CC
AC
AC
9C
9C
8C
ENDCHAR
STARTCHAR 004F
ENCODING 79
SWIDTH 853 0
DWIDTH 8 0
BBX 7 7 0 0
BITMAP
3C
66
46
C6
46
66
3C
ENDCHAR
STARTCHAR 0050
ENCODING 80
SWIDTH 746 0
DWIDTH 7 0
BBX 5 7 1 0
BITMAP
F8
D8
D8
F8
C0
C0
C0
ENDCHAR
STARTCHAR 0051
ENCODING 81
SWIDTH 853 0
DWIDTH 8 0
BBX 7 8 0 -1
BITMAP
3C
66
46
C6
46
66
3C
04
ENDCHAR
STARTCHAR 0052
ENCODING 82
SWIDTH 746 0
DWIDTH 7 0
BBX 6 7 1 0
BITMAP
F0
D8
D8
F0
D8
D8
CC
ENDCHAR
STARTCHAR 0053
ENCODING 83
SWIDTH 640 0
DWIDTH 6 0
BBX 5 7 1 0
BITMAP
F0
90
80
F0
18
98
F0
ENDCHAR
STARTCHAR 0054
ENCODING 84
SWIDTH 640 0
DWIDTH 6 0
BBX 6 7 0 0
BITMAP
FC
30
30
30
30
30
30
ENDCHAR
STARTCHAR 0055
ENCODING 85
SWIDTH 746 0
DWIDTH 7 0
BBX 5 7 1 0
BITMAP
C8
C8
C8
C8
C8
C8
78
ENDCHAR
STARTCHAR 0056
ENCODING 86
SWIDTH 746 0
DWIDTH 7 0
BBX 7 7 0 0
BITMAP
C6
44
6C
6C
28
38
38
ENDCHAR
STARTCHAR 0057
ENCODING 87
SWIDTH 1066 0
DWIDTH 10 0
BBX 10 7 0 0
BITMAP
CCC0
4C80
4D80
7F80
7380
7300
3300
ENDCHAR
STARTCHAR 0058
ENCODING 88
SWIDTH 746 0
DWIDTH 7 0
BBX 6 7 0 0
BITMAP
44
6C
38
38
38
6C
C4
ENDCHAR
STARTCHAR 0059
ENCODING 89
SWIDTH 746 0
DWIDTH 7 0
BBX 6 7 0 0
BITMAP
CC
6C
78
30
30
30
30
ENDCHAR
STARTCHAR 005A
ENCODING 90
SWIDTH 746 0
DWIDTH 7 0
BBX 6 7 0 0
BITMAP
FC
0C
18
30
70
60
FC
ENDCHAR
STARTCHAR 005B
ENCODING 91
SWIDTH 426 0
DWIDTH 4 0
BBX 3 8 1 0
BITMAP
E0
80
80
80
80
80
80
E0
ENDCHAR
STARTCHAR 005C
ENCODING 92
SWIDTH 320 0
DWIDTH 3 0
BBX 3 7 0 0
BITMAP
80
80
40
40
40
20
20
ENDCHAR
STARTCHAR 005D
ENCODING 93
SWIDTH 426 0
DWIDTH 4 0
BBX 2 8 1 0
BITMAP
C0
40
40
40
40
40
40
C0
ENDCHAR
STARTCHAR 005E
ENCODING 94
SWIDTH 853 0
DWIDTH 8 0
BBX 5 2 1 5
BITMAP
30
C8
ENDCHAR
STARTCHAR 005F
ENCODING 95
SWIDTH 533 0
DWIDTH 5 0
BBX 5 1 0 -2
BITMAP
F8
ENDCHAR
STARTCHAR 0060
ENCODING 96
SWIDTH 533 0
DWIDTH 5 0
BBX 2 2 1 5
BITMAP
80
40
ENDCHAR
STARTCHAR 0061
ENCODING 97
SWIDTH 640 0
DWIDTH 6 0
BBX 5 5 0 0
BITMAP
78
08
78
C8
78
ENDCHAR
STARTCHAR 0062
ENCODING 98
SWIDTH 640 0
DWIDTH 6 0
BBX 5 8 1 0
BITMAP
80
80
80
F0
D8
98
D8
F0
ENDCHAR
STARTCHAR 0063
ENCODING 99
SWIDTH 533 0
DWIDTH 5 0
BBX 5 5 0 0
BITMAP
78
40
C0
40
78
ENDCHAR
STARTCHAR 0064
ENCODING 100
SWIDTH 640 0
DWIDTH 6 0
BBX 6 8 0 0
BITMAP
0C
0C
0C
7C
4C
CC
4C
7C
ENDCHAR
STARTCHAR 0065
ENCODING 101
SWIDTH 640 0
DWIDTH 6 0
BBX 6 5 0 0
BITMAP
78
4C
FC
40
78
ENDCHAR
STARTCHAR 0066
ENCODING 102
SWIDTH 426 0
DWIDTH 4 0
BBX 4 8 0 0
BITMAP
70
60
60
F0
60
60
60
60
ENDCHAR
STARTCHAR 0067
ENCODING 103
SWIDTH 640 0
DWIDTH 6 0
BBX 6 7 0 -2
BITMAP
7C
4C
CC
4C
7C
0C
78
ENDCHAR
STARTCHAR 0068
ENCODING 104
SWIDTH 640 0
DWIDTH 6 0
BBX 5 8 1 0
BITMAP
80
80
80
F0
D8
98
98
98
ENDCHAR
STARTCHAR 0069
ENCODING 105
SWIDTH 320 0
DWIDTH 3 0
BBX 1 8 1 0
BITMAP
80
80
00
80
80
80
80
80
ENDCHAR
STARTCHAR 006A
ENCODING 106
SWIDTH 320 0
DWIDTH 3 0
BBX 2 10 0 -2
BITMAP
40
40
00
40
40
40
40
40
40
C0
ENDCHAR
STARTCHAR 006B
ENCODING 107
SWIDTH 640 0
DWIDTH 6 0
BBX 5 8 1 0
BITMAP
80
80
80
90
A0
E0
B0
98
ENDCHAR
STARTCHAR 006C
ENCODING 108
SWIDTH 320 0
DWIDTH 3 0
BBX 1 8 1 0
BITMAP
80
80
80
80
80
80
80
80
ENDCHAR
STARTCHAR 006D
ENCODING 109
SWIDTH 960 0
DWIDTH 9 0
BBX 8 5 1 0
BITMAP
FE
DB
9B
9B
9B
ENDCHAR
STARTCHAR 006E
ENCODING 110
SWIDTH 640 0
DWIDTH 6 0
BBX 5 5 1 0
BITMAP
F0
D8
98
98
98
ENDCHAR
STARTCHAR 006F
ENCODING 111
SWIDTH 640 0
DWIDTH 6 0
BBX 6 5 0 0
BITMAP
78
4C
CC
4C
78
ENDCHAR
STARTCHAR 0070
ENCODING 112
SWIDTH 640 0
DWIDTH 6 0
BBX 5 7 1 -2
BITMAP
F0
D8
98
D8
F0
80
80
ENDCHAR
STARTCHAR 0071
ENCODING 113
SWIDTH 640 0
DWIDTH 6 0
BBX 6 7 0 -2
BITMAP
7C
4C
CC
4C
7C
0C
0C
ENDCHAR
STARTCHAR 0072
ENCODING 114
SWIDTH 426 0
DWIDTH 4 0
BBX 3 5 1 0
BITMAP
E0
C0
80
80
80
ENDCHAR
STARTCHAR 0073
ENCODING 115
SWIDTH 533 0
DWIDTH 5 0
BBX 5 5 0 0
BITMAP
78
C0
78
18
70
ENDCHAR
STARTCHAR 0074
ENCODING 116
SWIDTH 426 0
DWIDTH 4 0
BBX 4 6 0 0
BITMAP
40
F0
40
40
40
70
ENDCHAR
STARTCHAR 0075
ENCODING 117
SWIDTH 640 0
DWIDTH 6 0
BBX 5 5 1 0
BITMAP
98
98
98
98
F8
ENDCHAR
STARTCHAR 0076
ENCODING 118
SWIDTH 640 0
DWIDTH 6 0
BBX 6 5 0 0
BITMAP
CC
48
78
70
30
ENDCHAR
STARTCHAR 0077
ENCODING 119
SWIDTH 853 0
DWIDTH 8 0
BBX 8 5 0 0
BITMAP
DB
5B
5A
76
66
ENDCHAR
STARTCHAR 0078
ENCODING 120
SWIDTH 640 0
DWIDTH 6 0
BBX 4 5 1 0
BITMAP
90
E0
60
F0
90
ENDCHAR
STARTCHAR 0079
ENCODING 121
SWIDTH 640 0
DWIDTH 6 0
BBX 6 7 0 -2
BITMAP
CC
48
78
30
30
30
60
ENDCHAR
STARTCHAR 007A
ENCODING 122
SWIDTH 533 0
DWIDTH 5 0
BBX 5 5 0 0
BITMAP
78
10
30
60
F8
ENDCHAR
STARTCHAR 007B
ENCODING 123
SWIDTH 640 0
DWIDTH 6 0
BBX 4 8 1 0
BITMAP
30
60
60
C0
60
60
60
30
ENDCHAR
STARTCHAR 007C
ENCODING 124
SWIDTH 320 0
DWIDTH 3 0
BBX 1 9 1 -2
BITMAP
80
80
80
80
80
80
80
80
80
ENDCHAR
STARTCHAR 007D
ENCODING 125
SWIDTH 640 0
DWIDTH 6 0
BBX 4 8 1 0
BITMAP
E0
60
60
30
60
60
60
E0
ENDCHAR
STARTCHAR 007E
ENCODING 126
SWIDTH 853 0
DWIDTH 8 0
BBX 6 2 1 2
BITMAP
E4
18
ENDCHAR
STARTCHAR 00A0
ENCODING 160
SWIDTH 320 0
DWIDTH 3 0
BBX 0 0 0 0
BITMAP
ENDCHAR
STARTCHAR 00A1
ENCODING 161
SWIDTH 426 0
DWIDTH 4 0
BBX 2 7 1 -2
BITMAP
C0
C0
00
C0
C0
C0
C0
ENDCHAR
STARTCHAR 00A2
ENCODING 162
SWIDTH 640 0
DWIDTH 6 0
BBX 4 7 1 -1
BITMAP
20
70
E0
A0
E0
70
20
ENDCHAR
STARTCHAR 00A3
ENCODING 163
SWIDTH 640 0
DWIDTH 6 0
BBX 5 7 1 0
BITMAP
70
40
40
F0
40
40
F8
ENDCHAR
STARTCHAR 00A4
ENCODING 164
SWIDTH 640 0
DWIDTH 6 0
BBX 5 6 0 0
BITMAP
88
78
48
48
78
88
ENDCHAR
STARTCHAR 00A5
ENCODING 165
SWIDTH 640 0
DWIDTH 6 0
BBX 6 7 0 0
BITMAP
CC
68
78
FC
30
FC
30
ENDCHAR
STARTCHAR 00A6
ENCODING 166
SWIDTH 320 0
DWIDTH 3 0
BBX 1 7 1 -1
BITMAP
80
80
80
00
80
80
80
ENDCHAR
STARTCHAR 00A7
ENCODING 167
SWIDTH 533 0
DWIDTH 5 0
BBX 4 8 0 -1
BITMAP
70
C0
70
90
D0
70
10
F0
ENDCHAR
STARTCHAR 00A8
ENCODING 168
SWIDTH 533 0
DWIDTH 5 0
BBX 3 1 1 6
BITMAP
A0
ENDCHAR
STARTCHAR 00A9
ENCODING 169
SWIDTH 960 0
DWIDTH 9 0
BBX 7 8 1 0
BITMAP
38
44
BA
A2
A2
BA
44
38
ENDCHAR
STARTCHAR 00AA
ENCODING 170
SWIDTH 533 0
DWIDTH 5 0
BBX 3 6 1 1
BITMAP
E0
20
E0
E0
00
E0
ENDCHAR
STARTCHAR 00AB
ENCODING 171
SWIDTH 640 0
DWIDTH 6 0
BBX 4 4 1 1
BITMAP
50
A0
A0
50
ENDCHAR
STARTCHAR 00AC
ENCODING 172
SWIDTH 853 0
DWIDTH 8 0
BBX 6 3 1 1
BITMAP
FC
04
04
ENDCHAR
STARTCHAR 00AD
ENCODING 173
SWIDTH 426 0
DWIDTH 4 0
BBX 3 1 0 2
BITMAP
E0
ENDCHAR
STARTCHAR 00AE
ENCODING 174
SWIDTH 960 0
DWIDTH 9 0
BBX 7 8 1 0
BITMAP
38
44
BA
BA
AA
AA
44
38
ENDCHAR
STARTCHAR 00AF
ENCODING 175
SWIDTH 533 0
DWIDTH 5 0
BBX 3 1 1 6
BITMAP
E0
ENDCHAR
STARTCHAR 00B0
ENCODING 176
SWIDTH 533 0
DWIDTH 5 0
BBX 3 3 1 4
BITMAP
C0
A0
C0
ENDCHAR
STARTCHAR 00B1
ENCODING 177
SWIDTH 853 0
DWIDTH 8 0
BBX 6 6 1 0
BITMAP
20
20
FC
20
20
FC
ENDCHAR
STARTCHAR 00B2
ENCODING 178
SWIDTH 426 0
DWIDTH 4 0
BBX 3 4 0 3
BITMAP
E0
20
40
E0
ENDCHAR
STARTCHAR 00B3
ENCODING 179
SWIDTH 426 0
DWIDTH 4 0
BBX 3 4 0 3
BITMAP
60
60
20
E0
ENDCHAR
STARTCHAR 00B4
ENCODING 180
SWIDTH 533 0
DWIDTH 5 0
BBX 2 2 2 5
BITMAP
40
80
ENDCHAR
STARTCHAR 00B5
ENCODING 181
SWIDTH 746 0
DWIDTH 7 0
BBX 5 7 1 -2
BITMAP
98
98
98
98
E8
80
80
ENDCHAR
STARTCHAR 00B6
ENCODING 182
SWIDTH 640 0
DWIDTH 6 0
BBX 4 8 1 -1
BITMAP
F0
D0
D0
D0
50
50
50
50
ENDCHAR
STARTCHAR 00B7
ENCODING 183
SWIDTH 320 0
DWIDTH 3 0
BBX 2 2 1 2
BITMAP
C0
C0
ENDCHAR
STARTCHAR 00B8
ENCODING 184
SWIDTH 533 0
DWIDTH 5 0
BBX 2 2 1 -2
BITMAP
40
C0
ENDCHAR
STARTCHAR 00B9
ENCODING 185
SWIDTH 426 0
DWIDTH 4 0
BBX 2 4 1 3
BITMAP
C0
40
40
C0
ENDCHAR
STARTCHAR 00BA
ENCODING 186
SWIDTH 533 0
DWIDTH 5 0
BBX 4 6 1 1
BITMAP
E0
B0
B0
E0
00
E0
ENDCHAR
STARTCHAR 00BB
ENCODING 187
SWIDTH 640 0
DWIDTH 6 0
BBX 4 4 1 1
BITMAP
A0
D0
D0
A0
ENDCHAR
STARTCHAR 00BC
ENCODING 188
SWIDTH 960 0
DWIDTH 9 0
BBX 8 7 0 0
BITMAP
C2
44
44
69
0B
15
13
ENDCHAR
STARTCHAR 00BD
ENCODING 189
SWIDTH 960 0
DWIDTH 9 0
BBX 9 7 0 0
BITMAP
C200
4400
4400
6B80
0880
1100
1380
ENDCHAR
STARTCHAR 00BE
ENCODING 190
SWIDTH 960 0
DWIDTH 9 0
BBX 8 7 0 0
BITMAP
62
64
34
E9
0B
15
13
ENDCHAR
STARTCHAR 00BF
ENCODING 191
SWIDTH 533 0
DWIDTH 5 0
BBX 4 7 1 -2
BITMAP
60
60
00
60
C0
80
F0
ENDCHAR
STARTCHAR 00C0
ENCODING 192
SWIDTH 746 0
DWIDTH 7 0
BBX 7 9 0 0
BITMAP
10
00
38
38
28
6C
6C
7C
C6
ENDCHAR
STARTCHAR 00C1
ENCODING 193
SWIDTH 746 0
DWIDTH 7 0
BBX 7 9 0 0
BITMAP
10
00
38
38
28
6C
6C
7C
C6
ENDCHAR
STARTCHAR 00C2
ENCODING 194
SWIDTH 746 0
DWIDTH 7 0
BBX 7 9 0 0
BITMAP
38
00
38
38
28
6C
6C
7C
C6
ENDCHAR
STARTCHAR 00C3
ENCODING 195
SWIDTH 746 0
DWIDTH 7 0
BBX 7 10 0 0
BITMAP
38
38
00
38
38
28
6C
6C
7C
C6
ENDCHAR
STARTCHAR 00C4
ENCODING 196
SWIDTH 746 0
DWIDTH 7 0
BBX 7 9 0 0
BITMAP
28
00
38
38
28
6C
6C
7C
C6
ENDCHAR
STARTCHAR 00C5
ENCODING 197
SWIDTH 746 0
DWIDTH 7 0
BBX 7 8 0 0
BITMAP
38
38
38
28
6C
6C
7C
C6
ENDCHAR
STARTCHAR 00C6
ENCODING 198
SWIDTH 1066 0
DWIDTH 10 0
BBX 9 7 0 0
BITMAP
1F80
3C00
2C00
6F80
7C00
4C00
CF80
ENDCHAR
STARTCHAR 00C7
ENCODING 199
SWIDTH 746 0
DWIDTH 7 0
BBX 6 9 0 -2
BITMAP
3C
64
40
C0
40
64
3C
08
18
ENDCHAR
STARTCHAR 00C8
ENCODING 200
SWIDTH 640 0
DWIDTH 6 0
BBX 4 9 1 0
BITMAP
40
00
F0
C0
C0
F0
C0
C0
F0
ENDCHAR
STARTCHAR 00C9
ENCODING 201
SWIDTH 640 0
DWIDTH 6 0
BBX 4 9 1 0
BITMAP
20
00
F0
C0
C0
F0
C0
C0
F0
ENDCHAR
STARTCHAR 00CA
ENCODING 202
SWIDTH 640 0
DWIDTH 6 0
BBX 4 9 1 0
BITMAP
60
00
F0
C0
C0
F0
C0
C0
F0
ENDCHAR
STARTCHAR 00CB
ENCODING 203
SWIDTH 640 0
DWIDTH 6 0
BBX 4 9 1 0
BITMAP
60
00
F0
C0
C0
F0
C0
C0
F0
ENDCHAR
STARTCHAR 00CC
ENCODING 204
SWIDTH 320 0
DWIDTH 3 0
BBX 2 9 1 0
BITMAP
80
00
C0
C0
C0
C0
C0
C0
C0
ENDCHAR
STARTCHAR 00CD
ENCODING 205
SWIDTH 320 0
DWIDTH 3 0
BBX 2 9 1 0
BITMAP
80
00
C0
C0
C0
C0
C0
C0
C0
ENDCHAR
STARTCHAR 00CE
ENCODING 206
SWIDTH 320 0
DWIDTH 3 0
BBX 2 9 1 0
BITMAP
C0
00
C0
C0
C0
C0
C0
C0
C0
ENDCHAR
STARTCHAR 00CF
ENCODING 207
SWIDTH 320 0
DWIDTH 3 0
BBX 3 9 0 0
BITMAP
A0
00
60
60
60
60
60
60
60
ENDCHAR
STARTCHAR 00D0
ENCODING 208
SWIDTH 853 0
DWIDTH 8 0
BBX 7 7 0 0
BITMAP
7C
66
66
F6
66
66
7C
ENDCHAR
STARTCHAR 00D1
ENCODING 209
SWIDTH 853 0
DWIDTH 8 0
BBX 6 10 1 0
BITMAP
70
50
00
CC
CC
AC
AC
9C
9C
8C
ENDCHAR
STARTCHAR 00D2
ENCODING 210
SWIDTH 853 0
DWIDTH 8 0
BBX 7 9 0 0
BITMAP
10
00
3C
66
46
C6
46
66
3C
ENDCHAR
STARTCHAR 00D3
ENCODING 211
SWIDTH 853 0
DWIDTH 8 0
BBX 7 9 0 0
BITMAP
08
00
3C
66
46
C6
46
66
3C
ENDCHAR
STARTCHAR 00D4
ENCODING 212
SWIDTH 853 0
DWIDTH 8 0
BBX 7 9 0 0
BITMAP
18
00
3C
66
46
C6
46
66
3C
ENDCHAR
STARTCHAR 00D5
ENCODING 213
SWIDTH 853 0
DWIDTH 8 0
BBX 7 10 0 0
BITMAP
18
28
00
3C
66
46
C6
46
66
3C
ENDCHAR
STARTCHAR 00D6
ENCODING 214
SWIDTH 853 0
DWIDTH 8 0
BBX 7 9 0 0
BITMAP
28
00
3C
66
46
C6
46
66
3C
ENDCHAR
STARTCHAR 00D7
ENCODING 215
SWIDTH 853 0
DWIDTH 8 0
BBX 5 5 1 0
BITMAP
88
58
30
58
88
ENDCHAR
STARTCHAR 00D8
ENCODING 216
SWIDTH 853 0
DWIDTH 8 0
BBX 7 7 0 0
BITMAP
3E
66
4E
D6
66
66
7C
ENDCHAR
STARTCHAR 00D9
ENCODING 217
SWIDTH 746 0
DWIDTH 7 0
BBX 5 9 1 0
BITMAP
20
00
C8
C8
C8
C8
C8
C8
78
ENDCHAR
STARTCHAR 00DA
ENCODING 218
SWIDTH 746 0
DWIDTH 7 0
BBX 5 9 1 0
BITMAP
20
00
C8
C8
C8
C8
C8
C8
78
ENDCHAR
STARTCHAR 00DB
ENCODING 219
SWIDTH 746 0
DWIDTH 7 0
BBX 5 9 1 0
BITMAP
70
00
C8
C8
C8
C8
C8
C8
78
ENDCHAR
STARTCHAR 00DC
ENCODING 220
SWIDTH 746 0
DWIDTH 7 0
BBX 5 9 1 0
BITMAP
50
00
C8
C8
C8
C8
C8
C8
78
ENDCHAR
STARTCHAR 00DD
ENCODING 221
SWIDTH 746 0
DWIDTH 7 0
BBX 6 9 0 0
BITMAP
10
00
CC
6C
78
30
30
30
30
ENDCHAR
STARTCHAR 00DE
ENCODING 222
SWIDTH 746 0
DWIDTH 7 0
BBX 5 7 1 0
BITMAP
C0
C0
F8
D8
D8
F8
C0
ENDCHAR
STARTCHAR 00DF
ENCODING 223
SWIDTH 640 0
DWIDTH 6 0
BBX 5 8 1 0
BITMAP
F0
90
B0
A0
B0
98
88
B8
ENDCHAR
STARTCHAR 00E0
ENCODING 224
SWIDTH 640 0
DWIDTH 6 0
BBX 5 7 0 0
BITMAP
20
20
78
08
78
C8
78
ENDCHAR
STARTCHAR 00E1
ENCODING 225
SWIDTH 640 0
DWIDTH 6 0
BBX 5 7 0 0
BITMAP
18
10
78
08
78
C8
78
ENDCHAR
STARTCHAR 00E2
ENCODING 226
SWIDTH 640 0
DWIDTH 6 0
BBX 5 7 0 0
BITMAP
30
30
78
08
78
C8
78
ENDCHAR
STARTCHAR 00E3
ENCODING 227
SWIDTH 640 0
DWIDTH 6 0
BBX 5 7 0 0
BITMAP
28
10
78
08
78
C8
78
ENDCHAR
STARTCHAR 00E4
ENCODING 228
SWIDTH 640 0
DWIDTH 6 0
BBX 5 7 0 0
BITMAP
30
00
78
08
78
C8
78
ENDCHAR
STARTCHAR 00E5
ENCODING 229
SWIDTH 640 0
DWIDTH 6 0
BBX 5 8 0 0
BITMAP
30
50
30
78
08
78
C8
78
ENDCHAR
STARTCHAR 00E6
ENCODING 230
SWIDTH 960 0
DWIDTH 9 0
BBX 9 5 0 0
BITMAP
7700
0D80
7F80
C800
7780
ENDCHAR
STARTCHAR 00E7
ENCODING 231
SWIDTH 533 0
DWIDTH 5 0
BBX 5 7 0 -2
BITMAP
78
40
C0
40
78
10
30
ENDCHAR
STARTCHAR 00E8
ENCODING 232
SWIDTH 640 0
DWIDTH 6 0
BBX 6 7 0 0
BITMAP
20
10
78
4C
FC
40
78
ENDCHAR
STARTCHAR 00E9
ENCODING 233
SWIDTH 640 0
DWIDTH 6 0
BBX 6 7 0 0
BITMAP
18
10
78
4C
FC
40
78
ENDCHAR
STARTCHAR 00EA
ENCODING 234
SWIDTH 640 0
DWIDTH 6 0
BBX 6 7 0 0
BITMAP
30
28
78
4C
FC
40
78
ENDCHAR
STARTCHAR 00EB
ENCODING 235
SWIDTH 640 0
DWIDTH 6 0
BBX 6 7 0 0
BITMAP
28
00
78
4C
FC
40
78
ENDCHAR
STARTCHAR 00EC
ENCODING 236
SWIDTH 320 0
DWIDTH 3 0
BBX 2 7 0 0
BITMAP
80
40
40
40
40
40
40
ENDCHAR
STARTCHAR 00ED
ENCODING 237
SWIDTH 320 0
DWIDTH 3 0
BBX 2 7 1 0
BITMAP
40
80
80
80
80
80
80
ENDCHAR
STARTCHAR 00EE
ENCODING 238
SWIDTH 320 0
DWIDTH 3 0
BBX 3 7 0 0
BITMAP
40
A0
40
40
40
40
40
ENDCHAR
STARTCHAR 00EF
ENCODING 239
SWIDTH 320 0
DWIDTH 3 0
BBX 3 7 0 0
BITMAP
A0
00
40
40
40
40
40
ENDCHAR
STARTCHAR 00F0
ENCODING 240
SWIDTH 640 0
DWIDTH 6 0
BBX 6 8 0 0
BITMAP
28
30
58
78
CC
CC
4C
78
ENDCHAR
STARTCHAR 00F1
ENCODING 241
SWIDTH 640 0
DWIDTH 6 0
BBX 5 7 1 0
BITMAP
50
30
F0
D8
98
98
98
ENDCHAR
STARTCHAR 00F2
ENCODING 242
SWIDTH 640 0
DWIDTH 6 0
BBX 6 7 0 0
BITMAP
20
10
78
4C
CC
4C
78
ENDCHAR
STARTCHAR 00F3
ENCODING 243
SWIDTH 640 0
DWIDTH 6 0
BBX 6 7 0 0
BITMAP
18
10
78
4C
CC
4C
78
ENDCHAR
STARTCHAR 00F4
ENCODING 244
SWIDTH 640 0
DWIDTH 6 0
BBX 6 7 0 0
BITMAP
30
30
78
4C
CC
4C
78
ENDCHAR
STARTCHAR 00F5
ENCODING 245
SWIDTH 640 0
DWIDTH 6 0
BBX 6 7 0 0
BITMAP
28
10
78
4C
CC
4C
78
ENDCHAR
STARTCHAR 00F6
ENCODING 246
SWIDTH 640 0
DWIDTH 6 0
BBX 6 7 0 0
BITMAP
30
00
78
4C
CC
4C
78
ENDCHAR
STARTCHAR 00F7
ENCODING 247
SWIDTH 853 0
DWIDTH 8 0
BBX 6 5 1 0
BITMAP
20
00
FC
00
20
ENDCHAR
STARTCHAR 00F8
ENCODING 248
SWIDTH 640 0
DWIDTH 6 0
BBX 6 5 0 0
BITMAP
78
4C
DC
6C
78
ENDCHAR
STARTCHAR 00F9
ENCODING 249
SWIDTH 640 0
DWIDTH 6 0
BBX 5 7 1 0
BITMAP
40
20
98
98
98
98
F8
ENDCHAR
STARTCHAR 00FA
ENCODING 250
SWIDTH 640 0
DWIDTH 6 0
BBX 5 7 1 0
BITMAP
10
20
98
98
98
98
F8
ENDCHAR
STARTCHAR 00FB
ENCODING 251
SWIDTH 640 0
DWIDTH 6 0
BBX 5 7 1 0
BITMAP
60
50
98
98
98
98
F8
ENDCHAR
STARTCHAR 00FC
ENCODING 252
SWIDTH 640 0
DWIDTH 6 0
BBX 5 7 1 0
BITMAP
50
00
98
98
98
98
F8
ENDCHAR
STARTCHAR 00FD
ENCODING 253
SWIDTH 640 0
DWIDTH 6 0
BBX 6 9 0 -2
BITMAP
10
10
CC
48
78
30
30
30
60
ENDCHAR
STARTCHAR 00FE
ENCODING 254
SWIDTH 640 0
DWIDTH 6 0
BBX 5 10 1 -2
BITMAP
80
80
80
F0
D8
98
D8
F0
80
80
ENDCHAR
STARTCHAR 00FF
ENCODING 255
SWIDTH 640 0
DWIDTH 6 0
BBX 6 9 0 -2
BITMAP
30
00
CC
48
78
30
30
30
60
ENDCHAR
STARTCHAR 0100
ENCODING 256
SWIDTH 746 0
DWIDTH 7 0
BBX 7 9 0 0
BITMAP
38
00
38
38
28
6C
6C
7C
C6
ENDCHAR
STARTCHAR 0101
ENCODING 257
SWIDTH 640 0
DWIDTH 6 0
BBX 5 7 0 0
BITMAP
70
00
78
08
78
C8
78
ENDCHAR
STARTCHAR 0102
ENCODING 258
SWIDTH 746 0
DWIDTH 7 0
BBX 7 9 0 0
BITMAP
38
00
38
38
28
6C
6C
7C
C6
ENDCHAR
STARTCHAR 0103
ENCODING 259
SWIDTH 640 0
DWIDTH 6 0
BBX 5 7 0 0
BITMAP
38
00
78
08
78
C8
78
ENDCHAR
STARTCHAR 0104
ENCODING 260
SWIDTH 746 0
DWIDTH 7 0
BBX 7 9 0 -2
BITMAP
38
38
28
6C
6C
7C
C6
08
06
ENDCHAR
STARTCHAR 0105
ENCODING 261
SWIDTH 640 0
DWIDTH 6 0
BBX 5 7 0 -2
BITMAP
78
08
78
C8
78
10
18
ENDCHAR
STARTCHAR 0106
ENCODING 262
SWIDTH 746 0
DWIDTH 7 0
BBX 6 9 0 0
BITMAP
08
00
3C
64
40
C0
40
64
3C
ENDCHAR
STARTCHAR 0107
ENCODING 263
SWIDTH 533 0
DWIDTH 5 0
BBX 5 7 0 0
BITMAP
18
10
78
40
C0
40
78
ENDCHAR
STARTCHAR 0108
ENCODING 264
SWIDTH 746 0
DWIDTH 7 0
BBX 6 9 0 0
BITMAP
18
00
3C
64
40
C0
40
64
3C
ENDCHAR
STARTCHAR 0109
ENCODING 265
SWIDTH 533 0
DWIDTH 5 0
BBX 5 7 0 0
BITMAP
30
28
78
40
C0
40
78
ENDCHAR
STARTCHAR 010A
ENCODING 266
SWIDTH 746 0
DWIDTH 7 0
BBX 6 9 0 0
BITMAP
18
00
3C
64
40
C0
40
64
3C
ENDCHAR
STARTCHAR 010B
ENCODING 267
SWIDTH 533 0
DWIDTH 5 0
BBX 5 8 0 0
BITMAP
30
30
00
78
40
C0
40
78
ENDCHAR
STARTCHAR 010C
ENCODING 268
SWIDTH 746 0
DWIDTH 7 0
BBX 6 9 0 0
BITMAP
18
00
3C
64
40
C0
40
64
3C
ENDCHAR
STARTCHAR 010D
ENCODING 269
SWIDTH 533 0
DWIDTH 5 0
BBX 5 7 0 0
BITMAP
28
30
78
40
C0
40
78
ENDCHAR
STARTCHAR 010E
ENCODING 270
SWIDTH 746 0
DWIDTH 7 0
BBX 6 9 1 0
BITMAP
50
20
F0
C8
CC
CC
CC
C8
F0
ENDCHAR
STARTCHAR 010F
ENCODING 271
SWIDTH 640 0
DWIDTH 6 0
BBX 8 8 0 0
BITMAP
0D
0E
0C
7C
4C
CC
4C
7C
ENDCHAR
STARTCHAR 0110
ENCODING 272
SWIDTH 853 0
DWIDTH 8 0
BBX 7 7 0 0
BITMAP
7C
66
66
F6
66
66
7C
ENDCHAR
STARTCHAR 0111
ENCODING 273
SWIDTH 640 0
DWIDTH 6 0
BBX 6 8 0 0
BITMAP
0C
1C
0C
7C
4C
CC
4C
7C
ENDCHAR
STARTCHAR 0112
ENCODING 274
SWIDTH 640 0
DWIDTH 6 0
BBX 4 9 1 0
BITMAP
70
00
F0
C0
C0
F0
C0
C0
F0
ENDCHAR
STARTCHAR 0113
ENCODING 275
SWIDTH 640 0
DWIDTH 6 0
BBX 6 7 0 0
BITMAP
30
00
78
4C
FC
40
78
ENDCHAR
STARTCHAR 0114
ENCODING 276
SWIDTH 640 0
DWIDTH 6 0
BBX 4 9 1 0
BITMAP
60
00
F0
C0
C0
F0
C0
C0
F0
ENDCHAR
STARTCHAR 0115
ENCODING 277
SWIDTH 640 0
DWIDTH 6 0
BBX 6 7 0 0
BITMAP
38
00
78
4C
FC
40
78
ENDCHAR
STARTCHAR 0116
ENCODING 278
SWIDTH 640 0
DWIDTH 6 0
BBX 4 9 1 0
BITMAP
60
00
F0
C0
C0
F0
C0
C0
F0
ENDCHAR
STARTCHAR 0117
ENCODING 279
SWIDTH 640 0
DWIDTH 6 0
BBX 6 8 0 0
BITMAP
30
30
00
78
4C
FC
40
78
ENDCHAR
STARTCHAR 0118
ENCODING 280
SWIDTH 640 0
DWIDTH 6 0
BBX 5 9 1 -2
BITMAP
F0
C0
C0
F0
C0
C0
F0
20
18
ENDCHAR
STARTCHAR 0119
ENCODING 281
SWIDTH 640 0
DWIDTH 6 0
BBX 6 7 0 -2
BITMAP
78
4C
FC
40
78
10
18
ENDCHAR
STARTCHAR 011A
ENCODING 282
SWIDTH 640 0
DWIDTH 6 0
BBX 4 9 1 0
BITMAP
60
00
F0
C0
C0
F0
C0
C0
F0
ENDCHAR
STARTCHAR 011B
ENCODING 283
SWIDTH 640 0
DWIDTH 6 0
BBX 6 7 0 0
BITMAP
28
30
78
4C
FC
40
78
ENDCHAR
STARTCHAR 011C
ENCODING 284
SWIDTH 746 0
DWIDTH 7 0
BBX 7 9 0 0
BITMAP
18
00
3C
64
40
CE
46
66
3E
ENDCHAR
STARTCHAR 011D
ENCODING 285
SWIDTH 640 0
DWIDTH 6 0
BBX 6 9 0 -2
BITMAP
30
30
7C
4C
CC
4C
7C
0C
78
ENDCHAR
STARTCHAR 011E
ENCODING 286
SWIDTH 746 0
DWIDTH 7 0
BBX 7 9 0 0
BITMAP
38
00
3C
64
40
CE
46
66
3E
ENDCHAR
STARTCHAR 011F
ENCODING 287
SWIDTH 640 0
DWIDTH 6 0
BBX 6 9 0 -2
BITMAP
38
00
7C
4C
CC
4C
7C
0C
78
ENDCHAR
STARTCHAR 0120
ENCODING 288
SWIDTH 746 0
DWIDTH 7 0
BBX 7 9 0 0
BITMAP
18
00
3C
64
40
CE
46
66
3E
ENDCHAR
STARTCHAR 0121
ENCODING 289
SWIDTH 640 0
DWIDTH 6 0
BBX 6 10 0 -2
BITMAP
30
30
00
7C
4C
CC
4C
7C
0C
78
ENDCHAR
STARTCHAR 0122
ENCODING 290
SWIDTH 746 0
DWIDTH 7 0
BBX 7 9 0 -2
BITMAP
3C
64
40
CE
46
66
3E
00
10
ENDCHAR
STARTCHAR 0123
ENCODING 291
SWIDTH 640 0
DWIDTH 6 0
BBX 6 9 0 -2
BITMAP
10
00
7C
4C
CC
4C
7C
0C
78
ENDCHAR
STARTCHAR 0124
ENCODING 292
SWIDTH 853 0
DWIDTH 8 0
BBX 6 9 1 0
BITMAP
30
00
CC
CC
CC
FC
CC
CC
CC
ENDCHAR
STARTCHAR 0125
ENCODING 293
SWIDTH 640 0
DWIDTH 6 0
BBX 6 9 0 0
BITMAP
E0
00
40
40
78
6C
4C
4C
4C
ENDCHAR
STARTCHAR 0126
ENCODING 294
SWIDTH 960 0
DWIDTH 9 0
BBX 7 7 1 0
BITMAP
C4
FE
C4
FC
C4
C4
C4
ENDCHAR
STARTCHAR 0127
ENCODING 295
SWIDTH 746 0
DWIDTH 7 0
BBX 5 8 1 0
BITMAP
C0
F0
C0
F8
C8
C8
C8
C8
ENDCHAR
STARTCHAR 0128
ENCODING 296
SWIDTH 320 0
DWIDTH 3 0
BBX 3 10 0 0
BITMAP
E0
A0
00
60
60
60
60
60
60
60
ENDCHAR
STARTCHAR 0129
ENCODING 297
SWIDTH 320 0
DWIDTH 3 0
BBX 3 7 0 0
BITMAP
E0
A0
40
40
40
40
40
ENDCHAR
STARTCHAR 012A
ENCODING 298
SWIDTH 320 0
DWIDTH 3 0
BBX 3 9 0 0
BITMAP
E0
00
60
60
60
60
60
60
60
ENDCHAR
STARTCHAR 012B
ENCODING 299
SWIDTH 320 0
DWIDTH 3 0
BBX 3 7 0 0
BITMAP
E0
00
40
40
40
40
40
ENDCHAR
STARTCHAR 012C
ENCODING 300
SWIDTH 320 0
DWIDTH 3 0
BBX 3 9 0 0
BITMAP
E0
00
60
60
60
60
60
60
60
ENDCHAR
STARTCHAR 012D
ENCODING 301
SWIDTH 320 0
DWIDTH 3 0
BBX 3 7 0 0
BITMAP
E0
00
40
40
40
40
40
ENDCHAR
STARTCHAR 012E
ENCODING 302
SWIDTH 320 0
DWIDTH 3 0
BBX 2 9 1 -2
BITMAP
C0
C0
C0
C0
C0
C0
C0
80
C0
ENDCHAR
STARTCHAR 012F
ENCODING 303
SWIDTH 320 0
DWIDTH 3 0
BBX 2 10 1 -2
BITMAP
80
80
00
80
80
80
80
80
80
C0
ENDCHAR
STARTCHAR 0130
ENCODING 304
SWIDTH 320 0
DWIDTH 3 0
BBX 2 9 1 0
BITMAP
80
00
C0
C0
C0
C0
C0
C0
C0
ENDCHAR
STARTCHAR 0131
ENCODING 305
SWIDTH 320 0
DWIDTH 3 0
BBX 1 5 1 0
BITMAP
80
80
80
80
80
ENDCHAR
STARTCHAR 0132
ENCODING 306
SWIDTH 746 0
DWIDTH 7 0
BBX 5 9 1 -2
BITMAP
D8
D8
D8
D8
D8
D8
D8
18
30
ENDCHAR
STARTCHAR 0133
ENCODING 307
SWIDTH 640 0
DWIDTH 6 0
BBX 4 10 1 -2
BITMAP
90
90
00
90
90
90
90
90
10
30
ENDCHAR
STARTCHAR 0134
ENCODING 308
SWIDTH 320 0
DWIDTH 3 0
BBX 4 11 -1 -2
BITMAP
30
00
30
30
30
30
30
30
30
20
E0
ENDCHAR
STARTCHAR 0135
ENCODING 309
SWIDTH 320 0
DWIDTH 3 0
BBX 3 9 0 -2
BITMAP
40
A0
40
40
40
40
40
40
C0
ENDCHAR
STARTCHAR 0136
ENCODING 310
SWIDTH 746 0
DWIDTH 7 0
BBX 6 9 1 -2
BITMAP
D8
D0
F0
E0
F0
D8
CC
00
20
ENDCHAR
STARTCHAR 0137
ENCODING 311
SWIDTH 640 0
DWIDTH 6 0
BBX 5 10 1 -2
BITMAP
80
80
80
90
A0
E0
B0
98
00
20
ENDCHAR
STARTCHAR 0138
ENCODING 312
SWIDTH 640 0
DWIDTH 6 0
BBX 5 5 1 0
BITMAP
90
A0
E0
B0
98
ENDCHAR
STARTCHAR 0139
ENCODING 313
SWIDTH 640 0
DWIDTH 6 0
BBX 4 9 1 0
BITMAP
40
00
C0
C0
C0
C0
C0
C0
F0
ENDCHAR
STARTCHAR 013A
ENCODING 314
SWIDTH 320 0
DWIDTH 3 0
BBX 2 10 1 0
BITMAP
40
00
80
80
80
80
80
80
80
80
ENDCHAR
STARTCHAR 013B
ENCODING 315
SWIDTH 640 0
DWIDTH 6 0
BBX 4 9 1 -2
BITMAP
C0
C0
C0
C0
C0
C0
F0
00
60
ENDCHAR
STARTCHAR 013C
ENCODING 316
SWIDTH 320 0
DWIDTH 3 0
BBX 1 10 1 -2
BITMAP
80
80
80
80
80
80
80
80
00
80
ENDCHAR
STARTCHAR 013D
ENCODING 317
SWIDTH 640 0
DWIDTH 6 0
BBX 4 7 1 0
BITMAP
D0
D0
C0
C0
C0
C0
F0
ENDCHAR
STARTCHAR 013E
ENCODING 318
SWIDTH 426 0
DWIDTH 4 0
BBX 3 8 1 0
BITMAP
A0
A0
80
80
80
80
80
80
ENDCHAR
STARTCHAR 013F
ENCODING 319
SWIDTH 640 0
DWIDTH 6 0
BBX 4 7 1 0
BITMAP
C0
C0
D0
D0
C0
C0
F0
ENDCHAR
STARTCHAR 0140
ENCODING 320
SWIDTH 533 0
DWIDTH 5 0
BBX 3 8 1 0
BITMAP
80
80
80
A0
A0
80
80
80
ENDCHAR
STARTCHAR 0141
ENCODING 321
SWIDTH 640 0
DWIDTH 6 0
BBX 6 7 0 0
BITMAP
60
70
70
60
E0
60
7C
ENDCHAR
STARTCHAR 0142
ENCODING 322
SWIDTH 320 0
DWIDTH 3 0
BBX 3 8 0 0
BITMAP
40
40
40
60
C0
40
40
40
ENDCHAR
STARTCHAR 0143
ENCODING 323
SWIDTH 853 0
DWIDTH 8 0
BBX 6 9 1 0
BITMAP
20
00
CC
CC
AC
AC
9C
9C
8C
ENDCHAR
STARTCHAR 0144
ENCODING 324
SWIDTH 640 0
DWIDTH 6 0
BBX 5 7 1 0
BITMAP
20
40
F0
D8
98
98
98
ENDCHAR
STARTCHAR 0145
ENCODING 325
SWIDTH 853 0
DWIDTH 8 0
BBX 6 9 1 -2
BITMAP
CC
CC
AC
AC
9C
9C
8C
00
20
ENDCHAR
STARTCHAR 0146
ENCODING 326
SWIDTH 640 0
DWIDTH 6 0
BBX 5 7 1 -2
BITMAP
F0
D8
98
98
98
00
20
ENDCHAR
STARTCHAR 0147
ENCODING 327
SWIDTH 853 0
DWIDTH 8 0
BBX 6 9 1 0
BITMAP
30
00
CC
CC
AC
AC
9C
9C
8C
ENDCHAR
STARTCHAR 0148
ENCODING 328
SWIDTH 640 0
DWIDTH 6 0
BBX 5 7 1 0
BITMAP
A0
60
F0
D8
98
98
98
ENDCHAR
STARTCHAR 0149
ENCODING 329
SWIDTH 960 0
DWIDTH 9 0
BBX 7 7 1 0
BITMAP
80
80
BE
36
36
36
36
ENDCHAR
STARTCHAR 014A
ENCODING 330
SWIDTH 853 0
DWIDTH 8 0
BBX 6 9 1 -2
BITMAP
B8
C8
8C
8C
8C
8C
8C
08
18
ENDCHAR
STARTCHAR 014B
ENCODING 331
SWIDTH 640 0
DWIDTH 6 0
BBX 5 7 1 -2
BITMAP
F0
D8
98
98
98
18
30
ENDCHAR
STARTCHAR 014C
ENCODING 332
SWIDTH 853 0
DWIDTH 8 0
BBX 7 9 0 0
BITMAP
38
00
3C
66
46
C6
46
66
3C
ENDCHAR
STARTCHAR 014D
ENCODING 333
SWIDTH 640 0
DWIDTH 6 0
BBX 6 7 0 0
BITMAP
30
00
78
4C
CC
4C
78
ENDCHAR
STARTCHAR 014E
ENCODING 334
SWIDTH 853 0
DWIDTH 8 0
BBX 7 9 0 0
BITMAP
18
00
3C
66
46
C6
46
66
3C
ENDCHAR
STARTCHAR 014F
ENCODING 335
SWIDTH 640 0
DWIDTH 6 0
BBX 6 7 0 0
BITMAP
30
00
78
4C
CC
4C
78
ENDCHAR
STARTCHAR 0150
ENCODING 336
SWIDTH 853 0
DWIDTH 8 0
BBX 7 9 0 0
BITMAP
18
00
3C
66
46
C6
46
66
3C
ENDCHAR
STARTCHAR 0151
ENCODING 337
SWIDTH 640 0
DWIDTH 6 0
BBX 6 8 0 0
BITMAP
28
30
00
78
4C
CC
4C
78
ENDCHAR
STARTCHAR 0152
ENCODING 338
SWIDTH 1173 0
DWIDTH 11 0
BBX 10 7 0 0
BITMAP
3FC0
6600
4600
C7C0
4600
6600
3FC0
ENDCHAR
STARTCHAR 0153
ENCODING 339
SWIDTH 1066 0
DWIDTH 10 0
BBX 9 5 0 0
BITMAP
7F00
4C80
CF80
4C00
7F80
ENDCHAR
STARTCHAR 0154
ENCODING 340
SWIDTH 746 0
DWIDTH 7 0
BBX 6 9 1 0
BITMAP
20
00
F0
D8
D8
F0
D8
D8
CC
ENDCHAR
STARTCHAR 0155
ENCODING 341
SWIDTH 426 0
DWIDTH 4 0
BBX 3 7 1 0
BITMAP
20
40
E0
C0
80
80
80
ENDCHAR
STARTCHAR 0156
ENCODING 342
SWIDTH 746 0
DWIDTH 7 0
BBX 6 9 1 -2
BITMAP
F0
D8
D8
F0
D8
D8
CC
00
20
ENDCHAR
STARTCHAR 0157
ENCODING 343
SWIDTH 426 0
DWIDTH 4 0
BBX 3 7 1 -2
BITMAP
E0
C0
80
80
80
00
80
ENDCHAR
STARTCHAR 0158
ENCODING 344
SWIDTH 746 0
DWIDTH 7 0
BBX 6 9 1 0
BITMAP
60
00
F0
D8
D8
F0
D8
D8
CC
ENDCHAR
STARTCHAR 0159
ENCODING 345
SWIDTH 426 0
DWIDTH 4 0
BBX 3 7 1 0
BITMAP
A0
40
E0
C0
80
80
80
ENDCHAR
STARTCHAR 015A
ENCODING 346
SWIDTH 640 0
DWIDTH 6 0
BBX 5 9 1 0
BITMAP
20
00
F0
90
80
F0
18
98
F0
ENDCHAR
STARTCHAR 015B
ENCODING 347
SWIDTH 533 0
DWIDTH 5 0
BBX 5 7 0 0
BITMAP
10
20
78
C0
78
18
70
ENDCHAR
STARTCHAR 015C
ENCODING 348
SWIDTH 640 0
DWIDTH 6 0
BBX 5 9 1 0
BITMAP
60
00
F0
90
80
F0
18
98
F0
ENDCHAR
STARTCHAR 015D
ENCODING 349
SWIDTH 533 0
DWIDTH 5 0
BBX 5 7 0 0
BITMAP
20
50
78
C0
78
18
70
ENDCHAR
STARTCHAR 015E
ENCODING 350
SWIDTH 640 0
DWIDTH 6 0
BBX 5 9 1 -2
BITMAP
F0
90
80
F0
18
98
F0
20
60
ENDCHAR
STARTCHAR 015F
ENCODING 351
SWIDTH 533 0
DWIDTH 5 0
BBX 5 7 0 -2
BITMAP
78
C0
78
18
70
20
30
ENDCHAR
STARTCHAR 0160
ENCODING 352
SWIDTH 640 0
DWIDTH 6 0
BBX 5 9 1 0
BITMAP
60
00
F0
90
80
F0
18
98
F0
ENDCHAR
STARTCHAR 0161
ENCODING 353
SWIDTH 533 0
DWIDTH 5 0
BBX 5 7 0 0
BITMAP
50
20
78
C0
78
18
70
ENDCHAR
STARTCHAR 0162
ENCODING 354
SWIDTH 640 0
DWIDTH 6 0
BBX 6 9 0 -2
BITMAP
FC
30
30
30
30
30
30
10
30
ENDCHAR
STARTCHAR 0163
ENCODING 355
SWIDTH 426 0
DWIDTH 4 0
BBX 4 8 0 -2
BITMAP
40
F0
40
40
40
70
20
60
ENDCHAR
STARTCHAR 0164
ENCODING 356
SWIDTH 640 0
DWIDTH 6 0
BBX 6 9 0 0
BITMAP
30
00
FC
30
30
30
30
30
30
ENDCHAR
STARTCHAR 0165
ENCODING 357
SWIDTH 426 0
DWIDTH 4 0
BBX 4 8 0 0
BITMAP
10
10
40
F0
40
40
40
70
ENDCHAR
STARTCHAR 0166
ENCODING 358
SWIDTH 640 0
DWIDTH 6 0
BBX 6 7 0 0
BITMAP
FC
30
30
78
30
30
30
ENDCHAR
STARTCHAR 0167
ENCODING 359
SWIDTH 426 0
DWIDTH 4 0
BBX 4 6 0 0
BITMAP
40
F0
40
F0
40
70
ENDCHAR
STARTCHAR 0168
ENCODING 360
SWIDTH 746 0
DWIDTH 7 0
BBX 5 10 1 0
BITMAP
70
50
00
C8
C8
C8
C8
C8
C8
78
ENDCHAR
STARTCHAR 0169
ENCODING 361
SWIDTH 640 0
DWIDTH 6 0
BBX 5 7 1 0
BITMAP
50
30
98
98
98
98
F8
ENDCHAR
STARTCHAR 016A
ENCODING 362
SWIDTH 746 0
DWIDTH 7 0
BBX 5 9 1 0
BITMAP
70
00
C8
C8
C8
C8
C8
C8
78
ENDCHAR
STARTCHAR 016B
ENCODING 363
SWIDTH 640 0
DWIDTH 6 0
BBX 5 7 1 0
BITMAP
70
00
98
98
98
98
F8
ENDCHAR
STARTCHAR 016C
ENCODING 364
SWIDTH 746 0
DWIDTH 7 0
BBX 5 9 1 0
BITMAP
70
00
C8
C8
C8
C8
C8
C8
78
ENDCHAR
STARTCHAR 016D
ENCODING 365
SWIDTH 640 0
DWIDTH 6 0
BBX 5 7 1 0
BITMAP
70
00
98
98
98
98
F8
ENDCHAR
STARTCHAR 016E
ENCODING 366
SWIDTH 746 0
DWIDTH 7 0
BBX 5 8 1 0
BITMAP
30
D8
F8
C8
C8
C8
C8
78
ENDCHAR
STARTCHAR 016F
ENCODING 367
SWIDTH 640 0
DWIDTH 6 0
BBX 5 8 1 0
BITMAP
60
60
60
98
98
98
98
F8
ENDCHAR
STARTCHAR 0170
ENCODING 368
SWIDTH 746 0
DWIDTH 7 0
BBX 5 9 1 0
BITMAP
50
00
C8
C8
C8
C8
C8
C8
78
ENDCHAR
STARTCHAR 0171
ENCODING 369
SWIDTH 640 0
DWIDTH 6 0
BBX 5 8 1 0
BITMAP
50
60
00
98
98
98
98
F8
ENDCHAR
STARTCHAR 0172
ENCODING 370
SWIDTH 746 0
DWIDTH 7 0
BBX 5 9 1 -2
BITMAP
C8
C8
C8
C8
C8
C8
78
20
30
ENDCHAR
STARTCHAR 0173
ENCODING 371
SWIDTH 640 0
DWIDTH 6 0
BBX 5 7 1 -2
BITMAP
98
98
98
98
F8
10
08
ENDCHAR
STARTCHAR 0174
ENCODING 372
SWIDTH 1066 0
DWIDTH 10 0
BBX 10 9 0 0
BITMAP
0C00
0000
CCC0
4C80
4D80
7F80
7380
7300
3300
ENDCHAR
STARTCHAR 0175
ENCODING 373
SWIDTH 853 0
DWIDTH 8 0
BBX 8 7 0 0
BITMAP
18
14
DB
5B
5A
76
66
ENDCHAR
STARTCHAR 0176
ENCODING 374
SWIDTH 746 0
DWIDTH 7 0
BBX 6 9 0 0
BITMAP
30
00
CC
6C
78
30
30
30
30
ENDCHAR
STARTCHAR 0177
ENCODING 375
SWIDTH 640 0
DWIDTH 6 0
BBX 6 9 0 -2
BITMAP
30
50
CC
48
78
30
30
30
60
ENDCHAR
STARTCHAR 0178
ENCODING 376
SWIDTH 746 0
DWIDTH 7 0
BBX 6 9 0 0
BITMAP
28
00
CC
6C
78
30
30
30
30
ENDCHAR
STARTCHAR 0179
ENCODING 377
SWIDTH 746 0
DWIDTH 7 0
BBX 6 9 0 0
BITMAP
10
00
FC
0C
18
30
70
60
FC
ENDCHAR
STARTCHAR 017A
ENCODING 378
SWIDTH 533 0
DWIDTH 5 0
BBX 5 7 0 0
BITMAP
10
20
78
10
30
60
F8
ENDCHAR
STARTCHAR 017B
ENCODING 379
SWIDTH 746 0
DWIDTH 7 0
BBX 6 9 0 0
BITMAP
10
00
FC
0C
18
30
70
60
FC
ENDCHAR
STARTCHAR 017C
ENCODING 380
SWIDTH 533 0
DWIDTH 5 0
BBX 5 8 0 0
BITMAP
20
20
00
78
10
30
60
F8
ENDCHAR
STARTCHAR 017D
ENCODING 381
SWIDTH 746 0
DWIDTH 7 0
BBX 6 9 0 0
BITMAP
30
00
FC
0C
18
30
70
60
FC
ENDCHAR
STARTCHAR 017E
ENCODING 382
SWIDTH 533 0
DWIDTH 5 0
BBX 5 7 0 0
BITMAP
50
20
78
10
30
60
F8
ENDCHAR
STARTCHAR 017F
ENCODING 383
SWIDTH 426 0
DWIDTH 4 0
BBX 4 8 0 0
BITMAP
70
60
60
E0
60
60
60
60
ENDCHAR
STARTCHAR 0180
ENCODING 384
SWIDTH 640 0
DWIDTH 6 0
BBX 6 8 0 0
BITMAP
40
F0
40
78
6C
4C
6C
78
ENDCHAR
STARTCHAR 0181
ENCODING 385
SWIDTH 746 0
DWIDTH 7 0
BBX 8 7 -1 0
BITMAP
7E
F2
32
3E
33
33
3E
ENDCHAR
STARTCHAR 0182
ENCODING 386
SWIDTH 746 0
DWIDTH 7 0
BBX 5 7 1 0
BITMAP
F8
C0
C0
F8
D8
D8
F8
ENDCHAR
STARTCHAR 0183
ENCODING 387
SWIDTH 640 0
DWIDTH 6 0
BBX 5 8 1 0
BITMAP
F0
80
80
F0
D8
98
D8
F0
ENDCHAR
STARTCHAR 0184
ENCODING 388
SWIDTH 746 0
DWIDTH 7 0
BBX 6 6 1 1
BITMAP
C0
C0
F8
CC
CC
F8
ENDCHAR
STARTCHAR 0185
ENCODING 389
SWIDTH 640 0
DWIDTH 6 0
BBX 5 7 1 0
BITMAP
40
C0
F8
D8
C8
D8
F8
ENDCHAR
STARTCHAR 0186
ENCODING 390
SWIDTH 746 0
DWIDTH 7 0
BBX 6 7 0 0
BITMAP
F0
0C
0C
0C
0C
0C
F0
ENDCHAR
STARTCHAR 0187
ENCODING 391
SWIDTH 746 0
DWIDTH 7 0
BBX 7 9 0 0
BITMAP
06
0C
3C
64
40
C0
40
64
3C
ENDCHAR
STARTCHAR 0188
ENCODING 392
SWIDTH 533 0
DWIDTH 5 0
BBX 6 7 0 0
BITMAP
0C
18
78
40
C0
40
78
ENDCHAR
STARTCHAR 0189
ENCODING 393
SWIDTH 853 0
DWIDTH 8 0
BBX 7 7 0 0
BITMAP
7C
66
66
F6
66
66
7C
ENDCHAR
STARTCHAR 018A
ENCODING 394
SWIDTH 853 0
DWIDTH 8 0
BBX 8 7 -1 0
BITMAP
7E
F3
31
31
31
33
3E
ENDCHAR
STARTCHAR 018B
ENCODING 395
SWIDTH 746 0
DWIDTH 7 0
BBX 5 7 1 0
BITMAP
F8
18
18
F8
98
98
F8
ENDCHAR
STARTCHAR 018C
ENCODING 396
SWIDTH 640 0
DWIDTH 6 0
BBX 6 8 0 0
BITMAP
7C
0C
0C
7C
4C
CC
4C
7C
ENDCHAR
STARTCHAR 018D
ENCODING 397
SWIDTH 640 0
DWIDTH 6 0
BBX 6 7 0 -2
BITMAP
78
4C
CC
4C
78
08
78
ENDCHAR
STARTCHAR 018E
ENCODING 398
SWIDTH 640 0
DWIDTH 6 0
BBX 4 7 1 0
BITMAP
F0
10
10
F0
10
10
F0
ENDCHAR
STARTCHAR 018F
ENCODING 399
SWIDTH 853 0
DWIDTH 8 0
BBX 7 7 0 0
BITMAP
7C
46
06
FE
46
66
3C
ENDCHAR
STARTCHAR 0190
ENCODING 400
SWIDTH 640 0
DWIDTH 6 0
BBX 5 7 1 0
BITMAP
F0
C0
C0
60
80
80
F8
ENDCHAR
STARTCHAR 0191
ENCODING 401
SWIDTH 640 0
DWIDTH 6 0
BBX 6 9 -1 -2
BITMAP
3C
30
30
3C
30
30
30
20
E0
ENDCHAR
STARTCHAR 0192
ENCODING 402
SWIDTH 426 0
DWIDTH 4 0
BBX 5 10 -1 -2
BITMAP
38
30
30
78
30
30
30
30
30
E0
ENDCHAR
STARTCHAR 0193
ENCODING 403
SWIDTH 746 0
DWIDTH 7 0
BBX 8 8 0 0
BITMAP
07
3E
64
40
CE
46
66
3E
ENDCHAR
STARTCHAR 0194
ENCODING 404
SWIDTH 746 0
DWIDTH 7 0
BBX 7 9 0 -2
BITMAP
C6
64
6C
38
18
38
28
2C
38
ENDCHAR
STARTCHAR 0195
ENCODING 405
SWIDTH 960 0
DWIDTH 9 0
BBX 8 7 1 0
BITMAP
80
80
B2
DB
9B
9B
8E
ENDCHAR
STARTCHAR 0196
ENCODING 406
SWIDTH 426 0
DWIDTH 4 0
BBX 3 7 1 0
BITMAP
C0
C0
C0
C0
C0
C0
60
ENDCHAR
STARTCHAR 0197
ENCODING 407
SWIDTH 426 0
DWIDTH 4 0
BBX 3 7 0 0
BITMAP
60
60
60
E0
60
60
60
ENDCHAR
STARTCHAR 0198
ENCODING 408
SWIDTH 746 0
DWIDTH 7 0
BBX 6 7 1 0
BITMAP
C8
DC
F4
E0
F0
D8
CC
ENDCHAR
STARTCHAR 0199
ENCODING 409
SWIDTH 640 0
DWIDTH 6 0
BBX 5 7 1 0
BITMAP
E0
80
98
A0
E0
B0
98
ENDCHAR
STARTCHAR 019A
ENCODING 410
SWIDTH 320 0
DWIDTH 3 0
BBX 3 8 0 0
BITMAP
40
40
40
40
E0
40
40
40
ENDCHAR
STARTCHAR 019B
ENCODING 411
SWIDTH 533 0
DWIDTH 5 0
BBX 5 7 0 0
BITMAP
70
E0
20
70
70
58
D8
ENDCHAR
STARTCHAR 019C
ENCODING 412
SWIDTH 960 0
DWIDTH 9 0
BBX 8 7 1 0
BITMAP
9B
9B
9B
9B
9B
9B
FF
ENDCHAR
STARTCHAR 019D
ENCODING 413
SWIDTH 853 0
DWIDTH 8 0
BBX 8 9 -1 -2
BITMAP
33
33
2B
2B
27
27
23
20
E0
ENDCHAR
STARTCHAR 019E
ENCODING 414
SWIDTH 640 0
DWIDTH 6 0
BBX 5 7 1 -2
BITMAP
F0
D8
98
98
98
18
18
ENDCHAR
STARTCHAR 019F
ENCODING 415
SWIDTH 853 0
DWIDTH 8 0
BBX 7 7 0 0
BITMAP
3C
66
46
FE
46
66
3C
ENDCHAR
STARTCHAR 01A0
ENCODING 416
SWIDTH 853 0
DWIDTH 8 0
BBX 8 7 0 0
BITMAP
3C
67
46
C6
46
66
3C
ENDCHAR
STARTCHAR 01A1
ENCODING 417
SWIDTH 640 0
DWIDTH 6 0
BBX 6 5 0 0
BITMAP
7C
4C
CC
4C
78
ENDCHAR
STARTCHAR 01A2
ENCODING 418
SWIDTH 1066 0
DWIDTH 10 0
BBX 9 7 0 0
BITMAP
3F00
6580
4580
C580
4580
6580
3D80
ENDCHAR
STARTCHAR 01A3
ENCODING 419
SWIDTH 853 0
DWIDTH 8 0
BBX 7 7 0 -2
BITMAP
7E
4A
CA
4A
7A
02
02
ENDCHAR
STARTCHAR 01A4
ENCODING 420
SWIDTH 746 0
DWIDTH 7 0
BBX 8 7 -1 0
BITMAP
7E
F3
33
3E
30
30
30
ENDCHAR
STARTCHAR 01A5
ENCODING 421
SWIDTH 640 0
DWIDTH 6 0
BBX 5 10 1 -2
BITMAP
E0
80
80
F0
D8
98
D8
F0
80
80
ENDCHAR
STARTCHAR 01A6
ENCODING 422
SWIDTH 746 0
DWIDTH 7 0
BBX 5 8 1 -1
BITMAP
C0
C0
F8
D8
F8
F0
D8
08
ENDCHAR
STARTCHAR 01A7
ENCODING 423
SWIDTH 640 0
DWIDTH 6 0
BBX 5 7 0 0
BITMAP
70
78
08
78
E0
C0
78
ENDCHAR
STARTCHAR 01A8
ENCODING 424
SWIDTH 533 0
DWIDTH 5 0
BBX 5 5 0 0
BITMAP
F0
18
F0
C0
F8
ENDCHAR
STARTCHAR 01A9
ENCODING 425
SWIDTH 640 0
DWIDTH 6 0
BBX 4 7 1 0
BITMAP
F0
C0
60
20
60
C0
F0
ENDCHAR
STARTCHAR 01AA
ENCODING 426
SWIDTH 533 0
DWIDTH 5 0
BBX 5 9 0 -2
BITMAP
E0
B0
F0
30
30
30
30
30
38
ENDCHAR
STARTCHAR 01AB
ENCODING 427
SWIDTH 426 0
DWIDTH 4 0
BBX 4 8 0 -2
BITMAP
40
F0
40
40
40
70
30
60
ENDCHAR
STARTCHAR 01AC
ENCODING 428
SWIDTH 640 0
DWIDTH 6 0
BBX 6 7 0 0
BITMAP
FC
B0
30
30
30
30
30
ENDCHAR
STARTCHAR 01AD
ENCODING 429
SWIDTH 426 0
DWIDTH 4 0
BBX 4 8 0 0
BITMAP
70
60
40
F0
40
40
40
70
ENDCHAR
STARTCHAR 01AE
ENCODING 430
SWIDTH 640 0
DWIDTH 6 0
BBX 6 9 0 -2
BITMAP
FC
30
30
30
30
30
30
30
18
ENDCHAR
STARTCHAR 01AF
ENCODING 431
SWIDTH 853 0
DWIDTH 8 0
BBX 6 7 1 0
BITMAP
C8
CC
C8
C8
C8
C8
78
ENDCHAR
STARTCHAR 01B0
ENCODING 432
SWIDTH 640 0
DWIDTH 6 0
BBX 6 5 1 0
BITMAP
9C
98
98
98
F8
ENDCHAR
STARTCHAR 01B1
ENCODING 433
SWIDTH 853 0
DWIDTH 8 0
BBX 7 7 0 0
BITMAP
EE
66
46
C6
46
66
3C
ENDCHAR
STARTCHAR 01B2
ENCODING 434
SWIDTH 746 0
DWIDTH 7 0
BBX 6 7 1 0
BITMAP
C0
D8
CC
C4
C4
CC
78
ENDCHAR
STARTCHAR 01B3
ENCODING 435
SWIDTH 746 0
DWIDTH 7 0
BBX 7 7 0 0
BITMAP
C4
4E
7A
38
30
30
30
ENDCHAR
STARTCHAR 01B4
ENCODING 436
SWIDTH 746 0
DWIDTH 7 0
BBX 7 7 0 -2
BITMAP
CE
4A
78
30
30
30
60
ENDCHAR
STARTCHAR 01B5
ENCODING 437
SWIDTH 746 0
DWIDTH 7 0
BBX 6 7 0 0
BITMAP
FC
FC
18
7C
30
60
FC
ENDCHAR
STARTCHAR 01B6
ENCODING 438
SWIDTH 533 0
DWIDTH 5 0
BBX 5 5 0 0
BITMAP
78
10
78
60
F8
ENDCHAR
STARTCHAR 01B7
ENCODING 439
SWIDTH 746 0
DWIDTH 7 0
BBX 6 7 1 0
BITMAP
F8
F8
30
30
18
0C
F8
ENDCHAR
STARTCHAR 01B8
ENCODING 440
SWIDTH 746 0
DWIDTH 7 0
BBX 6 7 0 0
BITMAP
7C
7C
30
30
60
C0
7C
ENDCHAR
STARTCHAR 01B9
ENCODING 441
SWIDTH 640 0
DWIDTH 6 0
BBX 5 7 0 -2
BITMAP
78
60
30
70
C0
C0
78
ENDCHAR
STARTCHAR 01BA
ENCODING 442
SWIDTH 533 0
DWIDTH 5 0
BBX 4 7 1 -2
BITMAP
F0
20
60
B0
F0
80
F0
ENDCHAR
STARTCHAR 01BB
ENCODING 443
SWIDTH 640 0
DWIDTH 6 0
BBX 4 7 1 0
BITMAP
E0
B0
10
F0
F0
C0
F0
ENDCHAR
STARTCHAR 01BC
ENCODING 444
SWIDTH 746 0
DWIDTH 7 0
BBX 7 7 0 0
BITMAP
78
78
60
78
0C
C6
7C
ENDCHAR
STARTCHAR 01BD
ENCODING 445
SWIDTH 640 0
DWIDTH 6 0
BBX 5 7 0 -2
BITMAP
70
40
40
78
08
98
F0
ENDCHAR
STARTCHAR 01BE
ENCODING 446
SWIDTH 533 0
DWIDTH 5 0
BBX 5 6 0 0
BITMAP
F0
60
70
18
18
F0
ENDCHAR
STARTCHAR 01BF
ENCODING 447
SWIDTH 640 0
DWIDTH 6 0
BBX 5 7 1 -2
BITMAP
B8
D8
98
B0
E0
80
80
ENDCHAR
STARTCHAR 01C0
ENCODING 448
SWIDTH 320 0
DWIDTH 3 0
BBX 2 9 1 -2
BITMAP
C0
C0
C0
C0
C0
C0
C0
C0
C0
ENDCHAR
STARTCHAR 01C1
ENCODING 449
SWIDTH 640 0
DWIDTH 6 0
BBX 4 9 1 -2
BITMAP
F0
F0
F0
F0
F0
F0
F0
F0
F0
ENDCHAR
STARTCHAR 01C2
ENCODING 450
SWIDTH 533 0
DWIDTH 5 0
BBX 5 9 0 -2
BITMAP
20
20
20
F8
20
F8
20
20
20
ENDCHAR
STARTCHAR 01C3
ENCODING 451
SWIDTH 320 0
DWIDTH 3 0
BBX 1 7 1 0
BITMAP
80
80
80
80
00
80
80
ENDCHAR
STARTCHAR 01C4
ENCODING 452
SWIDTH 1493 0
DWIDTH 14 0
BBX 13 9 1 0
BITMAP
00A0
0040
F1F0
C830
CC70
CC60
CCC0
C980
F1F8
ENDCHAR
STARTCHAR 01C5
ENCODING 453
SWIDTH 1386 0
DWIDTH 13 0
BBX 11 7 1 0
BITMAP
F0C0
C8C0
CDE0
CC60
CCC0
C980
F1E0
ENDCHAR
STARTCHAR 01C6
ENCODING 454
SWIDTH 1280 0
DWIDTH 12 0
BBX 11 8 0 0
BITMAP
0C00
0CC0
0CC0
7DE0
4C60
CCC0
4D80
7DE0
ENDCHAR
STARTCHAR 01C7
ENCODING 455
SWIDTH 960 0
DWIDTH 9 0
BBX 7 9 1 -2
BITMAP
C2
C2
C2
C2
C2
C2
F2
06
0C
ENDCHAR
STARTCHAR 01C8
ENCODING 456
SWIDTH 960 0
DWIDTH 9 0
BBX 7 10 1 -2
BITMAP
06
C6
C0
C6
C6
C6
C6
F6
06
0E
ENDCHAR
STARTCHAR 01C9
ENCODING 457
SWIDTH 640 0
DWIDTH 6 0
BBX 4 10 1 -2
BITMAP
90
90
80
90
90
90
90
90
10
30
ENDCHAR
STARTCHAR 01CA
ENCODING 458
SWIDTH 1173 0
DWIDTH 11 0
BBX 9 9 1 -2
BITMAP
CD80
CD80
AD80
AD80
9D80
9D80
8D80
0180
0300
ENDCHAR
STARTCHAR 01CB
ENCODING 459
SWIDTH 1173 0
DWIDTH 11 0
BBX 9 10 1 -2
BITMAP
0180
CD80
CC00
AD80
AD80
9D80
9D80
8D80
0180
0300
ENDCHAR
STARTCHAR 01CC
ENCODING 460
SWIDTH 1066 0
DWIDTH 10 0
BBX 8 10 1 -2
BITMAP
03
03
00
F3
DB
9B
9B
9B
03
06
ENDCHAR
STARTCHAR 01CD
ENCODING 461
SWIDTH 746 0
DWIDTH 7 0
BBX 7 9 0 0
BITMAP
28
10
38
38
28
6C
6C
7C
C6
ENDCHAR
STARTCHAR 01CE
ENCODING 462
SWIDTH 640 0
DWIDTH 6 0
BBX 5 7 0 0
BITMAP
30
30
78
08
78
C8
78
ENDCHAR
STARTCHAR 01CF
ENCODING 463
SWIDTH 320 0
DWIDTH 3 0
BBX 2 9 1 0
BITMAP
C0
00
C0
C0
C0
C0
C0
C0
C0
ENDCHAR
STARTCHAR 01D0
ENCODING 464
SWIDTH 320 0
DWIDTH 3 0
BBX 3 7 0 0
BITMAP
A0
40
40
40
40
40
40
ENDCHAR
STARTCHAR 01D1
ENCODING 465
SWIDTH 853 0
DWIDTH 8 0
BBX 7 9 0 0
BITMAP
18
00
3C
66
46
C6
46
66
3C
ENDCHAR
STARTCHAR 01D2
ENCODING 466
SWIDTH 640 0
DWIDTH 6 0
BBX 6 7 0 0
BITMAP
28
30
78
4C
CC
4C
78
ENDCHAR
STARTCHAR 01D3
ENCODING 467
SWIDTH 746 0
DWIDTH 7 0
BBX 5 9 1 0
BITMAP
50
20
C8
C8
C8
C8
C8
C8
78
ENDCHAR
STARTCHAR 01D4
ENCODING 468
SWIDTH 640 0
DWIDTH 6 0
BBX 5 7 1 0
BITMAP
50
60
98
98
98
98
F8
ENDCHAR
STARTCHAR 01D5
ENCODING 469
SWIDTH 746 0
DWIDTH 7 0
BBX 5 10 1 0
BITMAP
70
50
00
C8
C8
C8
C8
C8
C8
78
ENDCHAR
STARTCHAR 01D6
ENCODING 470
SWIDTH 640 0
DWIDTH 6 0
BBX 5 8 1 0
BITMAP
70
50
00
98
98
98
98
F8
ENDCHAR
STARTCHAR 01D7
ENCODING 471
SWIDTH 746 0
DWIDTH 7 0
BBX 5 10 1 0
BITMAP
20
50
00
C8
C8
C8
C8
C8
C8
78
ENDCHAR
STARTCHAR 01D8
ENCODING 472
SWIDTH 640 0
DWIDTH 6 0
BBX 5 9 1 0
BITMAP
20
50
00
00
98
98
98
98
F8
ENDCHAR
STARTCHAR 01D9
ENCODING 473
SWIDTH 746 0
DWIDTH 7 0
BBX 5 10 1 0
BITMAP
50
70
00
C8
C8
C8
C8
C8
C8
78
ENDCHAR
STARTCHAR 01DA
ENCODING 474
SWIDTH 640 0
DWIDTH 6 0
BBX 5 9 1 0
BITMAP
60
50
00
00
98
98
98
98
F8
ENDCHAR
STARTCHAR 01DB
ENCODING 475
SWIDTH 746 0
DWIDTH 7 0
BBX 5 10 1 0
BITMAP
20
50
00
C8
C8
C8
C8
C8
C8
78
ENDCHAR
STARTCHAR 01DC
ENCODING 476
SWIDTH 640 0
DWIDTH 6 0
BBX 5 9 1 0
BITMAP
40
50
00
00
98
98
98
98
F8
ENDCHAR
STARTCHAR 01DD
ENCODING 477
SWIDTH 640 0
DWIDTH 6 0
BBX 6 5 0 0
BITMAP
78
0C
FC
4C
78
ENDCHAR
STARTCHAR 01DE
ENCODING 478
SWIDTH 746 0
DWIDTH 7 0
BBX 7 10 0 0
BITMAP
38
28
00
38
38
28
6C
6C
7C
C6
ENDCHAR
STARTCHAR 01DF
ENCODING 479
SWIDTH 640 0
DWIDTH 6 0
BBX 5 8 0 0
BITMAP
30
30
00
78
08
78
C8
78
ENDCHAR
STARTCHAR 01E0
ENCODING 480
SWIDTH 746 0
DWIDTH 7 0
BBX 7 10 0 0
BITMAP
38
10
00
38
38
28
6C
6C
7C
C6
ENDCHAR
STARTCHAR 01E1
ENCODING 481
SWIDTH 640 0
DWIDTH 6 0
BBX 5 8 0 0
BITMAP
70
30
00
78
08
78
C8
78
ENDCHAR
STARTCHAR 01E2
ENCODING 482
SWIDTH 1066 0
DWIDTH 10 0
BBX 9 8 0 0
BITMAP
0E00
1F80
3C00
2C00
6F80
7C00
4C00
CF80
ENDCHAR
STARTCHAR 01E3
ENCODING 483
SWIDTH 960 0
DWIDTH 9 0
BBX 9 7 0 0
BITMAP
1C00
0000
7700
0D80
7F80
C800
7780
ENDCHAR
STARTCHAR 01E4
ENCODING 484
SWIDTH 746 0
DWIDTH 7 0
BBX 7 7 0 0
BITMAP
1C
7C
40
CE
46
66
3E
ENDCHAR
STARTCHAR 01E5
ENCODING 485
SWIDTH 640 0
DWIDTH 6 0
BBX 6 7 0 -2
BITMAP
7C
4C
CC
4C
7C
3C
78
ENDCHAR
STARTCHAR 01E6
ENCODING 486
SWIDTH 746 0
DWIDTH 7 0
BBX 7 9 0 0
BITMAP
18
00
3C
64
40
CE
46
66
3E
ENDCHAR
STARTCHAR 01E7
ENCODING 487
SWIDTH 640 0
DWIDTH 6 0
BBX 6 9 0 -2
BITMAP
28
30
7C
4C
CC
4C
7C
0C
78
ENDCHAR
STARTCHAR 01E8
ENCODING 488
SWIDTH 746 0
DWIDTH 7 0
BBX 6 9 1 0
BITMAP
30
00
D8
D0
F0
E0
F0
D8
CC
ENDCHAR
STARTCHAR 01E9
ENCODING 489
SWIDTH 640 0
DWIDTH 6 0
BBX 6 9 0 0
BITMAP
A0
40
40
40
48
50
70
58
4C
ENDCHAR
STARTCHAR 01EA
ENCODING 490
SWIDTH 853 0
DWIDTH 8 0
BBX 7 9 0 -2
BITMAP
3C
66
46
C6
46
66
3C
10
18
ENDCHAR
STARTCHAR 01EB
ENCODING 491
SWIDTH 640 0
DWIDTH 6 0
BBX 6 7 0 -2
BITMAP
78
4C
CC
4C
78
20
30
ENDCHAR
STARTCHAR 01EC
ENCODING 492
SWIDTH 853 0
DWIDTH 8 0
BBX 7 10 0 -2
BITMAP
38
3C
66
46
C6
46
66
3C
10
18
ENDCHAR
STARTCHAR 01ED
ENCODING 493
SWIDTH 640 0
DWIDTH 6 0
BBX 6 9 0 -2
BITMAP
30
00
78
4C
CC
4C
78
20
30
ENDCHAR
STARTCHAR 01EE
ENCODING 494
SWIDTH 746 0
DWIDTH 7 0
BBX 6 9 1 0
BITMAP
60
00
F8
F8
30
30
18
0C
F8
ENDCHAR
STARTCHAR 01EF
ENCODING 495
SWIDTH 533 0
DWIDTH 5 0
BBX 5 9 0 -2
BITMAP
50
20
78
10
30
78
08
98
F0
ENDCHAR
STARTCHAR 01F0
ENCODING 496
SWIDTH 320 0
DWIDTH 3 0
BBX 3 9 0 -2
BITMAP
A0
40
40
40
40
40
40
40
C0
ENDCHAR
STARTCHAR 01F1
ENCODING 497
SWIDTH 1493 0
DWIDTH 14 0
BBX 13 7 1 0
BITMAP
F1F0
C830
CC70
CC60
CCC0
C980
F1F8
ENDCHAR
STARTCHAR 01F2
ENCODING 498
SWIDTH 1386 0
DWIDTH 13 0
BBX 11 7 1 0
BITMAP
F000
C800
CDE0
CC60
CCC0
C980
F1E0
ENDCHAR
STARTCHAR 01F3
ENCODING 499
SWIDTH 1280 0
DWIDTH 12 0
BBX 11 8 0 0
BITMAP
0C00
0C00
0C00
7DE0
4C60
CCC0
4D80
7DE0
ENDCHAR
STARTCHAR 01F4
ENCODING 500
SWIDTH 746 0
DWIDTH 7 0
BBX 7 9 0 0
BITMAP
10
00
3C
64
40
CE
46
66
3E
ENDCHAR
STARTCHAR 01F5
ENCODING 501
SWIDTH 640 0
DWIDTH 6 0
BBX 6 9 0 -2
BITMAP
10
10
7C
4C
CC
4C
7C
0C
78
ENDCHAR
STARTCHAR 01F6
ENCODING 502
SWIDTH 1280 0
DWIDTH 12 0
BBX 10 7 1 0
BITMAP
CC00
CC00
CCC0
FCC0
CCC0
CCC0
C780
ENDCHAR
STARTCHAR 01F7
ENCODING 503
SWIDTH 746 0
DWIDTH 7 0
BBX 6 9 1 -2
BITMAP
F8
FC
CC
D8
F0
E0
C0
C0
C0
ENDCHAR
STARTCHAR 01F8
ENCODING 504
SWIDTH 853 0
DWIDTH 8 0
BBX 6 9 1 0
BITMAP
20
00
CC
CC
AC
AC
9C
9C
8C
ENDCHAR
STARTCHAR 01F9
ENCODING 505
SWIDTH 640 0
DWIDTH 6 0
BBX 5 7 1 0
BITMAP
60
20
F0
D8
98
98
98
ENDCHAR
STARTCHAR 01FA
ENCODING 506
SWIDTH 746 0
DWIDTH 7 0
BBX 7 9 0 0
BITMAP
04
38
38
38
28
6C
6C
7C
C6
ENDCHAR
STARTCHAR 01FB
ENCODING 507
SWIDTH 640 0
DWIDTH 6 0
BBX 6 9 0 0
BITMAP
04
30
50
30
78
08
78
C8
78
ENDCHAR
STARTCHAR 01FC
ENCODING 508
SWIDTH 1066 0
DWIDTH 10 0
BBX 9 9 0 0
BITMAP
0400
0000
1F80
3C00
2C00
6F80
7C00
4C00
CF80
ENDCHAR
STARTCHAR 01FD
ENCODING 509
SWIDTH 960 0
DWIDTH 9 0
BBX 9 7 0 0
BITMAP
0800
0800
7700
0D80
7F80
C800
7780
ENDCHAR
STARTCHAR 01FE
ENCODING 510
SWIDTH 853 0
DWIDTH 8 0
BBX 7 9 0 0
BITMAP
10
00
3E
66
4E
D6
66
66
7C
ENDCHAR
STARTCHAR 01FF
ENCODING 511
SWIDTH 640 0
DWIDTH 6 0
BBX 6 7 0 0
BITMAP
10
20
78
4C
DC
6C
78
ENDCHAR
STARTCHAR 0200
ENCODING 512
SWIDTH 746 0
DWIDTH 7 0
BBX 7 9 0 0
BITMAP
30
08
38
38
28
6C
6C
7C
C6
ENDCHAR
STARTCHAR 0201
ENCODING 513
SWIDTH 640 0
DWIDTH 6 0
BBX 5 7 0 0
BITMAP
50
00
78
08
78
C8
78
ENDCHAR
STARTCHAR 0202
ENCODING 514
SWIDTH 746 0
DWIDTH 7 0
BBX 7 9 0 0
BITMAP
10
00
38
38
28
6C
6C
7C
C6
ENDCHAR
STARTCHAR 0203
ENCODING 515
SWIDTH 640 0
DWIDTH 6 0
BBX 5 7 0 0
BITMAP
30
00
78
08
78
C8
78
ENDCHAR
STARTCHAR 0204
ENCODING 516
SWIDTH 640 0
DWIDTH 6 0
BBX 4 9 1 0
BITMAP
E0
00
F0
C0
C0
F0
C0
C0
F0
ENDCHAR
STARTCHAR 0205
ENCODING 517
SWIDTH 640 0
DWIDTH 6 0
BBX 6 7 0 0
BITMAP
30
00
78
4C
FC
40
78
ENDCHAR
STARTCHAR 0206
ENCODING 518
SWIDTH 640 0
DWIDTH 6 0
BBX 4 9 1 0
BITMAP
60
00
F0
C0
C0
F0
C0
C0
F0
ENDCHAR
STARTCHAR 0207
ENCODING 519
SWIDTH 640 0
DWIDTH 6 0
BBX 6 7 0 0
BITMAP
38
00
78
4C
FC
40
78
ENDCHAR
STARTCHAR 0208
ENCODING 520
SWIDTH 320 0
DWIDTH 3 0
BBX 3 9 0 0
BITMAP
A0
00
60
60
60
60
60
60
60
ENDCHAR
STARTCHAR 0209
ENCODING 521
SWIDTH 320 0
DWIDTH 3 0
BBX 3 7 0 0
BITMAP
A0
00
40
40
40
40
40
ENDCHAR
STARTCHAR 020A
ENCODING 522
SWIDTH 320 0
DWIDTH 3 0
BBX 2 9 1 0
BITMAP
C0
00
C0
C0
C0
C0
C0
C0
C0
ENDCHAR
STARTCHAR 020B
ENCODING 523
SWIDTH 320 0
DWIDTH 3 0
BBX 3 7 0 0
BITMAP
E0
00
40
40
40
40
40
ENDCHAR
STARTCHAR 020C
ENCODING 524
SWIDTH 853 0
DWIDTH 8 0
BBX 7 9 0 0
BITMAP
28
00
3C
66
46
C6
46
66
3C
ENDCHAR
STARTCHAR 020D
ENCODING 525
SWIDTH 640 0
DWIDTH 6 0
BBX 6 7 0 0
BITMAP
50
00
78
4C
CC
4C
78
ENDCHAR
STARTCHAR 020E
ENCODING 526
SWIDTH 853 0
DWIDTH 8 0
BBX 7 9 0 0
BITMAP
18
00
3C
66
46
C6
46
66
3C
ENDCHAR
STARTCHAR 020F
ENCODING 527
SWIDTH 640 0
DWIDTH 6 0
BBX 6 7 0 0
BITMAP
30
00
78
4C
CC
4C
78
ENDCHAR
STARTCHAR 0210
ENCODING 528
SWIDTH 746 0
DWIDTH 7 0
BBX 6 9 1 0
BITMAP
A0
40
F0
D8
D8
F0
D8
D8
CC
ENDCHAR
STARTCHAR 0211
ENCODING 529
SWIDTH 426 0
DWIDTH 4 0
BBX 3 7 1 0
BITMAP
C0
00
E0
C0
80
80
80
ENDCHAR
STARTCHAR 0212
ENCODING 530
SWIDTH 746 0
DWIDTH 7 0
BBX 6 9 1 0
BITMAP
60
00
F0
D8
D8
F0
D8
D8
CC
ENDCHAR
STARTCHAR 0213
ENCODING 531
SWIDTH 426 0
DWIDTH 4 0
BBX 3 7 1 0
BITMAP
E0
00
E0
C0
80
80
80
ENDCHAR
STARTCHAR 0214
ENCODING 532
SWIDTH 746 0
DWIDTH 7 0
BBX 5 9 1 0
BITMAP
50
00
C8
C8
C8
C8
C8
C8
78
ENDCHAR
STARTCHAR 0215
ENCODING 533
SWIDTH 640 0
DWIDTH 6 0
BBX 5 7 1 0
BITMAP
A0
40
98
98
98
98
F8
ENDCHAR
STARTCHAR 0216
ENCODING 534
SWIDTH 746 0
DWIDTH 7 0
BBX 5 9 1 0
BITMAP
30
00
C8
C8
C8
C8
C8
C8
78
ENDCHAR
STARTCHAR 0217
ENCODING 535
SWIDTH 640 0
DWIDTH 6 0
BBX 5 7 1 0
BITMAP
60
00
98
98
98
98
F8
ENDCHAR
STARTCHAR 0218
ENCODING 536
SWIDTH 640 0
DWIDTH 6 0
BBX 5 9 1 -2
BITMAP
F0
90
80
F0
18
98
F0
00
40
ENDCHAR
STARTCHAR 0219
ENCODING 537
SWIDTH 533 0
DWIDTH 5 0
BBX 5 7 0 -2
BITMAP
78
C0
78
18
70
00
20
ENDCHAR
STARTCHAR 021A
ENCODING 538
SWIDTH 640 0
DWIDTH 6 0
BBX 6 9 0 -2
BITMAP
FC
30
30
30
30
30
30
00
20
ENDCHAR
STARTCHAR 021B
ENCODING 539
SWIDTH 426 0
DWIDTH 4 0
BBX 4 8 0 -2
BITMAP
40
F0
40
40
40
70
00
60
ENDCHAR
STARTCHAR 021C
ENCODING 540
SWIDTH 640 0
DWIDTH 6 0
BBX 5 9 1 -2
BITMAP
60
B0
10
30
F0
18
30
E0
80
ENDCHAR
STARTCHAR 021D
ENCODING 541
SWIDTH 533 0
DWIDTH 5 0
BBX 5 7 0 -2
BITMAP
70
18
10
78
18
30
C0
ENDCHAR
STARTCHAR 021E
ENCODING 542
SWIDTH 853 0
DWIDTH 8 0
BBX 6 9 1 0
BITMAP
30
00
CC
CC
CC
FC
CC
CC
CC
ENDCHAR
STARTCHAR 021F
ENCODING 543
SWIDTH 640 0
DWIDTH 6 0
BBX 6 9 0 0
BITMAP
A0
40
40
40
78
6C
4C
4C
4C
ENDCHAR
STARTCHAR 0220
ENCODING 544
SWIDTH 853 0
DWIDTH 8 0
BBX 6 9 1 -2
BITMAP
B8
C8
8C
8C
8C
8C
8C
0C
0C
ENDCHAR
STARTCHAR 0221
ENCODING 545
SWIDTH 853 0
DWIDTH 8 0
BBX 7 7 0 -1
BITMAP
0C
0C
7C
4C
CE
4E
7E
ENDCHAR
STARTCHAR 0222
ENCODING 546
SWIDTH 746 0
DWIDTH 7 0
BBX 6 7 1 0
BITMAP
10
C8
88
70
8C
8C
F8
ENDCHAR
STARTCHAR 0223
ENCODING 547
SWIDTH 640 0
DWIDTH 6 0
BBX 6 6 0 0
BITMAP
48
48
30
C8
CC
78
ENDCHAR
STARTCHAR 0224
ENCODING 548
SWIDTH 746 0
DWIDTH 7 0
BBX 6 9 0 -2
BITMAP
FC
FC
18
30
30
60
FC
0C
1C
ENDCHAR
STARTCHAR 0225
ENCODING 549
SWIDTH 533 0
DWIDTH 5 0
BBX 5 7 0 -2
BITMAP
78
10
30
60
F8
18
30
ENDCHAR
STARTCHAR 0226
ENCODING 550
SWIDTH 746 0
DWIDTH 7 0
BBX 7 9 0 0
BITMAP
10
00
38
38
28
6C
6C
7C
C6
ENDCHAR
STARTCHAR 0227
ENCODING 551
SWIDTH 640 0
DWIDTH 6 0
BBX 5 8 0 0
BITMAP
30
30
00
78
08
78
C8
78
ENDCHAR
STARTCHAR 0228
ENCODING 552
SWIDTH 640 0
DWIDTH 6 0
BBX 4 9 1 -2
BITMAP
F0
C0
C0
F0
C0
C0
F0
20
60
ENDCHAR
STARTCHAR 0229
ENCODING 553
SWIDTH 640 0
DWIDTH 6 0
BBX 6 7 0 -2
BITMAP
78
4C
FC
40
78
10
30
ENDCHAR
STARTCHAR 022A
ENCODING 554
SWIDTH 853 0
DWIDTH 8 0
BBX 7 10 0 0
BITMAP
38
28
00
3C
66
46
C6
46
66
3C
ENDCHAR
STARTCHAR 022B
ENCODING 555
SWIDTH 640 0
DWIDTH 6 0
BBX 6 8 0 0
BITMAP
38
30
00
78
4C
CC
4C
78
ENDCHAR
STARTCHAR 022C
ENCODING 556
SWIDTH 853 0
DWIDTH 8 0
BBX 7 10 0 0
BITMAP
38
18
28
3C
66
46
C6
46
66
3C
ENDCHAR
STARTCHAR 022D
ENCODING 557
SWIDTH 640 0
DWIDTH 6 0
BBX 6 9 0 0
BITMAP
30
28
50
00
78
4C
CC
4C
78
ENDCHAR
STARTCHAR 022E
ENCODING 558
SWIDTH 853 0
DWIDTH 8 0
BBX 7 9 0 0
BITMAP
10
00
3C
66
46
C6
46
66
3C
ENDCHAR
STARTCHAR 022F
ENCODING 559
SWIDTH 640 0
DWIDTH 6 0
BBX 6 8 0 0
BITMAP
30
30
00
78
4C
CC
4C
78
ENDCHAR
STARTCHAR 0230
ENCODING 560
SWIDTH 853 0
DWIDTH 8 0
BBX 7 10 0 0
BITMAP
18
18
00
3C
66
46
C6
46
66
3C
ENDCHAR
STARTCHAR 0231
ENCODING 561
SWIDTH 640 0
DWIDTH 6 0
BBX 6 8 0 0
BITMAP
30
30
00
78
4C
CC
4C
78
ENDCHAR
STARTCHAR 0232
ENCODING 562
SWIDTH 746 0
DWIDTH 7 0
BBX 6 8 0 0
BITMAP
38
CC
6C
78
30
30
30
30
ENDCHAR
STARTCHAR 0233
ENCODING 563
SWIDTH 640 0
DWIDTH 6 0
BBX 6 9 0 -2
BITMAP
30
00
CC
48
78
30
30
30
60
ENDCHAR
STARTCHAR 0234
ENCODING 564
SWIDTH 426 0
DWIDTH 4 0
BBX 3 8 1 -1
BITMAP
80
80
80
80
A0
E0
E0
80
ENDCHAR
STARTCHAR 0235
ENCODING 565
SWIDTH 853 0
DWIDTH 8 0
BBX 6 5 1 -1
BITMAP
B0
D8
9C
9C
8C
ENDCHAR
STARTCHAR 0236
ENCODING 566
SWIDTH 533 0
DWIDTH 5 0
BBX 4 7 0 -1
BITMAP
40
F0
40
50
70
70
40
ENDCHAR
STARTCHAR 0237
ENCODING 567
SWIDTH 320 0
DWIDTH 3 0
BBX 2 7 0 -2
BITMAP
40
40
40
40
40
40
C0
ENDCHAR
STARTCHAR 0238
ENCODING 568
SWIDTH 1066 0
DWIDTH 10 0
BBX 9 7 0 0
BITMAP
0C00
0C00
7F80
4C80
CC80
4C80
7F80
ENDCHAR
STARTCHAR 0239
ENCODING 569
SWIDTH 1066 0
DWIDTH 10 0
BBX 9 7 0 -2
BITMAP
7F80
4C80
CC80
4C80
7F80
0C00
0C00
ENDCHAR
STARTCHAR 023A
ENCODING 570
SWIDTH 746 0
DWIDTH 7 0
BBX 7 7 0 0
BITMAP
3A
3C
28
7C
6C
7C
C6
ENDCHAR
STARTCHAR 023B
ENCODING 571
SWIDTH 746 0
DWIDTH 7 0
BBX 7 7 0 0
BITMAP
1A
7C
48
D0
60
60
BC
ENDCHAR
STARTCHAR 023C
ENCODING 572
SWIDTH 533 0
DWIDTH 5 0
BBX 5 5 0 0
BITMAP
78
50
E0
40
F8
ENDCHAR
STARTCHAR 023D
ENCODING 573
SWIDTH 640 0
DWIDTH 6 0
BBX 5 7 0 0
BITMAP
60
60
60
E0
60
60
78
ENDCHAR
STARTCHAR 023E
ENCODING 574
SWIDTH 640 0
DWIDTH 6 0
BBX 7 7 0 0
BITMAP
FE
FC
38
30
30
70
B0
ENDCHAR
STARTCHAR 023F
ENCODING 575
SWIDTH 533 0
DWIDTH 5 0
BBX 5 7 0 -2
BITMAP
78
C0
78
18
78
20
18
ENDCHAR
STARTCHAR 0240
ENCODING 576
SWIDTH 533 0
DWIDTH 5 0
BBX 5 7 0 -2
BITMAP
78
10
30
60
C0
20
18
ENDCHAR
STARTCHAR 0241
ENCODING 577
SWIDTH 746 0
DWIDTH 7 0
BBX 7 7 0 0
BITMAP
78
FC
06
3E
38
30
30
ENDCHAR
STARTCHAR 0242
ENCODING 578
SWIDTH 640 0
DWIDTH 6 0
BBX 5 5 0 0
BITMAP
70
D8
18
38
20
ENDCHAR
STARTCHAR 0243
ENCODING 579
SWIDTH 746 0
DWIDTH 7 0
BBX 6 7 0 0
BITMAP
78
6C
6C
78
FC
6C
7C
ENDCHAR
STARTCHAR 0244
ENCODING 580
SWIDTH 746 0
DWIDTH 7 0
BBX 7 7 0 0
BITMAP
64
64
64
FE
64
64
3C
ENDCHAR
STARTCHAR 0245
ENCODING 581
SWIDTH 746 0
DWIDTH 7 0
BBX 7 7 0 0
BITMAP
38
38
28
6C
6C
44
C6
ENDCHAR
STARTCHAR 0246
ENCODING 582
SWIDTH 640 0
DWIDTH 6 0
BBX 4 8 1 -1
BITMAP
F0
F0
E0
F0
E0
E0
F0
40
ENDCHAR
STARTCHAR 0247
ENCODING 583
SWIDTH 640 0
DWIDTH 6 0
BBX 6 7 0 -1
BITMAP
08
78
5C
FC
60
78
40
ENDCHAR
STARTCHAR 0248
ENCODING 584
SWIDTH 320 0
DWIDTH 3 0
BBX 4 9 -1 -2
BITMAP
30
30
30
70
30
30
30
20
E0
ENDCHAR
STARTCHAR 0249
ENCODING 585
SWIDTH 320 0
DWIDTH 3 0
BBX 3 10 0 -2
BITMAP
40
40
00
40
40
E0
40
40
40
C0
ENDCHAR
STARTCHAR 024A
ENCODING 586
SWIDTH 853 0
DWIDTH 8 0
BBX 8 9 0 -2
BITMAP
36
7E
46
C6
C6
66
3E
03
03
ENDCHAR
STARTCHAR 024B
ENCODING 587
SWIDTH 746 0
DWIDTH 7 0
BBX 7 7 0 -2
BITMAP
7C
4C
CC
4C
7C
0C
06
ENDCHAR
STARTCHAR 024C
ENCODING 588
SWIDTH 746 0
DWIDTH 7 0
BBX 7 7 0 0
BITMAP
78
6C
6C
F8
6C
6C
66
ENDCHAR
STARTCHAR 024D
ENCODING 589
SWIDTH 426 0
DWIDTH 4 0
BBX 4 5 0 0
BITMAP
70
60
E0
40
40
ENDCHAR
STARTCHAR 024E
ENCODING 590
SWIDTH 746 0
DWIDTH 7 0
BBX 7 7 0 0
BITMAP
C6
FE
78
38
30
30
30
ENDCHAR
STARTCHAR 024F
ENCODING 591
SWIDTH 640 0
DWIDTH 6 0
BBX 6 7 0 -2
BITMAP
CC
48
FC
30
30
30
60
ENDCHAR
STARTCHAR 0250
ENCODING 592
SWIDTH 640 0
DWIDTH 6 0
BBX 5 5 1 0
BITMAP
F0
98
F0
80
F0
ENDCHAR
STARTCHAR 0251
ENCODING 593
SWIDTH 640 0
DWIDTH 6 0
BBX 6 5 0 0
BITMAP
7C
4C
CC
4C
7C
ENDCHAR
STARTCHAR 0252
ENCODING 594
SWIDTH 640 0
DWIDTH 6 0
BBX 5 5 1 0
BITMAP
F0
D8
98
D8
F0
ENDCHAR
STARTCHAR 0253
ENCODING 595
SWIDTH 640 0
DWIDTH 6 0
BBX 5 8 1 0
BITMAP
E0
80
80
F0
D8
98
D8
F0
ENDCHAR
STARTCHAR 0254
ENCODING 596
SWIDTH 533 0
DWIDTH 5 0
BBX 5 5 0 0
BITMAP
F0
18
18
18
F0
ENDCHAR
STARTCHAR 0255
ENCODING 597
SWIDTH 533 0
DWIDTH 5 0
BBX 5 6 0 -1
BITMAP
78
40
F8
E8
70
20
ENDCHAR
STARTCHAR 0256
ENCODING 598
SWIDTH 640 0
DWIDTH 6 0
BBX 7 10 0 -2
BITMAP
0C
0C
0C
7C
4C
CC
4C
7C
0C
0E
ENDCHAR
STARTCHAR 0257
ENCODING 599
SWIDTH 746 0
DWIDTH 7 0
BBX 7 8 0 0
BITMAP
06
0C
0C
7C
4C
CC
4C
7C
ENDCHAR
STARTCHAR 0258
ENCODING 600
SWIDTH 640 0
DWIDTH 6 0
BBX 6 5 0 0
BITMAP
78
48
FC
0C
78
ENDCHAR
STARTCHAR 0259
ENCODING 601
SWIDTH 640 0
DWIDTH 6 0
BBX 6 5 0 0
BITMAP
78
0C
FC
4C
78
ENDCHAR
STARTCHAR 025A
ENCODING 602
SWIDTH 853 0
DWIDTH 8 0
BBX 7 5 1 0
BITMAP
F4
1C
7E
D8
F0
ENDCHAR
STARTCHAR 025B
ENCODING 603
SWIDTH 533 0
DWIDTH 5 0
BBX 4 5 0 0
BITMAP
70
40
70
C0
70
ENDCHAR
STARTCHAR 025C
ENCODING 604
SWIDTH 533 0
DWIDTH 5 0
BBX 4 5 0 0
BITMAP
70
10
70
10
F0
ENDCHAR
STARTCHAR 025D
ENCODING 605
SWIDTH 746 0
DWIDTH 7 0
BBX 7 5 0 0
BITMAP
74
1C
76
10
F0
ENDCHAR
STARTCHAR 025E
ENCODING 606
SWIDTH 746 0
DWIDTH 7 0
BBX 6 5 0 0
BITMAP
7C
4C
D8
44
7C
ENDCHAR
STARTCHAR 025F
ENCODING 607
SWIDTH 320 0
DWIDTH 3 0
BBX 3 7 0 -2
BITMAP
40
40
E0
40
40
40
C0
ENDCHAR
STARTCHAR 0260
ENCODING 608
SWIDTH 746 0
DWIDTH 7 0
BBX 7 10 0 -2
BITMAP
06
0C
0C
7C
4C
CC
4C
7C
0C
78
ENDCHAR
STARTCHAR 0261
ENCODING 609
SWIDTH 640 0
DWIDTH 6 0
BBX 6 7 0 -2
BITMAP
7C
4C
CC
4C
7C
0C
78
ENDCHAR
STARTCHAR 0262
ENCODING 610
SWIDTH 640 0
DWIDTH 6 0
BBX 5 5 0 0
BITMAP
78
40
D8
48
78
ENDCHAR
STARTCHAR 0263
ENCODING 611
SWIDTH 640 0
DWIDTH 6 0
BBX 5 7 0 -2
BITMAP
C8
78
30
30
70
78
30
ENDCHAR
STARTCHAR 0264
ENCODING 612
SWIDTH 640 0
DWIDTH 6 0
BBX 4 5 1 0
BITMAP
90
E0
60
F0
E0
ENDCHAR
STARTCHAR 0265
ENCODING 613
SWIDTH 640 0
DWIDTH 6 0
BBX 5 7 1 -2
BITMAP
98
98
98
98
F8
18
18
ENDCHAR
STARTCHAR 0266
ENCODING 614
SWIDTH 640 0
DWIDTH 6 0
BBX 5 7 1 0
BITMAP
E0
80
B0
D8
98
98
98
ENDCHAR
STARTCHAR 0267
ENCODING 615
SWIDTH 640 0
DWIDTH 6 0
BBX 5 9 1 -2
BITMAP
E0
80
B0
D8
98
98
98
18
30
ENDCHAR
STARTCHAR 0268
ENCODING 616
SWIDTH 533 0
DWIDTH 5 0
BBX 3 8 1 0
BITMAP
40
40
00
40
40
E0
40
40
ENDCHAR
STARTCHAR 0269
ENCODING 617
SWIDTH 426 0
DWIDTH 4 0
BBX 2 5 1 0
BITMAP
80
80
80
80
C0
ENDCHAR
STARTCHAR 026A
ENCODING 618
SWIDTH 533 0
DWIDTH 5 0
BBX 3 5 1 0
BITMAP
E0
40
40
40
E0
ENDCHAR
STARTCHAR 026B
ENCODING 619
SWIDTH 533 0
DWIDTH 5 0
BBX 3 7 1 0
BITMAP
40
40
40
E0
40
40
40
ENDCHAR
STARTCHAR 026C
ENCODING 620
SWIDTH 640 0
DWIDTH 6 0
BBX 4 7 1 0
BITMAP
30
30
F0
F0
30
30
30
ENDCHAR
STARTCHAR 026D
ENCODING 621
SWIDTH 320 0
DWIDTH 3 0
BBX 3 9 1 -2
BITMAP
80
80
80
80
80
80
80
80
E0
ENDCHAR
STARTCHAR 026E
ENCODING 622
SWIDTH 853 0
DWIDTH 8 0
BBX 6 9 1 -2
BITMAP
80
80
FC
88
90
B8
8C
4C
78
ENDCHAR
STARTCHAR 026F
ENCODING 623
SWIDTH 960 0
DWIDTH 9 0
BBX 8 5 1 0
BITMAP
93
93
93
9B
FF
ENDCHAR
STARTCHAR 0270
ENCODING 624
SWIDTH 960 0
DWIDTH 9 0
BBX 8 7 1 -2
BITMAP
93
93
93
9B
FF
03
03
ENDCHAR
STARTCHAR 0271
ENCODING 625
SWIDTH 960 0
DWIDTH 9 0
BBX 8 7 1 -2
BITMAP
B6
DB
9B
9B
9B
03
06
ENDCHAR
STARTCHAR 0272
ENCODING 626
SWIDTH 640 0
DWIDTH 6 0
BBX 6 7 0 -2
BITMAP
78
6C
4C
4C
4C
40
C0
ENDCHAR
STARTCHAR 0273
ENCODING 627
SWIDTH 746 0
DWIDTH 7 0
BBX 6 7 1 -2
BITMAP
B0
D8
98
98
98
18
0C
ENDCHAR
STARTCHAR 0274
ENCODING 628
SWIDTH 640 0
DWIDTH 6 0
BBX 5 5 1 0
BITMAP
D8
D8
B8
B8
B8
ENDCHAR
STARTCHAR 0275
ENCODING 629
SWIDTH 640 0
DWIDTH 6 0
BBX 6 5 0 0
BITMAP
78
4C
FC
4C
78
ENDCHAR
STARTCHAR 0276
ENCODING 630
SWIDTH 853 0
DWIDTH 8 0
BBX 7 5 0 0
BITMAP
7E
4C
CE
4C
7E
ENDCHAR
STARTCHAR 0277
ENCODING 631
SWIDTH 640 0
DWIDTH 6 0
BBX 6 5 0 0
BITMAP
78
4C
DC
DC
78
ENDCHAR
STARTCHAR 0278
ENCODING 632
SWIDTH 746 0
DWIDTH 7 0
BBX 6 9 1 -2
BITMAP
20
20
F8
A8
AC
A8
F8
20
20
ENDCHAR
STARTCHAR 0279
ENCODING 633
SWIDTH 533 0
DWIDTH 5 0
BBX 3 5 1 0
BITMAP
20
20
20
60
E0
ENDCHAR
STARTCHAR 027A
ENCODING 634
SWIDTH 533 0
DWIDTH 5 0
BBX 3 7 1 0
BITMAP
20
20
20
20
20
60
E0
ENDCHAR
STARTCHAR 027B
ENCODING 635
SWIDTH 640 0
DWIDTH 6 0
BBX 5 7 1 -2
BITMAP
20
20
20
60
E0
20
38
ENDCHAR
STARTCHAR 027C
ENCODING 636
SWIDTH 426 0
DWIDTH 4 0
BBX 3 7 1 -2
BITMAP
A0
C0
80
80
80
80
80
ENDCHAR
STARTCHAR 027D
ENCODING 637
SWIDTH 426 0
DWIDTH 4 0
BBX 3 7 1 -2
BITMAP
E0
C0
80
80
80
80
E0
ENDCHAR
STARTCHAR 027E
ENCODING 638
SWIDTH 533 0
DWIDTH 5 0
BBX 4 5 1 0
BITMAP
70
40
40
40
E0
ENDCHAR
STARTCHAR 027F
ENCODING 639
SWIDTH 533 0
DWIDTH 5 0
BBX 4 5 1 0
BITMAP
C0
60
60
60
F0
ENDCHAR
STARTCHAR 0280
ENCODING 640
SWIDTH 640 0
DWIDTH 6 0
BBX 5 5 0 0
BITMAP
F0
D8
F0
D8
D8
ENDCHAR
STARTCHAR 0281
ENCODING 641
SWIDTH 640 0
DWIDTH 6 0
BBX 5 5 0 0
BITMAP
D8
D8
F0
D8
F0
ENDCHAR
STARTCHAR 0282
ENCODING 642
SWIDTH 533 0
DWIDTH 5 0
BBX 5 7 0 -2
BITMAP
78
C0
78
18
78
40
70
ENDCHAR
STARTCHAR 0283
ENCODING 643
SWIDTH 426 0
DWIDTH 4 0
BBX 4 10 0 -2
BITMAP
70
40
40
40
40
40
40
40
40
C0
ENDCHAR
STARTCHAR 0284
ENCODING 644
SWIDTH 426 0
DWIDTH 4 0
BBX 4 9 0 -2
BITMAP
70
60
E0
60
E0
60
60
40
C0
ENDCHAR
STARTCHAR 0285
ENCODING 645
SWIDTH 533 0
DWIDTH 5 0
BBX 4 7 1 -2
BITMAP
C0
60
60
60
60
60
30
ENDCHAR
STARTCHAR 0286
ENCODING 646
SWIDTH 533 0
DWIDTH 5 0
BBX 5 9 0 -2
BITMAP
18
30
30
30
30
30
F0
B0
E0
ENDCHAR
STARTCHAR 0287
ENCODING 647
SWIDTH 426 0
DWIDTH 4 0
BBX 4 6 0 -1
BITMAP
E0
20
20
20
F0
20
ENDCHAR
STARTCHAR 0288
ENCODING 648
SWIDTH 426 0
DWIDTH 4 0
BBX 4 8 0 -2
BITMAP
40
F0
40
40
40
40
60
70
ENDCHAR
STARTCHAR 0289
ENCODING 649
SWIDTH 853 0
DWIDTH 8 0
BBX 7 5 1 0
BITMAP
4C
4C
FE
4C
7C
ENDCHAR
STARTCHAR 028A
ENCODING 650
SWIDTH 746 0
DWIDTH 7 0
BBX 5 5 1 0
BITMAP
D8
D8
88
D8
70
ENDCHAR
STARTCHAR 028B
ENCODING 651
SWIDTH 640 0
DWIDTH 6 0
BBX 5 5 1 0
BITMAP
B0
90
98
90
F0
ENDCHAR
STARTCHAR 028C
ENCODING 652
SWIDTH 640 0
DWIDTH 6 0
BBX 6 5 0 0
BITMAP
30
70
78
48
CC
ENDCHAR
STARTCHAR 028D
ENCODING 653
SWIDTH 853 0
DWIDTH 8 0
BBX 8 5 0 0
BITMAP
66
76
5A
5B
DB
ENDCHAR
STARTCHAR 028E
ENCODING 654
SWIDTH 640 0
DWIDTH 6 0
BBX 5 7 0 0
BITMAP
18
30
30
70
78
48
C8
ENDCHAR
STARTCHAR 028F
ENCODING 655
SWIDTH 746 0
DWIDTH 7 0
BBX 5 5 1 0
BITMAP
D8
70
60
20
20
ENDCHAR
STARTCHAR 0290
ENCODING 656
SWIDTH 640 0
DWIDTH 6 0
BBX 6 7 0 -2
BITMAP
78
10
30
60
F8
18
0C
ENDCHAR
STARTCHAR 0291
ENCODING 657
SWIDTH 640 0
DWIDTH 6 0
BBX 6 6 0 -1
BITMAP
78
10
30
7C
F8
10
ENDCHAR
STARTCHAR 0292
ENCODING 658
SWIDTH 640 0
DWIDTH 6 0
BBX 5 7 0 -2
BITMAP
78
10
30
78
08
98
F0
ENDCHAR
STARTCHAR 0293
ENCODING 659
SWIDTH 640 0
DWIDTH 6 0
BBX 4 7 1 -2
BITMAP
F0
20
60
F0
D0
B0
F0
ENDCHAR
STARTCHAR 0294
ENCODING 660
SWIDTH 533 0
DWIDTH 5 0
BBX 5 7 0 0
BITMAP
E0
B0
18
18
70
60
60
ENDCHAR
STARTCHAR 0295
ENCODING 661
SWIDTH 533 0
DWIDTH 5 0
BBX 5 7 0 0
BITMAP
38
68
C0
C0
70
30
30
ENDCHAR
STARTCHAR 0296
ENCODING 662
SWIDTH 533 0
DWIDTH 5 0
BBX 5 7 0 0
BITMAP
60
60
60
30
18
98
F0
ENDCHAR
STARTCHAR 0297
ENCODING 663
SWIDTH 533 0
DWIDTH 5 0
BBX 5 9 0 -2
BITMAP
38
68
C0
C0
C0
C0
C0
68
38
ENDCHAR
STARTCHAR 0298
ENCODING 664
SWIDTH 853 0
DWIDTH 8 0
BBX 7 7 0 0
BITMAP
18
7E
46
D6
46
66
3C
ENDCHAR
STARTCHAR 0299
ENCODING 665
SWIDTH 640 0
DWIDTH 6 0
BBX 4 5 1 0
BITMAP
F0
90
F0
90
F0
ENDCHAR
STARTCHAR 029A
ENCODING 666
SWIDTH 746 0
DWIDTH 7 0
BBX 6 5 0 0
BITMAP
78
4C
7C
CC
78
ENDCHAR
STARTCHAR 029B
ENCODING 667
SWIDTH 640 0
DWIDTH 6 0
BBX 6 7 0 0
BITMAP
0C
18
78
40
D8
48
78
ENDCHAR
STARTCHAR 029C
ENCODING 668
SWIDTH 640 0
DWIDTH 6 0
BBX 4 5 1 0
BITMAP
90
90
F0
90
90
ENDCHAR
STARTCHAR 029D
ENCODING 669
SWIDTH 320 0
DWIDTH 3 0
BBX 5 9 -2 -2
BITMAP
10
00
10
10
10
10
78
90
70
ENDCHAR
STARTCHAR 029E
ENCODING 670
SWIDTH 746 0
DWIDTH 7 0
BBX 5 7 1 -2
BITMAP
C8
68
38
28
C8
08
08
ENDCHAR
STARTCHAR 029F
ENCODING 671
SWIDTH 533 0
DWIDTH 5 0
BBX 3 5 1 0
BITMAP
80
80
80
80
E0
ENDCHAR
STARTCHAR 02A0
ENCODING 672
SWIDTH 746 0
DWIDTH 7 0
BBX 7 9 0 -2
BITMAP
06
0C
7C
4C
CC
4C
7C
0C
0C
ENDCHAR
STARTCHAR 02A1
ENCODING 673
SWIDTH 533 0
DWIDTH 5 0
BBX 5 7 0 0
BITMAP
E0
B0
18
18
70
F0
60
ENDCHAR
STARTCHAR 02A2
ENCODING 674
SWIDTH 533 0
DWIDTH 5 0
BBX 5 7 0 0
BITMAP
38
68
C0
C0
70
78
30
ENDCHAR
STARTCHAR 02A3
ENCODING 675
SWIDTH 1066 0
DWIDTH 10 0
BBX 10 7 0 0
BITMAP
0C00
0C00
7FC0
4CC0
CD80
4F00
7FC0
ENDCHAR
STARTCHAR 02A4
ENCODING 676
SWIDTH 1173 0
DWIDTH 11 0
BBX 10 9 0 -2
BITMAP
0C00
0C00
7FC0
4CC0
CD80
4DC0
7C40
0040
03C0
ENDCHAR
STARTCHAR 02A5
ENCODING 677
SWIDTH 1066 0
DWIDTH 10 0
BBX 10 7 0 -1
BITMAP
0C00
0C00
7FC0
4CC0
CDC0
4FC0
7FC0
ENDCHAR
STARTCHAR 02A6
ENCODING 678
SWIDTH 960 0
DWIDTH 9 0
BBX 8 6 0 0
BITMAP
40
FF
48
4F
41
7F
ENDCHAR
STARTCHAR 02A7
ENCODING 679
SWIDTH 746 0
DWIDTH 7 0
BBX 7 9 0 -2
BITMAP
0E
4C
FC
4C
4C
4C
7C
08
18
ENDCHAR
STARTCHAR 02A8
ENCODING 680
SWIDTH 853 0
DWIDTH 8 0
BBX 8 7 0 -1
BITMAP
40
F7
4C
48
4F
7F
04
ENDCHAR
STARTCHAR 02A9
ENCODING 681
SWIDTH 960 0
DWIDTH 9 0
BBX 9 9 0 -2
BITMAP
7000
6000
FB00
6D80
6980
6980
6980
0180
0300
ENDCHAR
STARTCHAR 02AA
ENCODING 682
SWIDTH 853 0
DWIDTH 8 0
BBX 6 7 1 0
BITMAP
80
80
BC
A0
BC
84
FC
ENDCHAR
STARTCHAR 02AB
ENCODING 683
SWIDTH 746 0
DWIDTH 7 0
BBX 6 7 1 0
BITMAP
80
80
FC
98
90
A0
FC
ENDCHAR
STARTCHAR 02AC
ENCODING 684
SWIDTH 533 0
DWIDTH 5 0
BBX 5 6 0 0
BITMAP
A8
68
50
A8
68
50
ENDCHAR
STARTCHAR 02AD
ENCODING 685
SWIDTH 426 0
DWIDTH 4 0
BBX 3 5 0 1
BITMAP
E0
A0
00
E0
A0
ENDCHAR
STARTCHAR 02AE
ENCODING 686
SWIDTH 640 0
DWIDTH 6 0
BBX 7 9 -1 -2
BITMAP
E0
20
26
26
26
26
3E
06
06
ENDCHAR
STARTCHAR 02AF
ENCODING 687
SWIDTH 746 0
DWIDTH 7 0
BBX 8 9 -1 -2
BITMAP
E0
20
26
26
26
26
3E
06
03
ENDCHAR
STARTCHAR 02B0
ENCODING 688
SWIDTH 426 0
DWIDTH 4 0
BBX 4 4 0 3
BITMAP
80
A0
D0
90
ENDCHAR
STARTCHAR 02B1
ENCODING 689
SWIDTH 426 0
DWIDTH 4 0
BBX 4 4 0 3
BITMAP
40
E0
D0
90
ENDCHAR
STARTCHAR 02B2
ENCODING 690
SWIDTH 213 0
DWIDTH 2 0
BBX 1 5 0 2
BITMAP
80
80
80
80
80
ENDCHAR
STARTCHAR 02B3
ENCODING 691
SWIDTH 320 0
DWIDTH 3 0
BBX 3 3 0 3
BITMAP
A0
C0
80
ENDCHAR
STARTCHAR 02B4
ENCODING 692
SWIDTH 320 0
DWIDTH 3 0
BBX 3 3 0 3
BITMAP
20
20
E0
ENDCHAR
STARTCHAR 02B5
ENCODING 693
SWIDTH 320 0
DWIDTH 3 0
BBX 3 4 0 2
BITMAP
20
20
E0
20
ENDCHAR
STARTCHAR 02B6
ENCODING 694
SWIDTH 426 0
DWIDTH 4 0
BBX 3 3 0 3
BITMAP
A0
C0
E0
ENDCHAR
STARTCHAR 02B7
ENCODING 695
SWIDTH 533 0
DWIDTH 5 0
BBX 5 3 0 3
BITMAP
A8
68
50
ENDCHAR
STARTCHAR 02B8
ENCODING 696
SWIDTH 426 0
DWIDTH 4 0
BBX 4 4 0 2
BITMAP
90
60
60
40
ENDCHAR
STARTCHAR 02B9
ENCODING 697
SWIDTH 320 0
DWIDTH 3 0
BBX 1 2 1 5
BITMAP
80
80
ENDCHAR
STARTCHAR 02BA
ENCODING 698
SWIDTH 533 0
DWIDTH 5 0
BBX 3 2 1 5
BITMAP
A0
A0
ENDCHAR
STARTCHAR 02BB
ENCODING 699
SWIDTH 320 0
DWIDTH 3 0
BBX 2 3 1 4
BITMAP
40
80
80
ENDCHAR
STARTCHAR 02BC
ENCODING 700
SWIDTH 320 0
DWIDTH 3 0
BBX 2 3 1 4
BITMAP
C0
80
80
ENDCHAR
STARTCHAR 02BD
ENCODING 701
SWIDTH 320 0
DWIDTH 3 0
BBX 1 2 1 6
BITMAP
80
80
ENDCHAR
STARTCHAR 02BE
ENCODING 702
SWIDTH 320 0
DWIDTH 3 0
BBX 1 3 1 4
BITMAP
80
80
80
ENDCHAR
STARTCHAR 02BF
ENCODING 703
SWIDTH 320 0
DWIDTH 3 0
BBX 1 2 1 4
BITMAP
80
80
ENDCHAR
STARTCHAR 02C0
ENCODING 704
SWIDTH 320 0
DWIDTH 3 0
BBX 3 4 0 3
BITMAP
C0
20
60
40
ENDCHAR
STARTCHAR 02C1
ENCODING 705
SWIDTH 320 0
DWIDTH 3 0
BBX 3 4 0 3
BITMAP
60
80
40
40
ENDCHAR
STARTCHAR 02C2
ENCODING 706
SWIDTH 533 0
DWIDTH 5 0
BBX 2 2 1 6
BITMAP
C0
40
ENDCHAR
STARTCHAR 02C3
ENCODING 707
SWIDTH 533 0
DWIDTH 5 0
BBX 2 2 1 6
BITMAP
40
C0
ENDCHAR
STARTCHAR 02C4
ENCODING 708
SWIDTH 533 0
DWIDTH 5 0
BBX 2 2 1 5
BITMAP
40
80
ENDCHAR
STARTCHAR 02C5
ENCODING 709
SWIDTH 533 0
DWIDTH 5 0
BBX 2 2 1 5
BITMAP
C0
40
ENDCHAR
STARTCHAR 02C6
ENCODING 710
SWIDTH 533 0
DWIDTH 5 0
BBX 3 2 1 5
BITMAP
C0
A0
ENDCHAR
STARTCHAR 02C7
ENCODING 711
SWIDTH 533 0
DWIDTH 5 0
BBX 3 2 1 5
BITMAP
A0
C0
ENDCHAR
STARTCHAR 02C8
ENCODING 712
SWIDTH 320 0
DWIDTH 3 0
BBX 1 3 1 4
BITMAP
80
80
80
ENDCHAR
STARTCHAR 02C9
ENCODING 713
SWIDTH 533 0
DWIDTH 5 0
BBX 3 1 1 6
BITMAP
E0
ENDCHAR
STARTCHAR 02CA
ENCODING 714
SWIDTH 533 0
DWIDTH 5 0
BBX 2 1 2 6
BITMAP
C0
ENDCHAR
STARTCHAR 02CB
ENCODING 715
SWIDTH 533 0
DWIDTH 5 0
BBX 1 1 1 6
BITMAP
80
ENDCHAR
STARTCHAR 02CC
ENCODING 716
SWIDTH 320 0
DWIDTH 3 0
BBX 1 3 1 -1
BITMAP
80
80
80
ENDCHAR
STARTCHAR 02CD
ENCODING 717
SWIDTH 533 0
DWIDTH 5 0
BBX 3 1 1 -2
BITMAP
E0
ENDCHAR
STARTCHAR 02CE
ENCODING 718
SWIDTH 533 0
DWIDTH 5 0
BBX 2 2 0 -2
BITMAP
C0
40
ENDCHAR
STARTCHAR 02CF
ENCODING 719
SWIDTH 533 0
DWIDTH 5 0
BBX 2 2 2 -2
BITMAP
40
80
ENDCHAR
STARTCHAR 02D0
ENCODING 720
SWIDTH 320 0
DWIDTH 3 0
BBX 1 5 1 0
BITMAP
80
00
00
00
80
ENDCHAR
STARTCHAR 02D1
ENCODING 721
SWIDTH 320 0
DWIDTH 3 0
BBX 1 1 1 3
BITMAP
80
ENDCHAR
STARTCHAR 02D2
ENCODING 722
SWIDTH 320 0
DWIDTH 3 0
BBX 1 3 1 2
BITMAP
80
80
80
ENDCHAR
STARTCHAR 02D3
ENCODING 723
SWIDTH 320 0
DWIDTH 3 0
BBX 1 2 1 2
BITMAP
80
80
ENDCHAR
STARTCHAR 02D4
ENCODING 724
SWIDTH 533 0
DWIDTH 5 0
BBX 2 2 1 2
BITMAP
40
C0
ENDCHAR
STARTCHAR 02D5
ENCODING 725
SWIDTH 533 0
DWIDTH 5 0
BBX 2 2 1 2
BITMAP
C0
40
ENDCHAR
STARTCHAR 02D6
ENCODING 726
SWIDTH 426 0
DWIDTH 4 0
BBX 3 3 0 1
BITMAP
40
E0
40
ENDCHAR
STARTCHAR 02D7
ENCODING 727
SWIDTH 320 0
DWIDTH 3 0
BBX 2 1 0 2
BITMAP
C0
ENDCHAR
STARTCHAR 02D8
ENCODING 728
SWIDTH 533 0
DWIDTH 5 0
BBX 3 1 1 6
BITMAP
E0
ENDCHAR
STARTCHAR 02D9
ENCODING 729
SWIDTH 533 0
DWIDTH 5 0
BBX 1 1 2 6
BITMAP
80
ENDCHAR
STARTCHAR 02DA
ENCODING 730
SWIDTH 533 0
DWIDTH 5 0
BBX 3 3 1 5
BITMAP
C0
A0
C0
ENDCHAR
STARTCHAR 02DB
ENCODING 731
SWIDTH 533 0
DWIDTH 5 0
BBX 2 2 1 -2
BITMAP
80
40
ENDCHAR
STARTCHAR 02DC
ENCODING 732
SWIDTH 533 0
DWIDTH 5 0
BBX 3 2 1 5
BITMAP
A0
60
ENDCHAR
STARTCHAR 02DD
ENCODING 733
SWIDTH 533 0
DWIDTH 5 0
BBX 3 2 1 6
BITMAP
A0
C0
ENDCHAR
STARTCHAR 02DE
ENCODING 734
SWIDTH 320 0
DWIDTH 3 0
BBX 3 3 0 2
BITMAP
40
C0
20
ENDCHAR
STARTCHAR 02DF
ENCODING 735
SWIDTH 533 0
DWIDTH 5 0
BBX 2 1 1 6
BITMAP
C0
ENDCHAR
STARTCHAR 02E0
ENCODING 736
SWIDTH 426 0
DWIDTH 4 0
BBX 3 4 0 2
BITMAP
A0
60
60
60
ENDCHAR
STARTCHAR 02E1
ENCODING 737
SWIDTH 213 0
DWIDTH 2 0
BBX 1 4 0 3
BITMAP
80
80
80
80
ENDCHAR
STARTCHAR 02E2
ENCODING 738
SWIDTH 320 0
DWIDTH 3 0
BBX 3 3 0 3
BITMAP
60
E0
E0
ENDCHAR
STARTCHAR 02E3
ENCODING 739
SWIDTH 426 0
DWIDTH 4 0
BBX 3 3 0 3
BITMAP
A0
60
60
ENDCHAR
STARTCHAR 02E4
ENCODING 740
SWIDTH 320 0
DWIDTH 3 0
BBX 3 4 0 3
BITMAP
60
80
40
40
ENDCHAR
STARTCHAR 02E5
ENCODING 741
SWIDTH 533 0
DWIDTH 5 0
BBX 3 6 1 0
BITMAP
E0
20
20
20
20
20
ENDCHAR
STARTCHAR 02E6
ENCODING 742
SWIDTH 533 0
DWIDTH 5 0
BBX 3 6 1 0
BITMAP
20
E0
20
20
20
20
ENDCHAR
STARTCHAR 02E7
ENCODING 743
SWIDTH 533 0
DWIDTH 5 0
BBX 3 6 1 0
BITMAP
20
20
20
E0
20
20
ENDCHAR
STARTCHAR 02E8
ENCODING 744
SWIDTH 533 0
DWIDTH 5 0
BBX 3 6 1 0
BITMAP
20
20
20
20
E0
20
ENDCHAR
STARTCHAR 02E9
ENCODING 745
SWIDTH 533 0
DWIDTH 5 0
BBX 3 6 1 0
BITMAP
20
20
20
20
20
E0
ENDCHAR
STARTCHAR 02EC
ENCODING 748
SWIDTH 533 0
DWIDTH 5 0
BBX 2 2 1 -2
BITMAP
C0
40
ENDCHAR
STARTCHAR 02ED
ENCODING 749
SWIDTH 533 0
DWIDTH 5 0
BBX 3 3 1 5
BITMAP
E0
00
E0
ENDCHAR
STARTCHAR 02EE
ENCODING 750
SWIDTH 640 0
DWIDTH 6 0
BBX 4 3 1 4
BITMAP
F0
F0
A0
ENDCHAR
STARTCHAR 02F3
ENCODING 755
SWIDTH 533 0
DWIDTH 5 0
BBX 3 3 1 -3
BITMAP
C0
A0
C0
ENDCHAR
STARTCHAR 02F7
ENCODING 759
SWIDTH 533 0
DWIDTH 5 0
BBX 3 1 1 -2
BITMAP
E0
ENDCHAR
STARTCHAR 0300
ENCODING 768
SWIDTH 0 0
DWIDTH 0 0
BBX 2 2 -4 5
BITMAP
80
40
ENDCHAR
STARTCHAR 0301
ENCODING 769
SWIDTH 0 0
DWIDTH 0 0
BBX 2 2 -3 5
BITMAP
40
80
ENDCHAR
STARTCHAR 0302
ENCODING 770
SWIDTH 0 0
DWIDTH 0 0
BBX 3 2 -4 5
BITMAP
60
A0
ENDCHAR
STARTCHAR 0303
ENCODING 771
SWIDTH 0 0
DWIDTH 0 0
BBX 3 2 -4 5
BITMAP
C0
A0
ENDCHAR
STARTCHAR 0304
ENCODING 772
SWIDTH 0 0
DWIDTH 0 0
BBX 3 1 -4 6
BITMAP
E0
ENDCHAR
STARTCHAR 0305
ENCODING 773
SWIDTH 0 0
DWIDTH 0 0
BBX 5 1 -5 6
BITMAP
F8
ENDCHAR
STARTCHAR 0306
ENCODING 774
SWIDTH 0 0
DWIDTH 0 0
BBX 3 1 -4 6
BITMAP
E0
ENDCHAR
STARTCHAR 0307
ENCODING 775
SWIDTH 0 0
DWIDTH 0 0
BBX 2 2 -3 6
BITMAP
C0
C0
ENDCHAR
STARTCHAR 0308
ENCODING 776
SWIDTH 0 0
DWIDTH 0 0
BBX 3 1 -4 6
BITMAP
A0
ENDCHAR
STARTCHAR 0309
ENCODING 777
SWIDTH 0 0
DWIDTH 0 0
BBX 2 2 -3 6
BITMAP
80
40
ENDCHAR
STARTCHAR 030A
ENCODING 778
SWIDTH 0 0
DWIDTH 0 0
BBX 3 3 -4 5
BITMAP
60
A0
60
ENDCHAR
STARTCHAR 030B
ENCODING 779
SWIDTH 0 0
DWIDTH 0 0
BBX 4 2 -4 6
BITMAP
50
A0
ENDCHAR
STARTCHAR 030C
ENCODING 780
SWIDTH 0 0
DWIDTH 0 0
BBX 3 2 -4 5
BITMAP
A0
60
ENDCHAR
STARTCHAR 030D
ENCODING 781
SWIDTH 0 0
DWIDTH 0 0
BBX 1 1 -3 6
BITMAP
80
ENDCHAR
STARTCHAR 030E
ENCODING 782
SWIDTH 0 0
DWIDTH 0 0
BBX 3 1 -4 6
BITMAP
A0
ENDCHAR
STARTCHAR 030F
ENCODING 783
SWIDTH 0 0
DWIDTH 0 0
BBX 3 1 -4 6
BITMAP
A0
ENDCHAR
STARTCHAR 0310
ENCODING 784
SWIDTH 0 0
DWIDTH 0 0
BBX 3 2 -4 6
BITMAP
40
E0
ENDCHAR
STARTCHAR 0311
ENCODING 785
SWIDTH 0 0
DWIDTH 0 0
BBX 2 1 -3 6
BITMAP
C0
ENDCHAR
STARTCHAR 0312
ENCODING 786
SWIDTH 0 0
DWIDTH 0 0
BBX 1 1 -2 4
BITMAP
80
ENDCHAR
STARTCHAR 0313
ENCODING 787
SWIDTH 0 0
DWIDTH 0 0
BBX 1 2 -2 5
BITMAP
80
80
ENDCHAR
STARTCHAR 0314
ENCODING 788
SWIDTH 0 0
DWIDTH 0 0
BBX 1 3 -2 5
BITMAP
80
80
80
ENDCHAR
STARTCHAR 0315
ENCODING 789
SWIDTH 0 0
DWIDTH 0 0
BBX 1 1 -1 6
BITMAP
80
ENDCHAR
STARTCHAR 0316
ENCODING 790
SWIDTH 0 0
DWIDTH 0 0
BBX 2 2 -4 -3
BITMAP
80
40
ENDCHAR
STARTCHAR 0317
ENCODING 791
SWIDTH 0 0
DWIDTH 0 0
BBX 2 2 -3 -3
BITMAP
40
80
ENDCHAR
STARTCHAR 0318
ENCODING 792
SWIDTH 0 0
DWIDTH 0 0
BBX 1 2 -3 -2
BITMAP
80
80
ENDCHAR
STARTCHAR 0319
ENCODING 793
SWIDTH 0 0
DWIDTH 0 0
BBX 1 2 -3 -2
BITMAP
80
80
ENDCHAR
STARTCHAR 031A
ENCODING 794
SWIDTH 0 0
DWIDTH 0 0
BBX 2 2 -2 6
BITMAP
C0
40
ENDCHAR
STARTCHAR 031B
ENCODING 795
SWIDTH 0 0
DWIDTH 0 0
BBX 2 1 -2 4
BITMAP
C0
ENDCHAR
STARTCHAR 031C
ENCODING 796
SWIDTH 0 0
DWIDTH 0 0
BBX 1 2 -3 -2
BITMAP
80
80
ENDCHAR
STARTCHAR 031D
ENCODING 797
SWIDTH 0 0
DWIDTH 0 0
BBX 2 1 -3 -2
BITMAP
C0
ENDCHAR
STARTCHAR 031E
ENCODING 798
SWIDTH 0 0
DWIDTH 0 0
BBX 1 1 -3 -2
BITMAP
80
ENDCHAR
STARTCHAR 031F
ENCODING 799
SWIDTH 0 0
DWIDTH 0 0
BBX 1 2 -3 -2
BITMAP
80
80
ENDCHAR
STARTCHAR 0320
ENCODING 800
SWIDTH 0 0
DWIDTH 0 0
BBX 3 1 -4 -2
BITMAP
E0
ENDCHAR
STARTCHAR 0321
ENCODING 801
SWIDTH 0 0
DWIDTH 0 0
BBX 3 3 -4 -2
BITMAP
20
20
E0
ENDCHAR
STARTCHAR 0322
ENCODING 802
SWIDTH 0 0
DWIDTH 0 0
BBX 3 3 -4 -2
BITMAP
C0
C0
60
ENDCHAR
STARTCHAR 0323
ENCODING 803
SWIDTH 0 0
DWIDTH 0 0
BBX 2 1 -3 -2
BITMAP
C0
ENDCHAR
STARTCHAR 0324
ENCODING 804
SWIDTH 0 0
DWIDTH 0 0
BBX 3 1 -4 -2
BITMAP
A0
ENDCHAR
STARTCHAR 0325
ENCODING 805
SWIDTH 0 0
DWIDTH 0 0
BBX 2 2 -3 -2
BITMAP
C0
C0
ENDCHAR
STARTCHAR 0326
ENCODING 806
SWIDTH 0 0
DWIDTH 0 0
BBX 1 1 -3 -2
BITMAP
80
ENDCHAR
STARTCHAR 0327
ENCODING 807
SWIDTH 0 0
DWIDTH 0 0
BBX 2 2 -3 -2
BITMAP
80
C0
ENDCHAR
STARTCHAR 0328
ENCODING 808
SWIDTH 0 0
DWIDTH 0 0
BBX 2 2 -3 -2
BITMAP
80
C0
ENDCHAR
STARTCHAR 0329
ENCODING 809
SWIDTH 0 0
DWIDTH 0 0
BBX 1 2 -3 -2
BITMAP
80
80
ENDCHAR
STARTCHAR 032A
ENCODING 810
SWIDTH 0 0
DWIDTH 0 0
BBX 3 2 -4 -2
BITMAP
E0
A0
ENDCHAR
STARTCHAR 032B
ENCODING 811
SWIDTH 0 0
DWIDTH 0 0
BBX 3 1 -4 -2
BITMAP
E0
ENDCHAR
STARTCHAR 032C
ENCODING 812
SWIDTH 0 0
DWIDTH 0 0
BBX 3 2 -4 -4
BITMAP
A0
60
ENDCHAR
STARTCHAR 032D
ENCODING 813
SWIDTH 0 0
DWIDTH 0 0
BBX 3 2 -4 -4
BITMAP
60
A0
ENDCHAR
STARTCHAR 032E
ENCODING 814
SWIDTH 0 0
DWIDTH 0 0
BBX 3 1 -4 -2
BITMAP
E0
ENDCHAR
STARTCHAR 032F
ENCODING 815
SWIDTH 0 0
DWIDTH 0 0
BBX 3 1 -4 -2
BITMAP
E0
ENDCHAR
STARTCHAR 0330
ENCODING 816
SWIDTH 0 0
DWIDTH 0 0
BBX 3 2 -4 -3
BITMAP
C0
A0
ENDCHAR
STARTCHAR 0331
ENCODING 817
SWIDTH 0 0
DWIDTH 0 0
BBX 3 1 -4 -2
BITMAP
E0
ENDCHAR
STARTCHAR 0332
ENCODING 818
SWIDTH 0 0
DWIDTH 0 0
BBX 5 1 -5 -2
BITMAP
F8
ENDCHAR
STARTCHAR 0333
ENCODING 819
SWIDTH 0 0
DWIDTH 0 0
BBX 5 2 -5 -2
BITMAP
F8
F8
ENDCHAR
STARTCHAR 0334
ENCODING 820
SWIDTH 0 0
DWIDTH 0 0
BBX 6 2 -6 2
BITMAP
64
9C
ENDCHAR
STARTCHAR 0335
ENCODING 821
SWIDTH 0 0
DWIDTH 0 0
BBX 3 1 -4 2
BITMAP
E0
ENDCHAR
STARTCHAR 0336
ENCODING 822
SWIDTH 0 0
DWIDTH 0 0
BBX 7 1 -8 2
BITMAP
FE
ENDCHAR
STARTCHAR 0337
ENCODING 823
SWIDTH 0 0
DWIDTH 0 0
BBX 5 5 -6 0
BITMAP
08
10
20
40
80
ENDCHAR
STARTCHAR 0338
ENCODING 824
SWIDTH 0 0
DWIDTH 0 0
BBX 7 7 -7 0
BITMAP
02
04
08
10
20
40
80
ENDCHAR
STARTCHAR 0339
ENCODING 825
SWIDTH 0 0
DWIDTH 0 0
BBX 1 2 -3 -2
BITMAP
80
80
ENDCHAR
STARTCHAR 033A
ENCODING 826
SWIDTH 0 0
DWIDTH 0 0
BBX 3 2 -4 -2
BITMAP
A0
E0
ENDCHAR
STARTCHAR 033B
ENCODING 827
SWIDTH 0 0
DWIDTH 0 0
BBX 2 2 -3 -2
BITMAP
C0
C0
ENDCHAR
STARTCHAR 033C
ENCODING 828
SWIDTH 0 0
DWIDTH 0 0
BBX 3 1 -4 -2
BITMAP
E0
ENDCHAR
STARTCHAR 033D
ENCODING 829
SWIDTH 0 0
DWIDTH 0 0
BBX 2 2 -3 6
BITMAP
80
40
ENDCHAR
STARTCHAR 033E
ENCODING 830
SWIDTH 0 0
DWIDTH 0 0
BBX 1 2 -2 5
BITMAP
80
80
ENDCHAR
STARTCHAR 033F
ENCODING 831
SWIDTH 0 0
DWIDTH 0 0
BBX 5 2 -5 5
BITMAP
F8
F8
ENDCHAR
STARTCHAR 0340
ENCODING 832
SWIDTH 0 0
DWIDTH 0 0
BBX 2 2 -4 5
BITMAP
80
40
ENDCHAR
STARTCHAR 0341
ENCODING 833
SWIDTH 0 0
DWIDTH 0 0
BBX 2 2 -3 5
BITMAP
40
80
ENDCHAR
STARTCHAR 0342
ENCODING 834
SWIDTH 0 0
DWIDTH 0 0
BBX 3 2 -4 5
BITMAP
C0
A0
ENDCHAR
STARTCHAR 0343
ENCODING 835
SWIDTH 0 0
DWIDTH 0 0
BBX 1 2 -2 5
BITMAP
80
80
ENDCHAR
STARTCHAR 0344
ENCODING 836
SWIDTH 0 0
DWIDTH 0 0
BBX 3 3 -4 6
BITMAP
20
40
A0
ENDCHAR
STARTCHAR 0345
ENCODING 837
SWIDTH 0 0
DWIDTH 0 0
BBX 1 2 -3 -2
BITMAP
80
80
ENDCHAR
STARTCHAR 0346
ENCODING 838
SWIDTH 0 0
DWIDTH 0 0
BBX 3 1 -4 6
BITMAP
E0
ENDCHAR
STARTCHAR 0347
ENCODING 839
SWIDTH 0 0
DWIDTH 0 0
BBX 2 2 -3 -2
BITMAP
C0
C0
ENDCHAR
STARTCHAR 0348
ENCODING 840
SWIDTH 0 0
DWIDTH 0 0
BBX 2 2 -3 -2
BITMAP
C0
C0
ENDCHAR
STARTCHAR 0349
ENCODING 841
SWIDTH 0 0
DWIDTH 0 0
BBX 2 2 -3 -2
BITMAP
C0
40
ENDCHAR
STARTCHAR 034A
ENCODING 842
SWIDTH 0 0
DWIDTH 0 0
BBX 3 1 -4 6
BITMAP
E0
ENDCHAR
STARTCHAR 034B
ENCODING 843
SWIDTH 0 0
DWIDTH 0 0
BBX 3 3 -4 5
BITMAP
20
C0
60
ENDCHAR
STARTCHAR 034C
ENCODING 844
SWIDTH 0 0
DWIDTH 0 0
BBX 3 3 -4 6
BITMAP
40
A0
E0
ENDCHAR
STARTCHAR 034D
ENCODING 845
SWIDTH 0 0
DWIDTH 0 0
BBX 3 2 -4 -2
BITMAP
A0
E0
ENDCHAR
STARTCHAR 034E
ENCODING 846
SWIDTH 0 0
DWIDTH 0 0
BBX 2 1 -3 -1
BITMAP
C0
ENDCHAR
STARTCHAR 034F
ENCODING 847
SWIDTH 0 0
DWIDTH 0 0
BBX 0 0 0 0
BITMAP
ENDCHAR
STARTCHAR 0351
ENCODING 849
SWIDTH 0 0
DWIDTH 0 0
BBX 1 2 -3 5
BITMAP
80
80
ENDCHAR
STARTCHAR 0352
ENCODING 850
SWIDTH 0 0
DWIDTH 0 0
BBX 2 2 -3 6
BITMAP
C0
80
ENDCHAR
STARTCHAR 0353
ENCODING 851
SWIDTH 0 0
DWIDTH 0 0
BBX 2 2 -3 -2
BITMAP
C0
C0
ENDCHAR
STARTCHAR 0357
ENCODING 855
SWIDTH 0 0
DWIDTH 0 0
BBX 1 2 -3 5
BITMAP
80
80
ENDCHAR
STARTCHAR 0358
ENCODING 856
SWIDTH 0 0
DWIDTH 0 0
BBX 1 1 -1 6
BITMAP
80
ENDCHAR
STARTCHAR 035A
ENCODING 858
SWIDTH 0 0
DWIDTH 0 0
BBX 3 2 -4 -2
BITMAP
E0
E0
ENDCHAR
STARTCHAR 035C
ENCODING 860
SWIDTH 0 0
DWIDTH 0 0
BBX 8 1 -4 -2
BITMAP
FF
ENDCHAR
STARTCHAR 035D
ENCODING 861
SWIDTH 0 0
DWIDTH 0 0
BBX 8 1 -4 7
BITMAP
FF
ENDCHAR
STARTCHAR 035E
ENCODING 862
SWIDTH 0 0
DWIDTH 0 0
BBX 8 1 -4 7
BITMAP
FF
ENDCHAR
STARTCHAR 035F
ENCODING 863
SWIDTH 0 0
DWIDTH 0 0
BBX 8 1 -4 -2
BITMAP
FF
ENDCHAR
STARTCHAR 0360
ENCODING 864
SWIDTH 0 0
DWIDTH 0 0
BBX 6 1 -3 7
BITMAP
FC
ENDCHAR
STARTCHAR 0361
ENCODING 865
SWIDTH 0 0
DWIDTH 0 0
BBX 8 1 -4 7
BITMAP
FF
ENDCHAR
STARTCHAR 0362
ENCODING 866
SWIDTH 0 0
DWIDTH 0 0
BBX 8 2 -4 -2
BITMAP
01
FF
ENDCHAR
STARTCHAR 0370
ENCODING 880
SWIDTH 640 0
DWIDTH 6 0
BBX 4 7 1 0
BITMAP
C0
C0
C0
F0
C0
C0
C0
ENDCHAR
STARTCHAR 0371
ENCODING 881
SWIDTH 533 0
DWIDTH 5 0
BBX 3 5 1 0
BITMAP
80
80
E0
80
80
ENDCHAR
STARTCHAR 0372
ENCODING 882
SWIDTH 960 0
DWIDTH 9 0
BBX 7 7 1 0
BITMAP
FE
FE
D2
D2
10
10
10
ENDCHAR
STARTCHAR 0373
ENCODING 883
SWIDTH 853 0
DWIDTH 8 0
BBX 6 7 1 0
BITMAP
FC
FC
BC
BC
30
30
30
ENDCHAR
STARTCHAR 0374
ENCODING 884
SWIDTH 320 0
DWIDTH 3 0
BBX 1 2 1 5
BITMAP
80
80
ENDCHAR
STARTCHAR 0375
ENCODING 885
SWIDTH 320 0
DWIDTH 3 0
BBX 1 2 1 -2
BITMAP
80
80
ENDCHAR
STARTCHAR 0376
ENCODING 886
SWIDTH 853 0
DWIDTH 8 0
BBX 6 7 1 0
BITMAP
8C
9C
BC
AC
EC
CC
CC
ENDCHAR
STARTCHAR 0377
ENCODING 887
SWIDTH 640 0
DWIDTH 6 0
BBX 5 5 1 0
BITMAP
98
B8
F8
D8
D8
ENDCHAR
STARTCHAR 037A
ENCODING 890
SWIDTH 533 0
DWIDTH 5 0
BBX 1 2 2 -2
BITMAP
80
80
ENDCHAR
STARTCHAR 037B
ENCODING 891
SWIDTH 533 0
DWIDTH 5 0
BBX 5 5 0 0
BITMAP
F0
18
18
18
F0
ENDCHAR
STARTCHAR 037C
ENCODING 892
SWIDTH 533 0
DWIDTH 5 0
BBX 5 5 0 0
BITMAP
78
40
D0
50
78
ENDCHAR
STARTCHAR 037D
ENCODING 893
SWIDTH 533 0
DWIDTH 5 0
BBX 5 5 0 0
BITMAP
F0
18
58
58
F0
ENDCHAR
STARTCHAR 037E
ENCODING 894
SWIDTH 426 0
DWIDTH 4 0
BBX 2 6 1 -1
BITMAP
C0
C0
00
C0
80
80
ENDCHAR
STARTCHAR 037F
ENCODING 895
SWIDTH 320 0
DWIDTH 3 0
BBX 4 9 -1 -2
BITMAP
30
30
30
30
30
30
30
20
E0
ENDCHAR
STARTCHAR 0384
ENCODING 900
SWIDTH 426 0
DWIDTH 4 0
BBX 2 2 2 5
BITMAP
C0
80
ENDCHAR
STARTCHAR 0385
ENCODING 901
SWIDTH 533 0
DWIDTH 5 0
BBX 3 3 1 6
BITMAP
60
40
A0
ENDCHAR
STARTCHAR 0386
ENCODING 902
SWIDTH 746 0
DWIDTH 7 0
BBX 7 7 0 0
BITMAP
58
78
3C
6C
6C
7E
C6
ENDCHAR
STARTCHAR 0387
ENCODING 903
SWIDTH 320 0
DWIDTH 3 0
BBX 2 2 1 2
BITMAP
C0
C0
ENDCHAR
STARTCHAR 0388
ENCODING 904
SWIDTH 853 0
DWIDTH 8 0
BBX 7 7 0 0
BITMAP
7E
B0
30
3E
30
30
3E
ENDCHAR
STARTCHAR 0389
ENCODING 905
SWIDTH 960 0
DWIDTH 9 0
BBX 8 7 0 0
BITMAP
71
B1
31
3F
31
31
31
ENDCHAR
STARTCHAR 038A
ENCODING 906
SWIDTH 533 0
DWIDTH 5 0
BBX 4 7 0 0
BITMAP
70
B0
30
30
30
30
30
ENDCHAR
STARTCHAR 038C
ENCODING 908
SWIDTH 853 0
DWIDTH 8 0
BBX 8 7 0 0
BITMAP
7C
E6
62
63
62
66
3C
ENDCHAR
STARTCHAR 038E
ENCODING 910
SWIDTH 960 0
DWIDTH 9 0
BBX 9 7 0 0
BITMAP
5180
9B00
0E00
0E00
0400
0400
0400
ENDCHAR
STARTCHAR 038F
ENCODING 911
SWIDTH 853 0
DWIDTH 8 0
BBX 8 7 0 0
BITMAP
7C
E6
62
63
62
66
77
ENDCHAR
STARTCHAR 0390
ENCODING 912
SWIDTH 426 0
DWIDTH 4 0
BBX 3 9 0 0
BITMAP
20
40
A0
00
40
40
40
40
60
ENDCHAR
STARTCHAR 0391
ENCODING 913
SWIDTH 746 0
DWIDTH 7 0
BBX 7 7 0 0
BITMAP
38
38
28
6C
6C
7C
C6
ENDCHAR
STARTCHAR 0392
ENCODING 914
SWIDTH 746 0
DWIDTH 7 0
BBX 5 7 1 0
BITMAP
F0
D8
D8
F0
D8
D8
F8
ENDCHAR
STARTCHAR 0393
ENCODING 915
SWIDTH 640 0
DWIDTH 6 0
BBX 4 7 1 0
BITMAP
F0
C0
C0
C0
C0
C0
C0
ENDCHAR
STARTCHAR 0394
ENCODING 916
SWIDTH 746 0
DWIDTH 7 0
BBX 7 7 0 0
BITMAP
38
38
28
6C
6C
44
FE
ENDCHAR
STARTCHAR 0395
ENCODING 917
SWIDTH 640 0
DWIDTH 6 0
BBX 4 7 1 0
BITMAP
F0
C0
C0
F0
C0
C0
F0
ENDCHAR
STARTCHAR 0396
ENCODING 918
SWIDTH 746 0
DWIDTH 7 0
BBX 6 7 0 0
BITMAP
FC
0C
18
30
70
60
FC
ENDCHAR
STARTCHAR 0397
ENCODING 919
SWIDTH 853 0
DWIDTH 8 0
BBX 6 7 1 0
BITMAP
CC
CC
CC
FC
CC
CC
CC
ENDCHAR
STARTCHAR 0398
ENCODING 920
SWIDTH 853 0
DWIDTH 8 0
BBX 7 7 0 0
BITMAP
3C
66
46
DE
46
66
3C
ENDCHAR
STARTCHAR 0399
ENCODING 921
SWIDTH 320 0
DWIDTH 3 0
BBX 2 7 1 0
BITMAP
C0
C0
C0
C0
C0
C0
C0
ENDCHAR
STARTCHAR 039A
ENCODING 922
SWIDTH 746 0
DWIDTH 7 0
BBX 6 7 1 0
BITMAP
D8
D0
F0
E0
F0
D8
CC
ENDCHAR
STARTCHAR 039B
ENCODING 923
SWIDTH 746 0
DWIDTH 7 0
BBX 7 7 0 0
BITMAP
38
38
28
6C
6C
44
C6
ENDCHAR
STARTCHAR 039C
ENCODING 924
SWIDTH 960 0
DWIDTH 9 0
BBX 7 7 1 0
BITMAP
C6
EE
AA
AA
BA
92
82
ENDCHAR
STARTCHAR 039D
ENCODING 925
SWIDTH 853 0
DWIDTH 8 0
BBX 6 7 1 0
BITMAP
CC
CC
AC
AC
9C
9C
8C
ENDCHAR
STARTCHAR 039E
ENCODING 926
SWIDTH 640 0
DWIDTH 6 0
BBX 4 7 1 0
BITMAP
F0
00
00
E0
00
00
F0
ENDCHAR
STARTCHAR 039F
ENCODING 927
SWIDTH 853 0
DWIDTH 8 0
BBX 7 7 0 0
BITMAP
3C
66
46
C6
46
66
3C
ENDCHAR
STARTCHAR 03A0
ENCODING 928
SWIDTH 853 0
DWIDTH 8 0
BBX 6 7 1 0
BITMAP
FC
CC
CC
CC
CC
CC
CC
ENDCHAR
STARTCHAR 03A1
ENCODING 929
SWIDTH 746 0
DWIDTH 7 0
BBX 5 7 1 0
BITMAP
F8
D8
D8
F8
C0
C0
C0
ENDCHAR
STARTCHAR 03A3
ENCODING 931
SWIDTH 640 0
DWIDTH 6 0
BBX 4 7 1 0
BITMAP
F0
C0
60
20
60
C0
F0
ENDCHAR
STARTCHAR 03A4
ENCODING 932
SWIDTH 640 0
DWIDTH 6 0
BBX 6 7 0 0
BITMAP
FC
30
30
30
30
30
30
ENDCHAR
STARTCHAR 03A5
ENCODING 933
SWIDTH 746 0
DWIDTH 7 0
BBX 6 7 0 0
BITMAP
CC
6C
78
30
30
30
30
ENDCHAR
STARTCHAR 03A6
ENCODING 934
SWIDTH 853 0
DWIDTH 8 0
BBX 7 7 0 0
BITMAP
18
3C
5E
DE
5E
3C
18
ENDCHAR
STARTCHAR 03A7
ENCODING 935
SWIDTH 746 0
DWIDTH 7 0
BBX 6 7 0 0
BITMAP
44
6C
38
38
38
6C
C4
ENDCHAR
STARTCHAR 03A8
ENCODING 936
SWIDTH 853 0
DWIDTH 8 0
BBX 7 7 0 0
BITMAP
DE
DE
5E
5E
7E
3C
18
ENDCHAR
STARTCHAR 03A9
ENCODING 937
SWIDTH 853 0
DWIDTH 8 0
BBX 7 7 0 0
BITMAP
3C
66
46
C6
46
66
EE
ENDCHAR
STARTCHAR 03AA
ENCODING 938
SWIDTH 320 0
DWIDTH 3 0
BBX 3 9 0 0
BITMAP
A0
00
60
60
60
60
60
60
60
ENDCHAR
STARTCHAR 03AB
ENCODING 939
SWIDTH 746 0
DWIDTH 7 0
BBX 6 9 0 0
BITMAP
28
00
CC
6C
78
30
30
30
30
ENDCHAR
STARTCHAR 03AC
ENCODING 940
SWIDTH 640 0
DWIDTH 6 0
BBX 6 7 0 0
BITMAP
10
20
7C
58
C8
58
7C
ENDCHAR
STARTCHAR 03AD
ENCODING 941
SWIDTH 533 0
DWIDTH 5 0
BBX 4 7 0 0
BITMAP
10
20
70
40
70
C0
70
ENDCHAR
STARTCHAR 03AE
ENCODING 942
SWIDTH 640 0
DWIDTH 6 0
BBX 5 9 1 -2
BITMAP
20
20
F0
D8
98
98
98
18
18
ENDCHAR
STARTCHAR 03AF
ENCODING 943
SWIDTH 426 0
DWIDTH 4 0
BBX 2 7 1 0
BITMAP
40
80
80
80
80
80
C0
ENDCHAR
STARTCHAR 03B0
ENCODING 944
SWIDTH 640 0
DWIDTH 6 0
BBX 5 9 1 0
BITMAP
20
40
E0
00
90
98
98
90
F0
ENDCHAR
STARTCHAR 03B1
ENCODING 945
SWIDTH 640 0
DWIDTH 6 0
BBX 6 5 0 0
BITMAP
7C
58
C8
58
7C
ENDCHAR
STARTCHAR 03B2
ENCODING 946
SWIDTH 640 0
DWIDTH 6 0
BBX 5 10 1 -2
BITMAP
70
90
90
B0
98
98
D8
B0
80
80
ENDCHAR
STARTCHAR 03B3
ENCODING 947
SWIDTH 640 0
DWIDTH 6 0
BBX 6 7 0 -2
BITMAP
CC
68
68
38
30
30
30
ENDCHAR
STARTCHAR 03B4
ENCODING 948
SWIDTH 640 0
DWIDTH 6 0
BBX 6 8 0 0
BITMAP
38
40
60
78
4C
CC
4C
78
ENDCHAR
STARTCHAR 03B5
ENCODING 949
SWIDTH 533 0
DWIDTH 5 0
BBX 4 5 0 0
BITMAP
70
40
70
C0
70
ENDCHAR
STARTCHAR 03B6
ENCODING 950
SWIDTH 533 0
DWIDTH 5 0
BBX 5 10 0 -2
BITMAP
F8
30
60
40
C0
C0
40
78
08
18
ENDCHAR
STARTCHAR 03B7
ENCODING 951
SWIDTH 640 0
DWIDTH 6 0
BBX 5 7 1 -2
BITMAP
F0
D8
98
98
98
18
18
ENDCHAR
STARTCHAR 03B8
ENCODING 952
SWIDTH 640 0
DWIDTH 6 0
BBX 6 8 0 0
BITMAP
78
48
4C
FC
CC
4C
68
78
ENDCHAR
STARTCHAR 03B9
ENCODING 953
SWIDTH 426 0
DWIDTH 4 0
BBX 2 5 1 0
BITMAP
80
80
80
80
C0
ENDCHAR
STARTCHAR 03BA
ENCODING 954
SWIDTH 640 0
DWIDTH 6 0
BBX 5 5 1 0
BITMAP
B0
E0
E0
B0
98
ENDCHAR
STARTCHAR 03BB
ENCODING 955
SWIDTH 640 0
DWIDTH 6 0
BBX 5 8 0 0
BITMAP
60
20
30
30
30
78
58
C8
ENDCHAR
STARTCHAR 03BC
ENCODING 956
SWIDTH 746 0
DWIDTH 7 0
BBX 5 7 1 -2
BITMAP
98
98
98
98
E8
80
80
ENDCHAR
STARTCHAR 03BD
ENCODING 957
SWIDTH 640 0
DWIDTH 6 0
BBX 6 5 0 0
BITMAP
C8
4C
6C
78
30
ENDCHAR
STARTCHAR 03BE
ENCODING 958
SWIDTH 533 0
DWIDTH 5 0
BBX 5 10 0 -2
BITMAP
F8
60
60
70
40
C0
40
78
08
18
ENDCHAR
STARTCHAR 03BF
ENCODING 959
SWIDTH 640 0
DWIDTH 6 0
BBX 6 5 0 0
BITMAP
78
4C
CC
4C
78
ENDCHAR
STARTCHAR 03C0
ENCODING 960
SWIDTH 746 0
DWIDTH 7 0
BBX 7 5 0 0
BITMAP
FE
6C
6C
6C
6E
ENDCHAR
STARTCHAR 03C1
ENCODING 961
SWIDTH 640 0
DWIDTH 6 0
BBX 5 7 1 -2
BITMAP
70
D8
98
D8
B0
80
80
ENDCHAR
STARTCHAR 03C2
ENCODING 962
SWIDTH 533 0
DWIDTH 5 0
BBX 5 7 0 -2
BITMAP
78
40
C0
40
70
08
10
ENDCHAR
STARTCHAR 03C3
ENCODING 963
SWIDTH 746 0
DWIDTH 7 0
BBX 7 5 0 0
BITMAP
7E
4C
CC
4C
78
ENDCHAR
STARTCHAR 03C4
ENCODING 964
SWIDTH 640 0
DWIDTH 6 0
BBX 6 5 0 0
BITMAP
FC
30
30
30
30
ENDCHAR
STARTCHAR 03C5
ENCODING 965
SWIDTH 640 0
DWIDTH 6 0
BBX 5 5 1 0
BITMAP
90
98
98
90
F0
ENDCHAR
STARTCHAR 03C6
ENCODING 966
SWIDTH 746 0
DWIDTH 7 0
BBX 6 7 1 -2
BITMAP
F8
A8
AC
A8
F8
20
20
ENDCHAR
STARTCHAR 03C7
ENCODING 967
SWIDTH 640 0
DWIDTH 6 0
BBX 6 7 0 -2
BITMAP
C8
78
30
30
30
70
DC
ENDCHAR
STARTCHAR 03C8
ENCODING 968
SWIDTH 746 0
DWIDTH 7 0
BBX 6 7 1 -2
BITMAP
AC
AC
AC
A8
F8
20
20
ENDCHAR
STARTCHAR 03C9
ENCODING 969
SWIDTH 853 0
DWIDTH 8 0
BBX 7 5 0 0
BITMAP
46
42
DA
5A
7E
ENDCHAR
STARTCHAR 03CA
ENCODING 970
SWIDTH 426 0
DWIDTH 4 0
BBX 3 7 0 0
BITMAP
A0
00
40
40
40
40
60
ENDCHAR
STARTCHAR 03CB
ENCODING 971
SWIDTH 640 0
DWIDTH 6 0
BBX 5 7 1 0
BITMAP
60
00
90
98
98
90
F0
ENDCHAR
STARTCHAR 03CC
ENCODING 972
SWIDTH 640 0
DWIDTH 6 0
BBX 6 7 0 0
BITMAP
10
20
78
4C
CC
4C
78
ENDCHAR
STARTCHAR 03CD
ENCODING 973
SWIDTH 640 0
DWIDTH 6 0
BBX 5 7 1 0
BITMAP
20
20
90
98
98
90
F0
ENDCHAR
STARTCHAR 03CE
ENCODING 974
SWIDTH 853 0
DWIDTH 8 0
BBX 7 7 0 0
BITMAP
08
10
46
42
DA
5A
7E
ENDCHAR
STARTCHAR 03CF
ENCODING 975
SWIDTH 746 0
DWIDTH 7 0
BBX 6 9 1 -2
BITMAP
CC
D8
F0
E0
F0
D8
CC
0C
18
ENDCHAR
STARTCHAR 03D0
ENCODING 976
SWIDTH 640 0
DWIDTH 6 0
BBX 5 7 0 0
BITMAP
30
48
48
F8
48
48
78
ENDCHAR
STARTCHAR 03D1
ENCODING 977
SWIDTH 640 0
DWIDTH 6 0
BBX 6 7 0 0
BITMAP
38
68
68
3C
C8
48
78
ENDCHAR
STARTCHAR 03D2
ENCODING 978
SWIDTH 746 0
DWIDTH 7 0
BBX 7 7 0 0
BITMAP
84
EE
38
30
30
30
30
ENDCHAR
STARTCHAR 03D3
ENCODING 979
SWIDTH 960 0
DWIDTH 9 0
BBX 9 7 0 0
BITMAP
7100
BB80
0E00
0C00
0400
0400
0400
ENDCHAR
STARTCHAR 03D4
ENCODING 980
SWIDTH 746 0
DWIDTH 7 0
BBX 7 9 0 0
BITMAP
28
00
84
EE
38
30
30
30
30
ENDCHAR
STARTCHAR 03D5
ENCODING 981
SWIDTH 746 0
DWIDTH 7 0
BBX 6 9 1 -2
BITMAP
20
20
F8
A8
AC
A8
F8
20
20
ENDCHAR
STARTCHAR 03D6
ENCODING 982
SWIDTH 853 0
DWIDTH 8 0
BBX 8 5 0 0
BITMAP
FF
42
DA
DA
7E
ENDCHAR
STARTCHAR 03D7
ENCODING 983
SWIDTH 746 0
DWIDTH 7 0
BBX 5 7 1 -2
BITMAP
D8
58
70
F0
98
18
30
ENDCHAR
STARTCHAR 03D8
ENCODING 984
SWIDTH 853 0
DWIDTH 8 0
BBX 7 9 0 -2
BITMAP
18
7E
46
C6
46
66
3C
18
18
ENDCHAR
STARTCHAR 03D9
ENCODING 985
SWIDTH 640 0
DWIDTH 6 0
BBX 6 7 0 -2
BITMAP
78
4C
CC
4C
78
30
30
ENDCHAR
STARTCHAR 03DA
ENCODING 986
SWIDTH 746 0
DWIDTH 7 0
BBX 6 9 0 -2
BITMAP
1C
7C
40
C0
40
60
38
08
08
ENDCHAR
STARTCHAR 03DB
ENCODING 987
SWIDTH 533 0
DWIDTH 5 0
BBX 5 7 0 -2
BITMAP
78
40
C0
40
70
10
10
ENDCHAR
STARTCHAR 03DC
ENCODING 988
SWIDTH 640 0
DWIDTH 6 0
BBX 4 7 1 0
BITMAP
F0
C0
C0
F0
C0
C0
C0
ENDCHAR
STARTCHAR 03DD
ENCODING 989
SWIDTH 426 0
DWIDTH 4 0
BBX 5 9 -1 -2
BITMAP
38
30
20
38
20
20
20
20
E0
ENDCHAR
STARTCHAR 03DE
ENCODING 990
SWIDTH 640 0
DWIDTH 6 0
BBX 5 7 1 0
BITMAP
80
C0
C8
F0
D0
30
38
ENDCHAR
STARTCHAR 03DF
ENCODING 991
SWIDTH 640 0
DWIDTH 6 0
BBX 4 7 1 0
BITMAP
40
40
C0
F0
30
20
20
ENDCHAR
STARTCHAR 03E0
ENCODING 992
SWIDTH 853 0
DWIDTH 8 0
BBX 8 9 0 -2
BITMAP
38
FC
6E
7A
1B
1B
1A
02
06
ENDCHAR
STARTCHAR 03E1
ENCODING 993
SWIDTH 640 0
DWIDTH 6 0
BBX 5 7 0 -2
BITMAP
C0
30
30
58
68
08
08
ENDCHAR
STARTCHAR 03E2
ENCODING 994
SWIDTH 1066 0
DWIDTH 10 0
BBX 9 9 0 -2
BITMAP
2100
6180
4180
CC80
CC80
6D80
7780
0300
0C00
ENDCHAR
STARTCHAR 03E3
ENCODING 995
SWIDTH 853 0
DWIDTH 8 0
BBX 6 7 1 -2
BITMAP
8C
8C
AC
BC
F8
18
60
ENDCHAR
STARTCHAR 03E4
ENCODING 996
SWIDTH 746 0
DWIDTH 7 0
BBX 7 9 0 -2
BITMAP
36
76
46
C6
46
6E
7E
06
06
ENDCHAR
STARTCHAR 03E5
ENCODING 997
SWIDTH 640 0
DWIDTH 6 0
BBX 6 7 0 -2
BITMAP
6C
4C
CC
4C
7C
0C
0C
ENDCHAR
STARTCHAR 03E6
ENCODING 998
SWIDTH 853 0
DWIDTH 8 0
BBX 7 9 1 -2
BITMAP
C0
C0
FC
CE
C6
C6
C6
1C
30
ENDCHAR
STARTCHAR 03E7
ENCODING 999
SWIDTH 746 0
DWIDTH 7 0
BBX 6 5 0 0
BITMAP
7C
4C
74
04
F8
ENDCHAR
STARTCHAR 03E8
ENCODING 1000
SWIDTH 746 0
DWIDTH 7 0
BBX 5 9 1 -2
BITMAP
70
F8
08
18
10
60
C0
F8
70
ENDCHAR
STARTCHAR 03E9
ENCODING 1001
SWIDTH 640 0
DWIDTH 6 0
BBX 4 7 1 -2
BITMAP
F0
90
10
20
C0
80
70
ENDCHAR
STARTCHAR 03EA
ENCODING 1002
SWIDTH 746 0
DWIDTH 7 0
BBX 7 7 0 0
BITMAP
C6
EE
38
18
38
6C
7E
ENDCHAR
STARTCHAR 03EB
ENCODING 1003
SWIDTH 640 0
DWIDTH 6 0
BBX 6 5 0 0
BITMAP
CC
38
30
78
FC
ENDCHAR
STARTCHAR 03EC
ENCODING 1004
SWIDTH 746 0
DWIDTH 7 0
BBX 6 7 0 0
BITMAP
1C
60
7C
CC
C4
4C
7C
ENDCHAR
STARTCHAR 03ED
ENCODING 1005
SWIDTH 640 0
DWIDTH 6 0
BBX 5 7 1 0
BITMAP
38
C0
B0
D8
98
D8
70
ENDCHAR
STARTCHAR 03EE
ENCODING 1006
SWIDTH 640 0
DWIDTH 6 0
BBX 6 9 0 -2
BITMAP
30
30
FC
B4
30
30
30
30
30
ENDCHAR
STARTCHAR 03EF
ENCODING 1007
SWIDTH 533 0
DWIDTH 5 0
BBX 5 9 0 -2
BITMAP
20
20
F8
A8
20
20
20
20
20
ENDCHAR
STARTCHAR 03F0
ENCODING 1008
SWIDTH 746 0
DWIDTH 7 0
BBX 5 5 1 0
BITMAP
D8
58
70
F0
98
ENDCHAR
STARTCHAR 03F1
ENCODING 1009
SWIDTH 640 0
DWIDTH 6 0
BBX 5 7 1 -2
BITMAP
70
D8
98
D8
B0
80
F8
ENDCHAR
STARTCHAR 03F2
ENCODING 1010
SWIDTH 533 0
DWIDTH 5 0
BBX 5 5 0 0
BITMAP
78
40
C0
40
78
ENDCHAR
STARTCHAR 03F3
ENCODING 1011
SWIDTH 320 0
DWIDTH 3 0
BBX 2 10 0 -2
BITMAP
40
40
00
40
40
40
40
40
40
C0
ENDCHAR
STARTCHAR 03F4
ENCODING 1012
SWIDTH 853 0
DWIDTH 8 0
BBX 7 7 0 0
BITMAP
3C
66
46
FE
46
66
3C
ENDCHAR
STARTCHAR 03F5
ENCODING 1013
SWIDTH 640 0
DWIDTH 6 0
BBX 4 5 1 0
BITMAP
70
80
F0
80
F0
ENDCHAR
STARTCHAR 03F6
ENCODING 1014
SWIDTH 640 0
DWIDTH 6 0
BBX 4 5 1 0
BITMAP
E0
30
F0
30
E0
ENDCHAR
STARTCHAR 03F7
ENCODING 1015
SWIDTH 746 0
DWIDTH 7 0
BBX 5 7 1 0
BITMAP
C0
C0
F8
D8
D8
F8
C0
ENDCHAR
STARTCHAR 03F8
ENCODING 1016
SWIDTH 640 0
DWIDTH 6 0
BBX 5 10 1 -2
BITMAP
80
80
80
F0
D8
98
D8
F0
80
80
ENDCHAR
STARTCHAR 03F9
ENCODING 1017
SWIDTH 746 0
DWIDTH 7 0
BBX 6 7 0 0
BITMAP
3C
64
40
C0
40
64
3C
ENDCHAR
STARTCHAR 03FA
ENCODING 1018
SWIDTH 960 0
DWIDTH 9 0
BBX 7 7 1 0
BITMAP
C6
EE
BA
B2
82
82
82
ENDCHAR
STARTCHAR 03FB
ENCODING 1019
SWIDTH 746 0
DWIDTH 7 0
BBX 5 7 1 -2
BITMAP
D8
F8
B8
98
98
80
80
ENDCHAR
STARTCHAR 03FC
ENCODING 1020
SWIDTH 640 0
DWIDTH 6 0
BBX 5 7 1 -2
BITMAP
70
D8
98
D8
B0
80
C0
ENDCHAR
STARTCHAR 03FD
ENCODING 1021
SWIDTH 640 0
DWIDTH 6 0
BBX 6 7 0 0
BITMAP
70
F8
0C
0C
0C
98
F8
ENDCHAR
STARTCHAR 03FE
ENCODING 1022
SWIDTH 746 0
DWIDTH 7 0
BBX 6 7 0 0
BITMAP
3C
64
40
D8
58
64
3C
ENDCHAR
STARTCHAR 03FF
ENCODING 1023
SWIDTH 640 0
DWIDTH 6 0
BBX 6 7 0 0
BITMAP
70
F8
0C
6C
6C
98
F8
ENDCHAR
STARTCHAR 0400
ENCODING 1024
SWIDTH 640 0
DWIDTH 6 0
BBX 4 9 1 0
BITMAP
20
00
F0
C0
C0
F0
C0
C0
F0
ENDCHAR
STARTCHAR 0401
ENCODING 1025
SWIDTH 640 0
DWIDTH 6 0
BBX 4 9 1 0
BITMAP
60
00
F0
C0
C0
F0
C0
C0
F0
ENDCHAR
STARTCHAR 0402
ENCODING 1026
SWIDTH 853 0
DWIDTH 8 0
BBX 7 9 0 -2
BITMAP
F8
F8
60
7E
66
66
66
06
0C
ENDCHAR
STARTCHAR 0403
ENCODING 1027
SWIDTH 640 0
DWIDTH 6 0
BBX 4 9 1 0
BITMAP
20
00
F0
C0
C0
C0
C0
C0
C0
ENDCHAR
STARTCHAR 0404
ENCODING 1028
SWIDTH 746 0
DWIDTH 7 0
BBX 6 7 0 0
BITMAP
3C
64
40
F8
40
64
3C
ENDCHAR
STARTCHAR 0405
ENCODING 1029
SWIDTH 640 0
DWIDTH 6 0
BBX 5 7 1 0
BITMAP
F0
90
80
F0
18
98
F0
ENDCHAR
STARTCHAR 0406
ENCODING 1030
SWIDTH 320 0
DWIDTH 3 0
BBX 2 7 1 0
BITMAP
C0
C0
C0
C0
C0
C0
C0
ENDCHAR
STARTCHAR 0407
ENCODING 1031
SWIDTH 320 0
DWIDTH 3 0
BBX 3 9 0 0
BITMAP
A0
00
60
60
60
60
60
60
60
ENDCHAR
STARTCHAR 0408
ENCODING 1032
SWIDTH 320 0
DWIDTH 3 0
BBX 4 9 -1 -2
BITMAP
30
30
30
30
30
30
30
20
E0
ENDCHAR
STARTCHAR 0409
ENCODING 1033
SWIDTH 1066 0
DWIDTH 10 0
BBX 10 7 0 0
BITMAP
3E00
3E00
3600
3780
36C0
66C0
C780
ENDCHAR
STARTCHAR 040A
ENCODING 1034
SWIDTH 1066 0
DWIDTH 10 0
BBX 8 7 1 0
BITMAP
C8
C8
C8
FF
C9
C9
CF
ENDCHAR
STARTCHAR 040B
ENCODING 1035
SWIDTH 853 0
DWIDTH 8 0
BBX 7 7 0 0
BITMAP
F8
F8
60
7E
66
66
66
ENDCHAR
STARTCHAR 040C
ENCODING 1036
SWIDTH 746 0
DWIDTH 7 0
BBX 6 9 1 0
BITMAP
20
00
CC
D8
F0
F0
D8
D8
CC
ENDCHAR
STARTCHAR 040D
ENCODING 1037
SWIDTH 853 0
DWIDTH 8 0
BBX 6 9 1 0
BITMAP
20
00
8C
9C
BC
AC
EC
CC
CC
ENDCHAR
STARTCHAR 040E
ENCODING 1038
SWIDTH 746 0
DWIDTH 7 0
BBX 6 9 0 0
BITMAP
38
00
C4
6C
6C
38
38
10
70
ENDCHAR
STARTCHAR 040F
ENCODING 1039
SWIDTH 853 0
DWIDTH 8 0
BBX 6 8 1 -1
BITMAP
CC
CC
CC
CC
CC
CC
FC
20
ENDCHAR
STARTCHAR 0410
ENCODING 1040
SWIDTH 746 0
DWIDTH 7 0
BBX 7 7 0 0
BITMAP
38
38
28
6C
6C
7C
C6
ENDCHAR
STARTCHAR 0411
ENCODING 1041
SWIDTH 746 0
DWIDTH 7 0
BBX 5 7 1 0
BITMAP
F8
C0
C0
F8
D8
D8
F8
ENDCHAR
STARTCHAR 0412
ENCODING 1042
SWIDTH 746 0
DWIDTH 7 0
BBX 5 7 1 0
BITMAP
F0
D8
D8
F0
D8
D8
F8
ENDCHAR
STARTCHAR 0413
ENCODING 1043
SWIDTH 640 0
DWIDTH 6 0
BBX 4 7 1 0
BITMAP
F0
C0
C0
C0
C0
C0
C0
ENDCHAR
STARTCHAR 0414
ENCODING 1044
SWIDTH 853 0
DWIDTH 8 0
BBX 6 8 1 -1
BITMAP
7C
4C
4C
4C
4C
CC
FC
84
ENDCHAR
STARTCHAR 0415
ENCODING 1045
SWIDTH 640 0
DWIDTH 6 0
BBX 4 7 1 0
BITMAP
F0
C0
C0
F0
C0
C0
F0
ENDCHAR
STARTCHAR 0416
ENCODING 1046
SWIDTH 1173 0
DWIDTH 11 0
BBX 11 7 0 0
BITMAP
64C0
3480
1500
3F80
3F80
64C0
C460
ENDCHAR
STARTCHAR 0417
ENCODING 1047
SWIDTH 640 0
DWIDTH 6 0
BBX 5 7 1 0
BITMAP
F0
18
18
70
18
18
F0
ENDCHAR
STARTCHAR 0418
ENCODING 1048
SWIDTH 853 0
DWIDTH 8 0
BBX 6 7 1 0
BITMAP
8C
9C
BC
AC
EC
CC
CC
ENDCHAR
STARTCHAR 0419
ENCODING 1049
SWIDTH 853 0
DWIDTH 8 0
BBX 6 9 1 0
BITMAP
70
00
8C
9C
BC
AC
EC
CC
CC
ENDCHAR
STARTCHAR 041A
ENCODING 1050
SWIDTH 746 0
DWIDTH 7 0
BBX 6 7 1 0
BITMAP
CC
D8
F0
F0
D8
D8
CC
ENDCHAR
STARTCHAR 041B
ENCODING 1051
SWIDTH 746 0
DWIDTH 7 0
BBX 7 7 0 0
BITMAP
3E
36
36
36
26
26
C6
ENDCHAR
STARTCHAR 041C
ENCODING 1052
SWIDTH 960 0
DWIDTH 9 0
BBX 7 7 1 0
BITMAP
C6
EE
AA
AA
BA
92
82
ENDCHAR
STARTCHAR 041D
ENCODING 1053
SWIDTH 853 0
DWIDTH 8 0
BBX 6 7 1 0
BITMAP
CC
CC
CC
FC
CC
CC
CC
ENDCHAR
STARTCHAR 041E
ENCODING 1054
SWIDTH 853 0
DWIDTH 8 0
BBX 7 7 0 0
BITMAP
3C
66
46
C6
46
66
3C
ENDCHAR
STARTCHAR 041F
ENCODING 1055
SWIDTH 853 0
DWIDTH 8 0
BBX 6 7 1 0
BITMAP
FC
CC
CC
CC
CC
CC
CC
ENDCHAR
STARTCHAR 0420
ENCODING 1056
SWIDTH 746 0
DWIDTH 7 0
BBX 5 7 1 0
BITMAP
F8
D8
D8
F8
C0
C0
C0
ENDCHAR
STARTCHAR 0421
ENCODING 1057
SWIDTH 746 0
DWIDTH 7 0
BBX 6 7 0 0
BITMAP
3C
64
40
C0
40
64
3C
ENDCHAR
STARTCHAR 0422
ENCODING 1058
SWIDTH 640 0
DWIDTH 6 0
BBX 6 7 0 0
BITMAP
FC
30
30
30
30
30
30
ENDCHAR
STARTCHAR 0423
ENCODING 1059
SWIDTH 746 0
DWIDTH 7 0
BBX 6 7 0 0
BITMAP
C4
6C
6C
38
38
10
70
ENDCHAR
STARTCHAR 0424
ENCODING 1060
SWIDTH 960 0
DWIDTH 9 0
BBX 8 7 0 0
BITMAP
08
3E
4B
C9
4B
3E
08
ENDCHAR
STARTCHAR 0425
ENCODING 1061
SWIDTH 746 0
DWIDTH 7 0
BBX 6 7 0 0
BITMAP
44
6C
38
38
38
6C
C4
ENDCHAR
STARTCHAR 0426
ENCODING 1062
SWIDTH 853 0
DWIDTH 8 0
BBX 7 8 1 -1
BITMAP
CC
CC
CC
CC
CC
CC
FE
02
ENDCHAR
STARTCHAR 0427
ENCODING 1063
SWIDTH 746 0
DWIDTH 7 0
BBX 5 7 1 0
BITMAP
88
88
C8
F8
08
08
08
ENDCHAR
STARTCHAR 0428
ENCODING 1064
SWIDTH 1173 0
DWIDTH 11 0
BBX 9 7 1 0
BITMAP
C880
C880
C880
C880
C880
C880
FF80
ENDCHAR
STARTCHAR 0429
ENCODING 1065
SWIDTH 1280 0
DWIDTH 12 0
BBX 10 8 1 -1
BITMAP
C880
C880
C880
C880
C880
C880
FFC0
0040
ENDCHAR
STARTCHAR 042A
ENCODING 1066
SWIDTH 853 0
DWIDTH 8 0
BBX 8 7 0 0
BITMAP
F0
F0
10
1E
13
13
1E
ENDCHAR
STARTCHAR 042B
ENCODING 1067
SWIDTH 960 0
DWIDTH 9 0
BBX 8 7 1 0
BITMAP
C3
C3
C3
FB
DB
DB
FB
ENDCHAR
STARTCHAR 042C
ENCODING 1068
SWIDTH 746 0
DWIDTH 7 0
BBX 5 7 1 0
BITMAP
C0
C0
C0
F8
D8
D8
F8
ENDCHAR
STARTCHAR 042D
ENCODING 1069
SWIDTH 746 0
DWIDTH 7 0
BBX 5 7 1 0
BITMAP
E0
F0
18
F8
18
18
F0
ENDCHAR
STARTCHAR 042E
ENCODING 1070
SWIDTH 1173 0
DWIDTH 11 0
BBX 9 7 1 0
BITMAP
CF00
D980
F180
F180
F180
D980
CF00
ENDCHAR
STARTCHAR 042F
ENCODING 1071
SWIDTH 746 0
DWIDTH 7 0
BBX 5 7 1 0
BITMAP
78
D8
D8
78
78
D8
D8
ENDCHAR
STARTCHAR 0430
ENCODING 1072
SWIDTH 640 0
DWIDTH 6 0
BBX 5 5 0 0
BITMAP
78
08
78
C8
78
ENDCHAR
STARTCHAR 0431
ENCODING 1073
SWIDTH 640 0
DWIDTH 6 0
BBX 6 8 0 0
BITMAP
38
40
C0
F8
CC
CC
4C
78
ENDCHAR
STARTCHAR 0432
ENCODING 1074
SWIDTH 640 0
DWIDTH 6 0
BBX 4 5 1 0
BITMAP
F0
90
F0
90
F0
ENDCHAR
STARTCHAR 0433
ENCODING 1075
SWIDTH 533 0
DWIDTH 5 0
BBX 3 5 1 0
BITMAP
E0
80
80
80
80
ENDCHAR
STARTCHAR 0434
ENCODING 1076
SWIDTH 746 0
DWIDTH 7 0
BBX 7 6 0 -1
BITMAP
3C
2C
2C
6C
FE
C2
ENDCHAR
STARTCHAR 0435
ENCODING 1077
SWIDTH 640 0
DWIDTH 6 0
BBX 6 5 0 0
BITMAP
78
4C
FC
40
78
ENDCHAR
STARTCHAR 0436
ENCODING 1078
SWIDTH 960 0
DWIDTH 9 0
BBX 7 5 1 0
BITMAP
D6
7C
7C
D6
92
ENDCHAR
STARTCHAR 0437
ENCODING 1079
SWIDTH 533 0
DWIDTH 5 0
BBX 5 5 0 0
BITMAP
70
18
70
18
F0
ENDCHAR
STARTCHAR 0438
ENCODING 1080
SWIDTH 640 0
DWIDTH 6 0
BBX 5 5 1 0
BITMAP
98
B8
F8
D8
D8
ENDCHAR
STARTCHAR 0439
ENCODING 1081
SWIDTH 640 0
DWIDTH 6 0
BBX 5 7 1 0
BITMAP
60
00
98
B8
F8
D8
D8
ENDCHAR
STARTCHAR 043A
ENCODING 1082
SWIDTH 640 0
DWIDTH 6 0
BBX 5 5 1 0
BITMAP
90
A0
E0
B0
98
ENDCHAR
STARTCHAR 043B
ENCODING 1083
SWIDTH 746 0
DWIDTH 7 0
BBX 6 5 0 0
BITMAP
3C
2C
2C
6C
CC
ENDCHAR
STARTCHAR 043C
ENCODING 1084
SWIDTH 746 0
DWIDTH 7 0
BBX 6 5 1 0
BITMAP
CC
DC
FC
AC
8C
ENDCHAR
STARTCHAR 043D
ENCODING 1085
SWIDTH 640 0
DWIDTH 6 0
BBX 4 5 1 0
BITMAP
90
90
F0
90
90
ENDCHAR
STARTCHAR 043E
ENCODING 1086
SWIDTH 640 0
DWIDTH 6 0
BBX 6 5 0 0
BITMAP
78
4C
CC
4C
78
ENDCHAR
STARTCHAR 043F
ENCODING 1087
SWIDTH 640 0
DWIDTH 6 0
BBX 4 5 1 0
BITMAP
F0
90
90
90
90
ENDCHAR
STARTCHAR 0440
ENCODING 1088
SWIDTH 640 0
DWIDTH 6 0
BBX 5 7 1 -2
BITMAP
F0
D8
98
D8
F0
80
80
ENDCHAR
STARTCHAR 0441
ENCODING 1089
SWIDTH 533 0
DWIDTH 5 0
BBX 5 5 0 0
BITMAP
78
40
C0
40
78
ENDCHAR
STARTCHAR 0442
ENCODING 1090
SWIDTH 533 0
DWIDTH 5 0
BBX 5 5 0 0
BITMAP
F8
20
20
20
20
ENDCHAR
STARTCHAR 0443
ENCODING 1091
SWIDTH 640 0
DWIDTH 6 0
BBX 6 7 0 -2
BITMAP
CC
48
78
30
30
30
60
ENDCHAR
STARTCHAR 0444
ENCODING 1092
SWIDTH 960 0
DWIDTH 9 0
BBX 8 10 0 -2
BITMAP
08
08
08
7F
49
C9
49
7F
08
08
ENDCHAR
STARTCHAR 0445
ENCODING 1093
SWIDTH 640 0
DWIDTH 6 0
BBX 4 5 1 0
BITMAP
90
E0
60
F0
90
ENDCHAR
STARTCHAR 0446
ENCODING 1094
SWIDTH 746 0
DWIDTH 7 0
BBX 5 6 1 -1
BITMAP
90
90
90
90
F8
08
ENDCHAR
STARTCHAR 0447
ENCODING 1095
SWIDTH 640 0
DWIDTH 6 0
BBX 4 5 1 0
BITMAP
90
90
F0
10
10
ENDCHAR
STARTCHAR 0448
ENCODING 1096
SWIDTH 1066 0
DWIDTH 10 0
BBX 8 5 1 0
BITMAP
9B
9B
9B
9B
FF
ENDCHAR
STARTCHAR 0449
ENCODING 1097
SWIDTH 1066 0
DWIDTH 10 0
BBX 9 6 1 -1
BITMAP
9B00
9B00
9B00
9B00
FF80
0180
ENDCHAR
STARTCHAR 044A
ENCODING 1098
SWIDTH 746 0
DWIDTH 7 0
BBX 6 5 0 0
BITMAP
E0
20
3C
24
3C
ENDCHAR
STARTCHAR 044B
ENCODING 1099
SWIDTH 853 0
DWIDTH 8 0
BBX 6 5 1 0
BITMAP
84
84
F4
94
F4
ENDCHAR
STARTCHAR 044C
ENCODING 1100
SWIDTH 640 0
DWIDTH 6 0
BBX 4 5 1 0
BITMAP
80
80
F0
90
F0
ENDCHAR
STARTCHAR 044D
ENCODING 1101
SWIDTH 533 0
DWIDTH 5 0
BBX 4 5 1 0
BITMAP
E0
30
F0
30
E0
ENDCHAR
STARTCHAR 044E
ENCODING 1102
SWIDTH 960 0
DWIDTH 9 0
BBX 7 5 1 0
BITMAP
9C
B2
F2
B2
9C
ENDCHAR
STARTCHAR 044F
ENCODING 1103
SWIDTH 640 0
DWIDTH 6 0
BBX 4 5 1 0
BITMAP
F0
B0
F0
F0
B0
ENDCHAR
STARTCHAR 0450
ENCODING 1104
SWIDTH 640 0
DWIDTH 6 0
BBX 6 7 0 0
BITMAP
60
20
78
4C
FC
40
78
ENDCHAR
STARTCHAR 0451
ENCODING 1105
SWIDTH 640 0
DWIDTH 6 0
BBX 6 7 0 0
BITMAP
38
00
78
4C
FC
40
78
ENDCHAR
STARTCHAR 0452
ENCODING 1106
SWIDTH 640 0
DWIDTH 6 0
BBX 6 9 0 -2
BITMAP
60
60
F8
60
7C
6C
6C
0C
18
ENDCHAR
STARTCHAR 0453
ENCODING 1107
SWIDTH 533 0
DWIDTH 5 0
BBX 3 7 1 0
BITMAP
20
40
E0
80
80
80
80
ENDCHAR
STARTCHAR 0454
ENCODING 1108
SWIDTH 533 0
DWIDTH 5 0
BBX 5 5 0 0
BITMAP
78
40
F0
40
78
ENDCHAR
STARTCHAR 0455
ENCODING 1109
SWIDTH 533 0
DWIDTH 5 0
BBX 5 5 0 0
BITMAP
78
C0
78
18
70
ENDCHAR
STARTCHAR 0456
ENCODING 1110
SWIDTH 320 0
DWIDTH 3 0
BBX 1 8 1 0
BITMAP
80
80
00
80
80
80
80
80
ENDCHAR
STARTCHAR 0457
ENCODING 1111
SWIDTH 320 0
DWIDTH 3 0
BBX 3 7 0 0
BITMAP
A0
00
40
40
40
40
40
ENDCHAR
STARTCHAR 0458
ENCODING 1112
SWIDTH 320 0
DWIDTH 3 0
BBX 2 10 0 -2
BITMAP
40
40
00
40
40
40
40
40
40
C0
ENDCHAR
STARTCHAR 0459
ENCODING 1113
SWIDTH 960 0
DWIDTH 9 0
BBX 8 5 0 0
BITMAP
7C
6C
6F
6D
CF
ENDCHAR
STARTCHAR 045A
ENCODING 1114
SWIDTH 960 0
DWIDTH 9 0
BBX 7 5 1 0
BITMAP
90
90
FE
92
9E
ENDCHAR
STARTCHAR 045B
ENCODING 1115
SWIDTH 746 0
DWIDTH 7 0
BBX 6 7 0 0
BITMAP
60
60
F8
60
7C
6C
6C
ENDCHAR
STARTCHAR 045C
ENCODING 1116
SWIDTH 640 0
DWIDTH 6 0
BBX 5 7 1 0
BITMAP
30
20
90
A0
E0
B0
98
ENDCHAR
STARTCHAR 045D
ENCODING 1117
SWIDTH 640 0
DWIDTH 6 0
BBX 5 7 1 0
BITMAP
40
20
98
B8
F8
D8
D8
ENDCHAR
STARTCHAR 045E
ENCODING 1118
SWIDTH 640 0
DWIDTH 6 0
BBX 6 9 0 -2
BITMAP
30
00
CC
48
78
30
30
30
60
ENDCHAR
STARTCHAR 045F
ENCODING 1119
SWIDTH 640 0
DWIDTH 6 0
BBX 4 6 1 -1
BITMAP
90
90
90
90
F0
20
ENDCHAR
STARTCHAR 0460
ENCODING 1120
SWIDTH 1066 0
DWIDTH 10 0
BBX 9 7 0 0
BITMAP
2100
6180
4180
CC80
CC80
6D80
7780
ENDCHAR
STARTCHAR 0461
ENCODING 1121
SWIDTH 853 0
DWIDTH 8 0
BBX 7 5 0 0
BITMAP
46
42
DA
5A
7E
ENDCHAR
STARTCHAR 0462
ENCODING 1122
SWIDTH 853 0
DWIDTH 8 0
BBX 7 7 0 0
BITMAP
20
F8
20
3E
26
26
3C
ENDCHAR
STARTCHAR 0463
ENCODING 1123
SWIDTH 746 0
DWIDTH 7 0
BBX 6 7 0 0
BITMAP
20
20
F8
20
3C
24
3C
ENDCHAR
STARTCHAR 0464
ENCODING 1124
SWIDTH 960 0
DWIDTH 9 0
BBX 8 7 1 0
BITMAP
CE
DF
F0
FE
F0
F1
DF
ENDCHAR
STARTCHAR 0465
ENCODING 1125
SWIDTH 853 0
DWIDTH 8 0
BBX 6 5 1 0
BITMAP
BC
A0
F8
A0
BC
ENDCHAR
STARTCHAR 0466
ENCODING 1126
SWIDTH 960 0
DWIDTH 9 0
BBX 9 7 0 0
BITMAP
1C00
1C00
3600
3E00
7F00
4B00
C980
ENDCHAR
STARTCHAR 0467
ENCODING 1127
SWIDTH 746 0
DWIDTH 7 0
BBX 6 5 1 0
BITMAP
30
70
78
A8
A4
ENDCHAR
STARTCHAR 0468
ENCODING 1128
SWIDTH 1280 0
DWIDTH 12 0
BBX 11 7 1 0
BITMAP
C300
C700
C580
FF80
CFC0
DB40
D360
ENDCHAR
STARTCHAR 0469
ENCODING 1129
SWIDTH 1066 0
DWIDTH 10 0
BBX 9 5 1 0
BITMAP
8C00
8E00
FE00
9500
B580
ENDCHAR
STARTCHAR 046A
ENCODING 1130
SWIDTH 853 0
DWIDTH 8 0
BBX 7 7 0 0
BITMAP
7E
7C
2C
38
7C
56
D2
ENDCHAR
STARTCHAR 046B
ENCODING 1131
SWIDTH 640 0
DWIDTH 6 0
BBX 6 5 0 0
BITMAP
78
68
30
78
DC
ENDCHAR
STARTCHAR 046C
ENCODING 1132
SWIDTH 1173 0
DWIDTH 11 0
BBX 9 7 1 0
BITMAP
DF80
DF00
C900
FE00
DF00
D780
D680
ENDCHAR
STARTCHAR 046D
ENCODING 1133
SWIDTH 960 0
DWIDTH 9 0
BBX 8 5 1 0
BITMAP
9E
92
FC
9E
BB
ENDCHAR
STARTCHAR 046E
ENCODING 1134
SWIDTH 640 0
DWIDTH 6 0
BBX 5 10 1 -2
BITMAP
60
E0
B0
10
60
10
18
F0
80
F0
ENDCHAR
STARTCHAR 046F
ENCODING 1135
SWIDTH 533 0
DWIDTH 5 0
BBX 4 9 0 -2
BITMAP
50
60
70
10
70
10
70
C0
70
ENDCHAR
STARTCHAR 0470
ENCODING 1136
SWIDTH 1066 0
DWIDTH 10 0
BBX 10 7 0 0
BITMAP
0800
C9C0
4900
6900
3F00
3E00
0800
ENDCHAR
STARTCHAR 0471
ENCODING 1137
SWIDTH 1066 0
DWIDTH 10 0
BBX 9 9 0 -2
BITMAP
0800
0800
C980
4900
6900
7F00
3E00
0800
0800
ENDCHAR
STARTCHAR 0472
ENCODING 1138
SWIDTH 853 0
DWIDTH 8 0
BBX 7 7 0 0
BITMAP
3C
66
46
FE
46
66
3C
ENDCHAR
STARTCHAR 0473
ENCODING 1139
SWIDTH 640 0
DWIDTH 6 0
BBX 6 5 0 0
BITMAP
78
4C
FC
4C
78
ENDCHAR
STARTCHAR 0474
ENCODING 1140
SWIDTH 853 0
DWIDTH 8 0
BBX 7 7 0 0
BITMAP
C2
C6
4C
6C
28
38
38
ENDCHAR
STARTCHAR 0475
ENCODING 1141
SWIDTH 640 0
DWIDTH 6 0
BBX 6 5 0 0
BITMAP
CC
48
78
70
30
ENDCHAR
STARTCHAR 0476
ENCODING 1142
SWIDTH 853 0
DWIDTH 8 0
BBX 7 9 0 0
BITMAP
30
08
C2
C6
4C
6C
28
38
38
ENDCHAR
STARTCHAR 0477
ENCODING 1143
SWIDTH 640 0
DWIDTH 6 0
BBX 6 7 0 0
BITMAP
28
00
CC
48
78
70
30
ENDCHAR
STARTCHAR 0478
ENCODING 1144
SWIDTH 1066 0
DWIDTH 10 0
BBX 10 9 0 -2
BITMAP
3000
7800
4AC0
CAC0
CB80
4980
7100
0100
0700
ENDCHAR
STARTCHAR 0479
ENCODING 1145
SWIDTH 960 0
DWIDTH 9 0
BBX 9 7 0 -2
BITMAP
7480
5F80
DF00
5B00
7300
0200
0E00
ENDCHAR
STARTCHAR 047A
ENCODING 1146
SWIDTH 1066 0
DWIDTH 10 0
BBX 9 7 0 0
BITMAP
0800
7F00
4180
C180
4180
6180
3F00
ENDCHAR
STARTCHAR 047B
ENCODING 1147
SWIDTH 853 0
DWIDTH 8 0
BBX 7 5 0 0
BITMAP
3C
46
C2
42
7C
ENDCHAR
STARTCHAR 047C
ENCODING 1148
SWIDTH 1386 0
DWIDTH 13 0
BBX 11 8 1 0
BITMAP
0E00
0400
C040
C060
8060
8020
9E60
F1E0
ENDCHAR
STARTCHAR 047D
ENCODING 1149
SWIDTH 1173 0
DWIDTH 11 0
BBX 10 7 0 0
BITMAP
0E00
0400
40C0
40C0
C040
CEC0
71C0
ENDCHAR
STARTCHAR 047E
ENCODING 1150
SWIDTH 1066 0
DWIDTH 10 0
BBX 9 8 0 0
BITMAP
1E00
2100
6180
4180
CC80
CC80
6D80
7780
ENDCHAR
STARTCHAR 047F
ENCODING 1151
SWIDTH 853 0
DWIDTH 8 0
BBX 7 7 0 0
BITMAP
3C
00
46
42
DA
5A
7E
ENDCHAR
STARTCHAR 0480
ENCODING 1152
SWIDTH 746 0
DWIDTH 7 0
BBX 6 9 0 -2
BITMAP
18
7C
40
C0
40
60
3C
0C
0C
ENDCHAR
STARTCHAR 0481
ENCODING 1153
SWIDTH 533 0
DWIDTH 5 0
BBX 5 7 0 -2
BITMAP
78
40
C0
40
78
18
18
ENDCHAR
STARTCHAR 0482
ENCODING 1154
SWIDTH 640 0
DWIDTH 6 0
BBX 4 4 1 0
BITMAP
E0
70
C0
E0
ENDCHAR
STARTCHAR 0483
ENCODING 1155
SWIDTH 0 0
DWIDTH 0 0
BBX 4 2 -5 5
BITMAP
F0
80
ENDCHAR
STARTCHAR 0484
ENCODING 1156
SWIDTH 0 0
DWIDTH 0 0
BBX 3 1 -3 6
BITMAP
E0
ENDCHAR
STARTCHAR 0485
ENCODING 1157
SWIDTH 0 0
DWIDTH 0 0
BBX 1 2 -3 5
BITMAP
80
80
ENDCHAR
STARTCHAR 0486
ENCODING 1158
SWIDTH 0 0
DWIDTH 0 0
BBX 1 1 -3 5
BITMAP
80
ENDCHAR
STARTCHAR 0487
ENCODING 1159
SWIDTH 0 0
DWIDTH 0 0
BBX 7 2 -7 5
BITMAP
70
8E
ENDCHAR
STARTCHAR 0488
ENCODING 1160
SWIDTH 426 0
DWIDTH 4 0
BBX 12 10 -9 -2
BITMAP
0600
70E0
0000
0000
C030
0000
0000
70E0
0600
0800
ENDCHAR
STARTCHAR 0489
ENCODING 1161
SWIDTH 426 0
DWIDTH 4 0
BBX 12 12 -9 -3
BITMAP
0200
2400
30C0
0000
0000
C020
0010
0000
30C0
4440
0400
0400
ENDCHAR
STARTCHAR 048A
ENCODING 1162
SWIDTH 960 0
DWIDTH 9 0
BBX 7 11 1 -2
BITMAP
70
00
8C
9C
9C
BC
AC
EC
CE
06
0C
ENDCHAR
STARTCHAR 048B
ENCODING 1163
SWIDTH 746 0
DWIDTH 7 0
BBX 6 9 1 -2
BITMAP
60
00
90
B0
F0
D0
DC
0C
10
ENDCHAR
STARTCHAR 048C
ENCODING 1164
SWIDTH 746 0
DWIDTH 7 0
BBX 6 7 0 0
BITMAP
60
E0
60
7C
6C
6C
7C
ENDCHAR
STARTCHAR 048D
ENCODING 1165
SWIDTH 640 0
DWIDTH 6 0
BBX 5 6 0 0
BITMAP
40
E0
40
78
48
78
ENDCHAR
STARTCHAR 048E
ENCODING 1166
SWIDTH 746 0
DWIDTH 7 0
BBX 5 7 1 0
BITMAP
E0
F8
D8
F8
F8
C0
C0
ENDCHAR
STARTCHAR 048F
ENCODING 1167
SWIDTH 640 0
DWIDTH 6 0
BBX 5 7 1 -2
BITMAP
B0
D8
98
F8
B0
80
80
ENDCHAR
STARTCHAR 0490
ENCODING 1168
SWIDTH 640 0
DWIDTH 6 0
BBX 4 8 1 0
BITMAP
10
F0
C0
C0
C0
C0
C0
C0
ENDCHAR
STARTCHAR 0491
ENCODING 1169
SWIDTH 533 0
DWIDTH 5 0
BBX 3 6 1 0
BITMAP
20
E0
80
80
80
80
ENDCHAR
STARTCHAR 0492
ENCODING 1170
SWIDTH 640 0
DWIDTH 6 0
BBX 6 7 0 0
BITMAP
7C
7C
60
F8
60
60
60
ENDCHAR
STARTCHAR 0493
ENCODING 1171
SWIDTH 533 0
DWIDTH 5 0
BBX 5 5 0 0
BITMAP
78
60
F0
60
60
ENDCHAR
STARTCHAR 0494
ENCODING 1172
SWIDTH 746 0
DWIDTH 7 0
BBX 6 9 1 -2
BITMAP
F0
F0
C0
F8
CC
CC
CC
18
10
ENDCHAR
STARTCHAR 0495
ENCODING 1173
SWIDTH 640 0
DWIDTH 6 0
BBX 4 7 1 -2
BITMAP
E0
80
F0
90
90
10
30
ENDCHAR
STARTCHAR 0496
ENCODING 1174
SWIDTH 1173 0
DWIDTH 11 0
BBX 11 8 0 -1
BITMAP
C460
64C0
3580
1F80
3F80
64C0
C460
0060
ENDCHAR
STARTCHAR 0497
ENCODING 1175
SWIDTH 960 0
DWIDTH 9 0
BBX 8 6 1 -1
BITMAP
92
5C
7C
D6
93
03
ENDCHAR
STARTCHAR 0498
ENCODING 1176
SWIDTH 640 0
DWIDTH 6 0
BBX 5 9 1 -2
BITMAP
F0
18
18
70
18
18
F0
20
60
ENDCHAR
STARTCHAR 0499
ENCODING 1177
SWIDTH 533 0
DWIDTH 5 0
BBX 5 7 0 -2
BITMAP
70
18
70
18
F0
20
60
ENDCHAR
STARTCHAR 049A
ENCODING 1178
SWIDTH 746 0
DWIDTH 7 0
BBX 6 8 1 -1
BITMAP
CC
D8
F0
F0
D0
D8
CC
04
ENDCHAR
STARTCHAR 049B
ENCODING 1179
SWIDTH 640 0
DWIDTH 6 0
BBX 5 6 1 -1
BITMAP
90
A0
E0
B0
98
18
ENDCHAR
STARTCHAR 049C
ENCODING 1180
SWIDTH 746 0
DWIDTH 7 0
BBX 6 7 1 0
BITMAP
CC
F8
F0
F0
F0
F8
CC
ENDCHAR
STARTCHAR 049D
ENCODING 1181
SWIDTH 640 0
DWIDTH 6 0
BBX 5 5 1 0
BITMAP
90
A0
E0
B0
98
ENDCHAR
STARTCHAR 049E
ENCODING 1182
SWIDTH 746 0
DWIDTH 7 0
BBX 7 7 0 0
BITMAP
66
EC
78
78
68
6C
66
ENDCHAR
STARTCHAR 049F
ENCODING 1183
SWIDTH 640 0
DWIDTH 6 0
BBX 6 7 0 0
BITMAP
40
F0
48
50
70
58
4C
ENDCHAR
STARTCHAR 04A0
ENCODING 1184
SWIDTH 960 0
DWIDTH 9 0
BBX 9 7 0 0
BITMAP
F180
F300
1600
1E00
1E00
1300
1180
ENDCHAR
STARTCHAR 04A1
ENCODING 1185
SWIDTH 746 0
DWIDTH 7 0
BBX 7 5 0 0
BITMAP
F6
3C
38
34
36
ENDCHAR
STARTCHAR 04A2
ENCODING 1186
SWIDTH 960 0
DWIDTH 9 0
BBX 7 8 1 -1
BITMAP
CC
CC
CC
FC
CC
CC
CE
02
ENDCHAR
STARTCHAR 04A3
ENCODING 1187
SWIDTH 746 0
DWIDTH 7 0
BBX 6 6 1 -1
BITMAP
90
90
F0
90
9C
0C
ENDCHAR
STARTCHAR 04A4
ENCODING 1188
SWIDTH 1066 0
DWIDTH 10 0
BBX 9 7 1 0
BITMAP
CF80
CF80
CC00
FC00
CC00
CC00
CC00
ENDCHAR
STARTCHAR 04A5
ENCODING 1189
SWIDTH 853 0
DWIDTH 8 0
BBX 7 5 1 0
BITMAP
9E
90
F0
90
90
ENDCHAR
STARTCHAR 04A6
ENCODING 1190
SWIDTH 1173 0
DWIDTH 11 0
BBX 10 9 1 -2
BITMAP
FC00
FC00
CC00
CF80
CCC0
CCC0
CCC0
01C0
0180
ENDCHAR
STARTCHAR 04A7
ENCODING 1191
SWIDTH 960 0
DWIDTH 9 0
BBX 7 7 1 -2
BITMAP
F0
90
9E
92
92
02
06
ENDCHAR
STARTCHAR 04A8
ENCODING 1192
SWIDTH 960 0
DWIDTH 9 0
BBX 7 7 1 0
BITMAP
40
DC
96
96
94
CC
7E
ENDCHAR
STARTCHAR 04A9
ENCODING 1193
SWIDTH 853 0
DWIDTH 8 0
BBX 7 5 1 0
BITMAP
D8
BC
BC
98
FE
ENDCHAR
STARTCHAR 04AA
ENCODING 1194
SWIDTH 746 0
DWIDTH 7 0
BBX 6 9 0 -2
BITMAP
3C
64
40
C0
40
64
3C
08
18
ENDCHAR
STARTCHAR 04AB
ENCODING 1195
SWIDTH 533 0
DWIDTH 5 0
BBX 5 7 0 -2
BITMAP
78
40
C0
40
78
10
30
ENDCHAR
STARTCHAR 04AC
ENCODING 1196
SWIDTH 640 0
DWIDTH 6 0
BBX 6 8 0 -1
BITMAP
FC
FC
30
30
30
30
3C
0C
ENDCHAR
STARTCHAR 04AD
ENCODING 1197
SWIDTH 533 0
DWIDTH 5 0
BBX 5 6 0 -1
BITMAP
F8
20
20
20
38
18
ENDCHAR
STARTCHAR 04AE
ENCODING 1198
SWIDTH 746 0
DWIDTH 7 0
BBX 6 7 0 0
BITMAP
CC
6C
78
30
30
30
30
ENDCHAR
STARTCHAR 04AF
ENCODING 1199
SWIDTH 640 0
DWIDTH 6 0
BBX 6 7 0 -2
BITMAP
CC
48
78
30
30
30
30
ENDCHAR
STARTCHAR 04B0
ENCODING 1200
SWIDTH 746 0
DWIDTH 7 0
BBX 7 7 0 0
BITMAP
C6
4C
78
38
30
78
30
ENDCHAR
STARTCHAR 04B1
ENCODING 1201
SWIDTH 640 0
DWIDTH 6 0
BBX 6 7 0 -2
BITMAP
CC
48
78
30
30
78
30
ENDCHAR
STARTCHAR 04B2
ENCODING 1202
SWIDTH 746 0
DWIDTH 7 0
BBX 7 8 0 -1
BITMAP
C6
6C
28
38
38
6C
46
06
ENDCHAR
STARTCHAR 04B3
ENCODING 1203
SWIDTH 640 0
DWIDTH 6 0
BBX 5 6 1 -1
BITMAP
90
F0
60
F0
98
18
ENDCHAR
STARTCHAR 04B4
ENCODING 1204
SWIDTH 1066 0
DWIDTH 10 0
BBX 10 8 0 -1
BITMAP
FF00
FF00
3300
3300
3300
3300
3FC0
00C0
ENDCHAR
STARTCHAR 04B5
ENCODING 1205
SWIDTH 960 0
DWIDTH 9 0
BBX 9 6 0 -1
BITMAP
FA00
2200
2200
2200
3F80
0180
ENDCHAR
STARTCHAR 04B6
ENCODING 1206
SWIDTH 746 0
DWIDTH 7 0
BBX 7 8 1 -1
BITMAP
88
88
88
F8
08
08
0E
06
ENDCHAR
STARTCHAR 04B7
ENCODING 1207
SWIDTH 640 0
DWIDTH 6 0
BBX 6 6 1 -1
BITMAP
90
90
F0
10
1C
0C
ENDCHAR
STARTCHAR 04B8
ENCODING 1208
SWIDTH 746 0
DWIDTH 7 0
BBX 5 7 1 0
BITMAP
88
88
A8
F8
28
08
08
ENDCHAR
STARTCHAR 04B9
ENCODING 1209
SWIDTH 640 0
DWIDTH 6 0
BBX 4 5 1 0
BITMAP
90
90
F0
10
10
ENDCHAR
STARTCHAR 04BA
ENCODING 1210
SWIDTH 746 0
DWIDTH 7 0
BBX 5 7 1 0
BITMAP
80
80
80
F8
88
88
88
ENDCHAR
STARTCHAR 04BB
ENCODING 1211
SWIDTH 640 0
DWIDTH 6 0
BBX 5 8 1 0
BITMAP
80
80
80
F0
D8
98
98
98
ENDCHAR
STARTCHAR 04BC
ENCODING 1212
SWIDTH 960 0
DWIDTH 9 0
BBX 9 7 0 0
BITMAP
0E00
9F00
F180
7F80
3000
3800
1F00
ENDCHAR
STARTCHAR 04BD
ENCODING 1213
SWIDTH 746 0
DWIDTH 7 0
BBX 7 5 0 0
BITMAP
3C
A6
7E
20
3E
ENDCHAR
STARTCHAR 04BE
ENCODING 1214
SWIDTH 960 0
DWIDTH 9 0
BBX 9 9 0 -2
BITMAP
0E00
9F00
F180
7F80
3000
3800
1F00
0400
0400
ENDCHAR
STARTCHAR 04BF
ENCODING 1215
SWIDTH 746 0
DWIDTH 7 0
BBX 7 6 0 -1
BITMAP
3C
A6
7E
20
3E
08
ENDCHAR
STARTCHAR 04C0
ENCODING 1216
SWIDTH 320 0
DWIDTH 3 0
BBX 2 7 1 0
BITMAP
C0
C0
C0
C0
C0
C0
C0
ENDCHAR
STARTCHAR 04C1
ENCODING 1217
SWIDTH 1173 0
DWIDTH 11 0
BBX 11 9 0 0
BITMAP
0E00
0000
64C0
3480
1500
3F80
3F80
64C0
C460
ENDCHAR
STARTCHAR 04C2
ENCODING 1218
SWIDTH 960 0
DWIDTH 9 0
BBX 7 7 1 0
BITMAP
38
00
D6
7C
7C
D6
92
ENDCHAR
STARTCHAR 04C3
ENCODING 1219
SWIDTH 746 0
DWIDTH 7 0
BBX 6 9 1 -2
BITMAP
CC
D8
F0
F8
CC
CC
CC
18
10
ENDCHAR
STARTCHAR 04C4
ENCODING 1220
SWIDTH 640 0
DWIDTH 6 0
BBX 4 7 1 -2
BITMAP
B0
E0
F0
90
90
10
30
ENDCHAR
STARTCHAR 04C5
ENCODING 1221
SWIDTH 960 0
DWIDTH 9 0
BBX 8 9 0 -2
BITMAP
3E
3E
36
36
26
66
C7
03
06
ENDCHAR
STARTCHAR 04C6
ENCODING 1222
SWIDTH 746 0
DWIDTH 7 0
BBX 7 7 0 -2
BITMAP
38
28
68
68
CE
06
08
ENDCHAR
STARTCHAR 04C7
ENCODING 1223
SWIDTH 853 0
DWIDTH 8 0
BBX 6 9 1 -2
BITMAP
CC
CC
CC
FC
CC
CC
CC
1C
18
ENDCHAR
STARTCHAR 04C8
ENCODING 1224
SWIDTH 640 0
DWIDTH 6 0
BBX 4 7 1 -2
BITMAP
90
90
F0
90
90
10
30
ENDCHAR
STARTCHAR 04C9
ENCODING 1225
SWIDTH 960 0
DWIDTH 9 0
BBX 7 9 1 -2
BITMAP
CC
CC
CC
FC
CC
CC
CE
06
0C
ENDCHAR
STARTCHAR 04CA
ENCODING 1226
SWIDTH 746 0
DWIDTH 7 0
BBX 6 7 1 -2
BITMAP
90
90
F0
90
9C
0C
10
ENDCHAR
STARTCHAR 04CB
ENCODING 1227
SWIDTH 746 0
DWIDTH 7 0
BBX 5 8 1 -1
BITMAP
88
88
88
F8
08
08
38
30
ENDCHAR
STARTCHAR 04CC
ENCODING 1228
SWIDTH 640 0
DWIDTH 6 0
BBX 4 6 1 -1
BITMAP
90
90
F0
10
70
60
ENDCHAR
STARTCHAR 04CD
ENCODING 1229
SWIDTH 1066 0
DWIDTH 10 0
BBX 9 9 1 -2
BITMAP
C600
C600
AA00
AA00
BA00
9200
8380
0100
0200
ENDCHAR
STARTCHAR 04CE
ENCODING 1230
SWIDTH 853 0
DWIDTH 8 0
BBX 7 7 1 -2
BITMAP
CC
DC
FC
AC
8E
06
0C
ENDCHAR
STARTCHAR 04CF
ENCODING 1231
SWIDTH 320 0
DWIDTH 3 0
BBX 1 8 1 0
BITMAP
80
80
80
80
80
80
80
80
ENDCHAR
STARTCHAR 04D0
ENCODING 1232
SWIDTH 746 0
DWIDTH 7 0
BBX 7 8 0 0
BITMAP
38
38
38
28
6C
6C
7C
C6
ENDCHAR
STARTCHAR 04D1
ENCODING 1233
SWIDTH 640 0
DWIDTH 6 0
BBX 5 7 0 0
BITMAP
38
00
78
08
78
C8
78
ENDCHAR
STARTCHAR 04D2
ENCODING 1234
SWIDTH 746 0
DWIDTH 7 0
BBX 7 9 0 0
BITMAP
28
00
38
38
28
6C
6C
7C
C6
ENDCHAR
STARTCHAR 04D3
ENCODING 1235
SWIDTH 640 0
DWIDTH 6 0
BBX 5 7 0 0
BITMAP
30
00
78
08
78
C8
78
ENDCHAR
STARTCHAR 04D4
ENCODING 1236
SWIDTH 1066 0
DWIDTH 10 0
BBX 9 7 0 0
BITMAP
1F80
3C00
2C00
6F80
7C00
4C00
CF80
ENDCHAR
STARTCHAR 04D5
ENCODING 1237
SWIDTH 960 0
DWIDTH 9 0
BBX 9 5 0 0
BITMAP
7700
0D80
7F80
C800
7780
ENDCHAR
STARTCHAR 04D6
ENCODING 1238
SWIDTH 640 0
DWIDTH 6 0
BBX 4 9 1 0
BITMAP
60
00
F0
C0
C0
F0
C0
C0
F0
ENDCHAR
STARTCHAR 04D7
ENCODING 1239
SWIDTH 640 0
DWIDTH 6 0
BBX 6 7 0 0
BITMAP
38
00
78
4C
FC
40
78
ENDCHAR
STARTCHAR 04D8
ENCODING 1240
SWIDTH 853 0
DWIDTH 8 0
BBX 7 7 0 0
BITMAP
7C
46
06
FE
46
66
3C
ENDCHAR
STARTCHAR 04D9
ENCODING 1241
SWIDTH 640 0
DWIDTH 6 0
BBX 6 5 0 0
BITMAP
78
0C
FC
4C
78
ENDCHAR
STARTCHAR 04DA
ENCODING 1242
SWIDTH 853 0
DWIDTH 8 0
BBX 7 9 0 0
BITMAP
28
00
7C
46
06
FE
46
66
3C
ENDCHAR
STARTCHAR 04DB
ENCODING 1243
SWIDTH 640 0
DWIDTH 6 0
BBX 6 7 0 0
BITMAP
70
00
78
0C
FC
4C
78
ENDCHAR
STARTCHAR 04DC
ENCODING 1244
SWIDTH 1173 0
DWIDTH 11 0
BBX 11 9 0 0
BITMAP
0A00
0000
64C0
3480
1500
3F80
3F80
64C0
C460
ENDCHAR
STARTCHAR 04DD
ENCODING 1245
SWIDTH 960 0
DWIDTH 9 0
BBX 7 7 1 0
BITMAP
28
00
D6
7C
7C
D6
92
ENDCHAR
STARTCHAR 04DE
ENCODING 1246
SWIDTH 640 0
DWIDTH 6 0
BBX 5 9 1 0
BITMAP
60
00
F0
18
18
70
18
18
F0
ENDCHAR
STARTCHAR 04DF
ENCODING 1247
SWIDTH 533 0
DWIDTH 5 0
BBX 5 7 0 0
BITMAP
50
00
70
18
70
18
F0
ENDCHAR
STARTCHAR 04E0
ENCODING 1248
SWIDTH 746 0
DWIDTH 7 0
BBX 6 7 1 0
BITMAP
F8
F8
30
30
18
0C
F8
ENDCHAR
STARTCHAR 04E1
ENCODING 1249
SWIDTH 640 0
DWIDTH 6 0
BBX 5 7 0 -2
BITMAP
78
10
30
78
08
98
F0
ENDCHAR
STARTCHAR 04E2
ENCODING 1250
SWIDTH 853 0
DWIDTH 8 0
BBX 6 8 1 0
BITMAP
70
8C
9C
BC
AC
EC
CC
CC
ENDCHAR
STARTCHAR 04E3
ENCODING 1251
SWIDTH 640 0
DWIDTH 6 0
BBX 5 7 1 0
BITMAP
70
00
98
B8
F8
D8
D8
ENDCHAR
STARTCHAR 04E4
ENCODING 1252
SWIDTH 853 0
DWIDTH 8 0
BBX 6 9 1 0
BITMAP
50
00
8C
9C
BC
AC
EC
CC
CC
ENDCHAR
STARTCHAR 04E5
ENCODING 1253
SWIDTH 640 0
DWIDTH 6 0
BBX 5 7 1 0
BITMAP
50
00
98
B8
F8
D8
D8
ENDCHAR
STARTCHAR 04E6
ENCODING 1254
SWIDTH 853 0
DWIDTH 8 0
BBX 7 9 0 0
BITMAP
28
00
3C
66
46
C6
46
66
3C
ENDCHAR
STARTCHAR 04E7
ENCODING 1255
SWIDTH 640 0
DWIDTH 6 0
BBX 6 7 0 0
BITMAP
30
00
78
4C
CC
4C
78
ENDCHAR
STARTCHAR 04E8
ENCODING 1256
SWIDTH 853 0
DWIDTH 8 0
BBX 7 7 0 0
BITMAP
3C
66
46
FE
46
66
3C
ENDCHAR
STARTCHAR 04E9
ENCODING 1257
SWIDTH 640 0
DWIDTH 6 0
BBX 6 5 0 0
BITMAP
78
4C
FC
4C
78
ENDCHAR
STARTCHAR 04EA
ENCODING 1258
SWIDTH 853 0
DWIDTH 8 0
BBX 7 9 0 0
BITMAP
28
00
3C
66
46
FE
46
66
3C
ENDCHAR
STARTCHAR 04EB
ENCODING 1259
SWIDTH 640 0
DWIDTH 6 0
BBX 6 7 0 0
BITMAP
30
00
78
4C
FC
4C
78
ENDCHAR
STARTCHAR 04EC
ENCODING 1260
SWIDTH 746 0
DWIDTH 7 0
BBX 5 9 1 0
BITMAP
60
00
E0
F0
18
F8
18
18
F0
ENDCHAR
STARTCHAR 04ED
ENCODING 1261
SWIDTH 533 0
DWIDTH 5 0
BBX 4 7 1 0
BITMAP
A0
00
E0
30
F0
30
E0
ENDCHAR
STARTCHAR 04EE
ENCODING 1262
SWIDTH 746 0
DWIDTH 7 0
BBX 6 8 0 0
BITMAP
38
C4
6C
6C
38
38
10
70
ENDCHAR
STARTCHAR 04EF
ENCODING 1263
SWIDTH 640 0
DWIDTH 6 0
BBX 6 9 0 -2
BITMAP
30
00
CC
48
78
30
30
30
60
ENDCHAR
STARTCHAR 04F0
ENCODING 1264
SWIDTH 746 0
DWIDTH 7 0
BBX 6 9 0 0
BITMAP
28
00
C4
6C
6C
38
38
10
70
ENDCHAR
STARTCHAR 04F1
ENCODING 1265
SWIDTH 640 0
DWIDTH 6 0
BBX 6 9 0 -2
BITMAP
30
00
CC
48
78
30
30
30
60
ENDCHAR
STARTCHAR 04F2
ENCODING 1266
SWIDTH 746 0
DWIDTH 7 0
BBX 6 9 0 0
BITMAP
28
00
C4
6C
6C
38
38
10
70
ENDCHAR
STARTCHAR 04F3
ENCODING 1267
SWIDTH 640 0
DWIDTH 6 0
BBX 6 10 0 -2
BITMAP
28
50
00
CC
48
78
30
30
30
60
ENDCHAR
STARTCHAR 04F4
ENCODING 1268
SWIDTH 746 0
DWIDTH 7 0
BBX 5 9 1 0
BITMAP
50
00
88
88
C8
F8
08
08
08
ENDCHAR
STARTCHAR 04F5
ENCODING 1269
SWIDTH 640 0
DWIDTH 6 0
BBX 4 7 1 0
BITMAP
60
00
90
90
F0
10
10
ENDCHAR
STARTCHAR 04F6
ENCODING 1270
SWIDTH 640 0
DWIDTH 6 0
BBX 4 8 1 -1
BITMAP
F0
F0
C0
C0
C0
C0
E0
20
ENDCHAR
STARTCHAR 04F7
ENCODING 1271
SWIDTH 533 0
DWIDTH 5 0
BBX 3 6 1 -1
BITMAP
E0
80
80
80
E0
60
ENDCHAR
STARTCHAR 04F8
ENCODING 1272
SWIDTH 960 0
DWIDTH 9 0
BBX 8 9 1 0
BITMAP
28
00
C3
C3
C3
FB
DB
DB
FB
ENDCHAR
STARTCHAR 04F9
ENCODING 1273
SWIDTH 853 0
DWIDTH 8 0
BBX 6 7 1 0
BITMAP
30
00
84
84
F4
94
F4
ENDCHAR
STARTCHAR 04FA
ENCODING 1274
SWIDTH 640 0
DWIDTH 6 0
BBX 6 9 0 -2
BITMAP
7C
7C
60
F8
60
60
70
10
30
ENDCHAR
STARTCHAR 04FB
ENCODING 1275
SWIDTH 533 0
DWIDTH 5 0
BBX 5 7 0 -2
BITMAP
78
60
F0
60
70
30
70
ENDCHAR
STARTCHAR 04FC
ENCODING 1276
SWIDTH 746 0
DWIDTH 7 0
BBX 7 9 0 -2
BITMAP
C6
6C
28
38
38
6C
44
0E
0C
ENDCHAR
STARTCHAR 04FD
ENCODING 1277
SWIDTH 640 0
DWIDTH 6 0
BBX 5 7 1 -2
BITMAP
90
F0
60
F0
90
18
30
ENDCHAR
STARTCHAR 04FE
ENCODING 1278
SWIDTH 746 0
DWIDTH 7 0
BBX 7 7 0 0
BITMAP
C6
6C
28
7C
38
6C
44
ENDCHAR
STARTCHAR 04FF
ENCODING 1279
SWIDTH 640 0
DWIDTH 6 0
BBX 4 5 1 0
BITMAP
90
F0
F0
F0
90
ENDCHAR
STARTCHAR 0500
ENCODING 1280
SWIDTH 746 0
DWIDTH 7 0
BBX 5 7 1 0
BITMAP
18
18
18
F8
98
98
F8
ENDCHAR
STARTCHAR 0501
ENCODING 1281
SWIDTH 533 0
DWIDTH 5 0
BBX 5 5 0 0
BITMAP
18
18
78
D8
78
ENDCHAR
STARTCHAR 0502
ENCODING 1282
SWIDTH 1066 0
DWIDTH 10 0
BBX 9 7 1 0
BITMAP
1800
1800
1980
F980
9980
9980
EF00
ENDCHAR
STARTCHAR 0503
ENCODING 1283
SWIDTH 853 0
DWIDTH 8 0
BBX 8 5 0 0
BITMAP
18
18
7B
DB
6E
ENDCHAR
STARTCHAR 0504
ENCODING 1284
SWIDTH 1066 0
DWIDTH 10 0
BBX 8 7 1 0
BITMAP
E0
B0
11
61
11
1B
0E
ENDCHAR
STARTCHAR 0505
ENCODING 1285
SWIDTH 853 0
DWIDTH 8 0
BBX 7 5 1 0
BITMAP
E0
20
E6
24
3C
ENDCHAR
STARTCHAR 0506
ENCODING 1286
SWIDTH 746 0
DWIDTH 7 0
BBX 6 9 1 -2
BITMAP
E0
B0
10
60
10
18
1C
04
04
ENDCHAR
STARTCHAR 0507
ENCODING 1287
SWIDTH 640 0
DWIDTH 6 0
BBX 5 7 1 -2
BITMAP
E0
20
E0
20
38
18
18
ENDCHAR
STARTCHAR 0508
ENCODING 1288
SWIDTH 1173 0
DWIDTH 11 0
BBX 10 7 0 0
BITMAP
3E00
3E00
3640
3640
2640
66C0
C3C0
ENDCHAR
STARTCHAR 0509
ENCODING 1289
SWIDTH 960 0
DWIDTH 9 0
BBX 8 5 0 0
BITMAP
38
28
69
6D
CF
ENDCHAR
STARTCHAR 050A
ENCODING 1290
SWIDTH 1280 0
DWIDTH 12 0
BBX 10 7 1 0
BITMAP
CC00
CC00
CCC0
FCC0
CCC0
CCC0
C780
ENDCHAR
STARTCHAR 050B
ENCODING 1291
SWIDTH 960 0
DWIDTH 9 0
BBX 7 5 1 0
BITMAP
90
90
F2
9A
9E
ENDCHAR
STARTCHAR 050C
ENCODING 1292
SWIDTH 853 0
DWIDTH 8 0
BBX 7 7 0 0
BITMAP
1C
7C
40
C6
46
66
3C
ENDCHAR
STARTCHAR 050D
ENCODING 1293
SWIDTH 640 0
DWIDTH 6 0
BBX 5 5 0 0
BITMAP
78
40
D8
58
70
ENDCHAR
STARTCHAR 050E
ENCODING 1294
SWIDTH 853 0
DWIDTH 8 0
BBX 8 7 0 0
BITMAP
FC
FC
33
33
33
32
1E
ENDCHAR
STARTCHAR 050F
ENCODING 1295
SWIDTH 746 0
DWIDTH 7 0
BBX 6 5 0 0
BITMAP
F8
20
24
34
3C
ENDCHAR
STARTCHAR 0510
ENCODING 1296
SWIDTH 640 0
DWIDTH 6 0
BBX 5 7 1 0
BITMAP
F0
C0
C0
60
80
80
F8
ENDCHAR
STARTCHAR 0511
ENCODING 1297
SWIDTH 533 0
DWIDTH 5 0
BBX 4 5 0 0
BITMAP
70
40
70
C0
70
ENDCHAR
STARTCHAR 0512
ENCODING 1298
SWIDTH 746 0
DWIDTH 7 0
BBX 7 9 0 -2
BITMAP
3E
3E
36
36
36
66
C6
0C
0C
ENDCHAR
STARTCHAR 0513
ENCODING 1299
SWIDTH 746 0
DWIDTH 7 0
BBX 6 7 0 -2
BITMAP
3C
2C
2C
6C
CC
0C
18
ENDCHAR
STARTCHAR 0514
ENCODING 1300
SWIDTH 1280 0
DWIDTH 12 0
BBX 11 7 0 0
BITMAP
3E60
3E60
33C0
3180
31C0
6340
C660
ENDCHAR
STARTCHAR 0515
ENCODING 1301
SWIDTH 1066 0
DWIDTH 10 0
BBX 9 5 0 0
BITMAP
3D80
2700
2300
6700
CD80
ENDCHAR
STARTCHAR 0516
ENCODING 1302
SWIDTH 1066 0
DWIDTH 10 0
BBX 8 7 1 0
BITMAP
E3
FB
DE
FC
F6
C2
C3
ENDCHAR
STARTCHAR 0517
ENCODING 1303
SWIDTH 960 0
DWIDTH 9 0
BBX 7 7 1 -2
BITMAP
B2
DE
9C
DE
B2
80
80
ENDCHAR
STARTCHAR 0518
ENCODING 1304
SWIDTH 1066 0
DWIDTH 10 0
BBX 8 7 1 0
BITMAP
3F
FF
D8
FF
78
D8
DF
ENDCHAR
STARTCHAR 0519
ENCODING 1305
SWIDTH 960 0
DWIDTH 9 0
BBX 8 5 1 0
BITMAP
FE
B3
FF
D0
9E
ENDCHAR
STARTCHAR 051A
ENCODING 1306
SWIDTH 853 0
DWIDTH 8 0
BBX 7 8 0 -1
BITMAP
3C
66
46
C6
46
66
3C
04
ENDCHAR
STARTCHAR 051B
ENCODING 1307
SWIDTH 640 0
DWIDTH 6 0
BBX 6 7 0 -2
BITMAP
7C
4C
CC
4C
7C
0C
0C
ENDCHAR
STARTCHAR 051C
ENCODING 1308
SWIDTH 1066 0
DWIDTH 10 0
BBX 10 7 0 0
BITMAP
CCC0
4C80
4D80
7F80
7380
7300
3300
ENDCHAR
STARTCHAR 051D
ENCODING 1309
SWIDTH 853 0
DWIDTH 8 0
BBX 8 5 0 0
BITMAP
DB
5B
5A
76
66
ENDCHAR
STARTCHAR 051E
ENCODING 1310
SWIDTH 746 0
DWIDTH 7 0
BBX 6 7 1 0
BITMAP
CC
F8
F8
F0
D0
D8
CC
ENDCHAR
STARTCHAR 051F
ENCODING 1311
SWIDTH 640 0
DWIDTH 6 0
BBX 5 5 1 0
BITMAP
B0
B0
E0
B0
98
ENDCHAR
STARTCHAR 0520
ENCODING 1312
SWIDTH 1173 0
DWIDTH 11 0
BBX 11 9 0 -2
BITMAP
3E00
3E00
3600
37C0
3660
6660
C660
00C0
00C0
ENDCHAR
STARTCHAR 0521
ENCODING 1313
SWIDTH 1066 0
DWIDTH 10 0
BBX 9 7 0 -2
BITMAP
3C00
2C00
2F00
6D80
CD80
0180
0300
ENDCHAR
STARTCHAR 0522
ENCODING 1314
SWIDTH 1173 0
DWIDTH 11 0
BBX 10 9 1 -2
BITMAP
CC00
CC00
CC00
FF80
CCC0
CCC0
CCC0
01C0
0180
ENDCHAR
STARTCHAR 0523
ENCODING 1315
SWIDTH 960 0
DWIDTH 9 0
BBX 7 7 1 -2
BITMAP
90
90
FE
92
92
02
06
ENDCHAR
STARTCHAR 0524
ENCODING 1316
SWIDTH 960 0
DWIDTH 9 0
BBX 7 8 1 -1
BITMAP
FC
FC
CC
CC
CC
CC
CE
02
ENDCHAR
STARTCHAR 0525
ENCODING 1317
SWIDTH 746 0
DWIDTH 7 0
BBX 6 6 1 -1
BITMAP
F0
90
90
90
9C
0C
ENDCHAR
STARTCHAR 0531
ENCODING 1329
SWIDTH 746 0
DWIDTH 7 0
BBX 5 7 1 0
BITMAP
88
88
88
88
A8
F8
78
ENDCHAR
STARTCHAR 0532
ENCODING 1330
SWIDTH 746 0
DWIDTH 7 0
BBX 5 7 1 0
BITMAP
60
F8
98
80
F8
80
80
ENDCHAR
STARTCHAR 0533
ENCODING 1331
SWIDTH 746 0
DWIDTH 7 0
BBX 7 7 0 0
BITMAP
30
78
C8
C8
7E
08
08
ENDCHAR
STARTCHAR 0534
ENCODING 1332
SWIDTH 746 0
DWIDTH 7 0
BBX 7 7 0 0
BITMAP
30
F8
C8
08
0E
08
08
ENDCHAR
STARTCHAR 0535
ENCODING 1333
SWIDTH 746 0
DWIDTH 7 0
BBX 5 7 1 0
BITMAP
80
80
F8
80
98
98
F0
ENDCHAR
STARTCHAR 0536
ENCODING 1334
SWIDTH 746 0
DWIDTH 7 0
BBX 5 7 1 0
BITMAP
60
D8
98
18
18
B0
F8
ENDCHAR
STARTCHAR 0537
ENCODING 1335
SWIDTH 640 0
DWIDTH 6 0
BBX 5 7 1 0
BITMAP
80
80
F8
80
80
80
F0
ENDCHAR
STARTCHAR 0538
ENCODING 1336
SWIDTH 640 0
DWIDTH 6 0
BBX 5 7 1 0
BITMAP
60
F8
98
80
80
80
F8
ENDCHAR
STARTCHAR 0539
ENCODING 1337
SWIDTH 853 0
DWIDTH 8 0
BBX 7 7 1 0
BITMAP
30
FC
84
9E
B4
B4
9C
ENDCHAR
STARTCHAR 053A
ENCODING 1338
SWIDTH 746 0
DWIDTH 7 0
BBX 7 7 0 0
BITMAP
08
08
7E
C8
C8
C8
78
ENDCHAR
STARTCHAR 053B
ENCODING 1339
SWIDTH 640 0
DWIDTH 6 0
BBX 5 7 1 0
BITMAP
80
80
F0
D8
98
80
80
ENDCHAR
STARTCHAR 053C
ENCODING 1340
SWIDTH 533 0
DWIDTH 5 0
BBX 4 7 1 0
BITMAP
80
80
80
80
80
80
F0
ENDCHAR
STARTCHAR 053D
ENCODING 1341
SWIDTH 960 0
DWIDTH 9 0
BBX 7 7 1 0
BITMAP
80
80
F6
B6
B6
96
9C
ENDCHAR
STARTCHAR 053E
ENCODING 1342
SWIDTH 746 0
DWIDTH 7 0
BBX 5 7 1 0
BITMAP
98
E8
F8
C8
88
C8
70
ENDCHAR
STARTCHAR 053F
ENCODING 1343
SWIDTH 640 0
DWIDTH 6 0
BBX 5 7 1 0
BITMAP
80
80
98
98
F8
18
18
ENDCHAR
STARTCHAR 0540
ENCODING 1344
SWIDTH 640 0
DWIDTH 6 0
BBX 5 7 0 0
BITMAP
30
18
38
60
C0
F8
18
ENDCHAR
STARTCHAR 0541
ENCODING 1345
SWIDTH 746 0
DWIDTH 7 0
BBX 5 7 1 0
BITMAP
60
D8
98
18
F8
B0
F8
ENDCHAR
STARTCHAR 0542
ENCODING 1346
SWIDTH 640 0
DWIDTH 6 0
BBX 6 7 0 0
BITMAP
30
F8
C8
08
08
08
0C
ENDCHAR
STARTCHAR 0543
ENCODING 1347
SWIDTH 640 0
DWIDTH 6 0
BBX 6 7 0 0
BITMAP
60
38
30
78
58
CC
FC
ENDCHAR
STARTCHAR 0544
ENCODING 1348
SWIDTH 746 0
DWIDTH 7 0
BBX 6 7 1 0
BITMAP
9C
9C
98
98
98
98
F0
ENDCHAR
STARTCHAR 0545
ENCODING 1349
SWIDTH 640 0
DWIDTH 6 0
BBX 5 7 1 0
BITMAP
60
D0
10
F0
18
98
F0
ENDCHAR
STARTCHAR 0546
ENCODING 1350
SWIDTH 640 0
DWIDTH 6 0
BBX 6 7 0 0
BITMAP
E0
E0
60
60
64
64
3C
ENDCHAR
STARTCHAR 0547
ENCODING 1351
SWIDTH 640 0
DWIDTH 6 0
BBX 5 7 1 0
BITMAP
E0
F8
D8
80
98
98
F0
ENDCHAR
STARTCHAR 0548
ENCODING 1352
SWIDTH 746 0
DWIDTH 7 0
BBX 5 7 1 0
BITMAP
60
F8
98
98
98
98
98
ENDCHAR
STARTCHAR 0549
ENCODING 1353
SWIDTH 640 0
DWIDTH 6 0
BBX 6 7 0 0
BITMAP
30
78
CC
0C
48
70
30
ENDCHAR
STARTCHAR 054A
ENCODING 1354
SWIDTH 853 0
DWIDTH 8 0
BBX 7 7 0 0
BITMAP
38
7E
D6
12
12
02
02
ENDCHAR
STARTCHAR 054B
ENCODING 1355
SWIDTH 640 0
DWIDTH 6 0
BBX 5 7 1 0
BITMAP
60
D0
98
F8
38
B0
F8
ENDCHAR
STARTCHAR 054C
ENCODING 1356
SWIDTH 746 0
DWIDTH 7 0
BBX 6 7 1 0
BITMAP
60
F8
98
98
9C
98
98
ENDCHAR
STARTCHAR 054D
ENCODING 1357
SWIDTH 746 0
DWIDTH 7 0
BBX 5 7 1 0
BITMAP
C8
C8
C8
C8
C8
C8
78
ENDCHAR
STARTCHAR 054E
ENCODING 1358
SWIDTH 640 0
DWIDTH 6 0
BBX 6 7 0 0
BITMAP
08
08
08
C8
78
08
0C
ENDCHAR
STARTCHAR 054F
ENCODING 1359
SWIDTH 640 0
DWIDTH 6 0
BBX 5 7 1 0
BITMAP
60
F0
80
F0
18
98
F0
ENDCHAR
STARTCHAR 0550
ENCODING 1360
SWIDTH 640 0
DWIDTH 6 0
BBX 5 7 1 0
BITMAP
60
F8
98
80
80
80
80
ENDCHAR
STARTCHAR 0551
ENCODING 1361
SWIDTH 640 0
DWIDTH 6 0
BBX 5 7 1 0
BITMAP
60
D0
90
F0
18
98
F0
ENDCHAR
STARTCHAR 0552
ENCODING 1362
SWIDTH 533 0
DWIDTH 5 0
BBX 4 7 1 0
BITMAP
80
80
F0
80
80
80
80
ENDCHAR
STARTCHAR 0553
ENCODING 1363
SWIDTH 853 0
DWIDTH 8 0
BBX 7 7 0 0
BITMAP
18
3C
FE
DA
DA
7E
18
ENDCHAR
STARTCHAR 0554
ENCODING 1364
SWIDTH 640 0
DWIDTH 6 0
BBX 6 7 0 0
BITMAP
30
6C
4C
6C
78
FC
40
ENDCHAR
STARTCHAR 0555
ENCODING 1365
SWIDTH 746 0
DWIDTH 7 0
BBX 7 7 0 0
BITMAP
3C
66
46
C6
46
66
3C
ENDCHAR
STARTCHAR 0556
ENCODING 1366
SWIDTH 853 0
DWIDTH 8 0
BBX 7 7 1 0
BITMAP
70
B0
F8
3C
36
B4
FC
ENDCHAR
STARTCHAR 0559
ENCODING 1369
SWIDTH 320 0
DWIDTH 3 0
BBX 1 2 1 4
BITMAP
80
80
ENDCHAR
STARTCHAR 055A
ENCODING 1370
SWIDTH 320 0
DWIDTH 3 0
BBX 1 3 1 4
BITMAP
80
80
80
ENDCHAR
STARTCHAR 055B
ENCODING 1371
SWIDTH 320 0
DWIDTH 3 0
BBX 2 1 0 6
BITMAP
C0
ENDCHAR
STARTCHAR 055C
ENCODING 1372
SWIDTH 320 0
DWIDTH 3 0
BBX 3 3 0 5
BITMAP
20
E0
80
ENDCHAR
STARTCHAR 055D
ENCODING 1373
SWIDTH 320 0
DWIDTH 3 0
BBX 2 2 0 6
BITMAP
C0
40
ENDCHAR
STARTCHAR 055E
ENCODING 1374
SWIDTH 426 0
DWIDTH 4 0
BBX 4 3 0 5
BITMAP
70
90
B0
ENDCHAR
STARTCHAR 055F
ENCODING 1375
SWIDTH 426 0
DWIDTH 4 0
BBX 3 2 0 6
BITMAP
40
E0
ENDCHAR
STARTCHAR 0561
ENCODING 1377
SWIDTH 853 0
DWIDTH 8 0
BBX 7 5 1 0
BITMAP
B6
B6
B6
B6
DE
ENDCHAR
STARTCHAR 0562
ENCODING 1378
SWIDTH 640 0
DWIDTH 6 0
BBX 4 7 1 -2
BITMAP
F0
90
90
80
F0
80
80
ENDCHAR
STARTCHAR 0563
ENCODING 1379
SWIDTH 640 0
DWIDTH 6 0
BBX 6 7 0 -2
BITMAP
68
58
C8
C8
7C
08
08
ENDCHAR
STARTCHAR 0564
ENCODING 1380
SWIDTH 640 0
DWIDTH 6 0
BBX 5 7 1 -2
BITMAP
F0
90
90
90
98
10
10
ENDCHAR
STARTCHAR 0565
ENCODING 1381
SWIDTH 640 0
DWIDTH 6 0
BBX 4 7 1 0
BITMAP
80
80
F0
80
90
B0
F0
ENDCHAR
STARTCHAR 0566
ENCODING 1382
SWIDTH 640 0
DWIDTH 6 0
BBX 6 7 0 -2
BITMAP
68
D8
C8
C8
78
08
0C
ENDCHAR
STARTCHAR 0567
ENCODING 1383
SWIDTH 533 0
DWIDTH 5 0
BBX 4 7 1 0
BITMAP
80
80
F0
80
80
80
E0
ENDCHAR
STARTCHAR 0568
ENCODING 1384
SWIDTH 640 0
DWIDTH 6 0
BBX 4 7 1 -2
BITMAP
F0
90
90
90
90
80
F0
ENDCHAR
STARTCHAR 0569
ENCODING 1385
SWIDTH 746 0
DWIDTH 7 0
BBX 6 7 1 -2
BITMAP
F0
98
BC
A8
B8
80
80
ENDCHAR
STARTCHAR 056A
ENCODING 1386
SWIDTH 640 0
DWIDTH 6 0
BBX 6 7 0 0
BITMAP
08
08
7C
C8
C8
C8
70
ENDCHAR
STARTCHAR 056B
ENCODING 1387
SWIDTH 640 0
DWIDTH 6 0
BBX 4 9 1 -2
BITMAP
80
80
F0
90
90
90
90
80
80
ENDCHAR
STARTCHAR 056C
ENCODING 1388
SWIDTH 320 0
DWIDTH 3 0
BBX 3 7 1 -2
BITMAP
80
80
80
80
80
80
E0
ENDCHAR
STARTCHAR 056D
ENCODING 1389
SWIDTH 960 0
DWIDTH 9 0
BBX 7 9 1 -2
BITMAP
80
80
F2
92
92
92
9E
80
80
ENDCHAR
STARTCHAR 056E
ENCODING 1390
SWIDTH 640 0
DWIDTH 6 0
BBX 5 7 0 0
BITMAP
20
60
78
58
C8
C8
78
ENDCHAR
STARTCHAR 056F
ENCODING 1391
SWIDTH 640 0
DWIDTH 6 0
BBX 4 9 1 -2
BITMAP
80
80
90
90
90
B0
F0
10
10
ENDCHAR
STARTCHAR 0570
ENCODING 1392
SWIDTH 640 0
DWIDTH 6 0
BBX 4 7 1 0
BITMAP
80
80
F0
90
90
90
90
ENDCHAR
STARTCHAR 0571
ENCODING 1393
SWIDTH 533 0
DWIDTH 5 0
BBX 5 7 0 0
BITMAP
60
70
30
50
D8
D8
78
ENDCHAR
STARTCHAR 0572
ENCODING 1394
SWIDTH 640 0
DWIDTH 6 0
BBX 5 7 1 -2
BITMAP
F0
90
90
90
90
10
18
ENDCHAR
STARTCHAR 0573
ENCODING 1395
SWIDTH 640 0
DWIDTH 6 0
BBX 4 7 1 0
BITMAP
30
60
E0
B0
90
B0
F0
ENDCHAR
STARTCHAR 0574
ENCODING 1396
SWIDTH 640 0
DWIDTH 6 0
BBX 5 7 1 0
BITMAP
18
10
90
90
90
B0
F0
ENDCHAR
STARTCHAR 0575
ENCODING 1397
SWIDTH 320 0
DWIDTH 3 0
BBX 2 7 0 -2
BITMAP
40
40
40
40
40
40
C0
ENDCHAR
STARTCHAR 0576
ENCODING 1398
SWIDTH 640 0
DWIDTH 6 0
BBX 6 7 -1 0
BITMAP
E0
20
24
24
24
2C
34
ENDCHAR
STARTCHAR 0577
ENCODING 1399
SWIDTH 426 0
DWIDTH 4 0
BBX 4 7 0 -2
BITMAP
F0
90
10
20
60
C0
F0
ENDCHAR
STARTCHAR 0578
ENCODING 1400
SWIDTH 640 0
DWIDTH 6 0
BBX 4 5 1 0
BITMAP
F0
90
90
90
90
ENDCHAR
STARTCHAR 0579
ENCODING 1401
SWIDTH 320 0
DWIDTH 3 0
BBX 3 7 0 -2
BITMAP
40
C0
60
40
C0
C0
E0
ENDCHAR
STARTCHAR 057A
ENCODING 1402
SWIDTH 853 0
DWIDTH 8 0
BBX 7 7 1 -2
BITMAP
B6
B6
B6
B6
DE
06
06
ENDCHAR
STARTCHAR 057B
ENCODING 1403
SWIDTH 533 0
DWIDTH 5 0
BBX 5 7 0 -2
BITMAP
70
D8
58
70
60
C0
78
ENDCHAR
STARTCHAR 057C
ENCODING 1404
SWIDTH 640 0
DWIDTH 6 0
BBX 5 5 1 0
BITMAP
F0
90
90
B0
B8
ENDCHAR
STARTCHAR 057D
ENCODING 1405
SWIDTH 640 0
DWIDTH 6 0
BBX 4 5 1 0
BITMAP
90
90
90
B0
F0
ENDCHAR
STARTCHAR 057E
ENCODING 1406
SWIDTH 640 0
DWIDTH 6 0
BBX 5 9 1 -2
BITMAP
10
10
90
90
90
B0
F0
10
18
ENDCHAR
STARTCHAR 057F
ENCODING 1407
SWIDTH 853 0
DWIDTH 8 0
BBX 7 5 1 0
BITMAP
BC
B6
B6
B6
F6
ENDCHAR
STARTCHAR 0580
ENCODING 1408
SWIDTH 640 0
DWIDTH 6 0
BBX 4 7 1 -2
BITMAP
F0
90
90
90
90
80
80
ENDCHAR
STARTCHAR 0581
ENCODING 1409
SWIDTH 640 0
DWIDTH 6 0
BBX 6 7 0 -2
BITMAP
7C
4C
CC
4C
7C
0C
78
ENDCHAR
STARTCHAR 0582
ENCODING 1410
SWIDTH 426 0
DWIDTH 4 0
BBX 3 5 1 0
BITMAP
80
80
80
80
E0
ENDCHAR
STARTCHAR 0583
ENCODING 1411
SWIDTH 853 0
DWIDTH 8 0
BBX 7 9 1 -2
BITMAP
30
30
BC
B6
B6
B6
F6
30
30
ENDCHAR
STARTCHAR 0584
ENCODING 1412
SWIDTH 640 0
DWIDTH 6 0
BBX 6 7 -1 -2
BITMAP
3C
24
24
24
3C
20
FC
ENDCHAR
STARTCHAR 0585
ENCODING 1413
SWIDTH 640 0
DWIDTH 6 0
BBX 6 5 0 0
BITMAP
78
4C
CC
4C
78
ENDCHAR
STARTCHAR 0586
ENCODING 1414
SWIDTH 746 0
DWIDTH 7 0
BBX 7 9 0 -2
BITMAP
70
50
7C
16
D6
D6
7C
10
10
ENDCHAR
STARTCHAR 0587
ENCODING 1415
SWIDTH 746 0
DWIDTH 7 0
BBX 6 7 1 0
BITMAP
80
80
90
90
90
B0
FC
ENDCHAR
STARTCHAR 0589
ENCODING 1417
SWIDTH 320 0
DWIDTH 3 0
BBX 1 5 1 0
BITMAP
80
80
00
80
80
ENDCHAR
STARTCHAR 058A
ENCODING 1418
SWIDTH 320 0
DWIDTH 3 0
BBX 3 1 0 2
BITMAP
E0
ENDCHAR
STARTCHAR 05B0
ENCODING 1456
SWIDTH 0 0
DWIDTH 0 0
BBX 1 2 3 -2
BITMAP
80
80
ENDCHAR
STARTCHAR 05B1
ENCODING 1457
SWIDTH 0 0
DWIDTH 0 0
BBX 4 2 1 -2
BITMAP
D0
50
ENDCHAR
STARTCHAR 05B2
ENCODING 1458
SWIDTH 0 0
DWIDTH 0 0
BBX 2 1 1 -2
BITMAP
C0
ENDCHAR
STARTCHAR 05B3
ENCODING 1459
SWIDTH 0 0
DWIDTH 0 0
BBX 2 2 1 -2
BITMAP
C0
40
ENDCHAR
STARTCHAR 05B4
ENCODING 1460
SWIDTH 0 0
DWIDTH 0 0
BBX 1 1 3 -2
BITMAP
80
ENDCHAR
STARTCHAR 05B5
ENCODING 1461
SWIDTH 0 0
DWIDTH 0 0
BBX 2 1 2 -2
BITMAP
C0
ENDCHAR
STARTCHAR 05B6
ENCODING 1462
SWIDTH 0 0
DWIDTH 0 0
BBX 2 2 2 -2
BITMAP
C0
40
ENDCHAR
STARTCHAR 05B7
ENCODING 1463
SWIDTH 0 0
DWIDTH 0 0
BBX 3 1 2 -1
BITMAP
E0
ENDCHAR
STARTCHAR 05B8
ENCODING 1464
SWIDTH 0 0
DWIDTH 0 0
BBX 3 2 2 -2
BITMAP
E0
40
ENDCHAR
STARTCHAR 05B9
ENCODING 1465
SWIDTH 0 0
DWIDTH 0 0
BBX 1 1 0 5
BITMAP
80
ENDCHAR
STARTCHAR 05BA
ENCODING 1466
SWIDTH 0 0
DWIDTH 0 0
BBX 1 1 0 5
BITMAP
80
ENDCHAR
STARTCHAR 05BB
ENCODING 1467
SWIDTH 0 0
DWIDTH 0 0
BBX 3 3 2 -3
BITMAP
80
40
20
ENDCHAR
STARTCHAR 05BC
ENCODING 1468
SWIDTH 0 0
DWIDTH 0 0
BBX 1 1 3 2
BITMAP
80
ENDCHAR
STARTCHAR 05BD
ENCODING 1469
SWIDTH 0 0
DWIDTH 0 0
BBX 1 2 3 -2
BITMAP
80
80
ENDCHAR
STARTCHAR 05BE
ENCODING 1470
SWIDTH 426 0
DWIDTH 4 0
BBX 3 1 0 4
BITMAP
E0
ENDCHAR
STARTCHAR 05BF
ENCODING 1471
SWIDTH 0 0
DWIDTH 0 0
BBX 2 1 2 5
BITMAP
C0
ENDCHAR
STARTCHAR 05C0
ENCODING 1472
SWIDTH 320 0
DWIDTH 3 0
BBX 1 7 1 -1
BITMAP
80
80
80
80
80
80
80
ENDCHAR
STARTCHAR 05C1
ENCODING 1473
SWIDTH 0 0
DWIDTH 0 0
BBX 0 0 7 5
BITMAP
ENDCHAR
STARTCHAR 05C2
ENCODING 1474
SWIDTH 0 0
DWIDTH 0 0
BBX 0 0 1 5
BITMAP
ENDCHAR
STARTCHAR 05C3
ENCODING 1475
SWIDTH 320 0
DWIDTH 3 0
BBX 1 5 1 0
BITMAP
80
80
00
80
80
ENDCHAR
STARTCHAR 05C6
ENCODING 1478
SWIDTH 426 0
DWIDTH 4 0
BBX 3 5 1 0
BITMAP
E0
C0
80
80
E0
ENDCHAR
STARTCHAR 05C7
ENCODING 1479
SWIDTH 0 0
DWIDTH 0 0
BBX 3 2 2 -2
BITMAP
E0
40
ENDCHAR
STARTCHAR 05D0
ENCODING 1488
SWIDTH 746 0
DWIDTH 7 0
BBX 5 5 1 0
BITMAP
D8
58
F0
B0
90
ENDCHAR
STARTCHAR 05D1
ENCODING 1489
SWIDTH 533 0
DWIDTH 5 0
BBX 5 5 0 0
BITMAP
F0
10
10
10
F8
ENDCHAR
STARTCHAR 05D2
ENCODING 1490
SWIDTH 426 0
DWIDTH 4 0
BBX 4 5 0 0
BITMAP
E0
20
20
20
F0
ENDCHAR
STARTCHAR 05D3
ENCODING 1491
SWIDTH 533 0
DWIDTH 5 0
BBX 5 5 0 0
BITMAP
F8
10
10
10
10
ENDCHAR
STARTCHAR 05D4
ENCODING 1492
SWIDTH 640 0
DWIDTH 6 0
BBX 4 5 1 0
BITMAP
F0
90
90
90
90
ENDCHAR
STARTCHAR 05D5
ENCODING 1493
SWIDTH 320 0
DWIDTH 3 0
BBX 1 5 1 0
BITMAP
80
80
80
80
80
ENDCHAR
STARTCHAR 05D6
ENCODING 1494
SWIDTH 426 0
DWIDTH 4 0
BBX 3 5 0 0
BITMAP
E0
40
40
40
40
ENDCHAR
STARTCHAR 05D7
ENCODING 1495
SWIDTH 640 0
DWIDTH 6 0
BBX 4 5 1 0
BITMAP
F0
90
90
90
90
ENDCHAR
STARTCHAR 05D8
ENCODING 1496
SWIDTH 640 0
DWIDTH 6 0
BBX 5 5 1 0
BITMAP
B0
98
98
98
F0
ENDCHAR
STARTCHAR 05D9
ENCODING 1497
SWIDTH 320 0
DWIDTH 3 0
BBX 1 4 1 1
BITMAP
80
80
80
80
ENDCHAR
STARTCHAR 05DA
ENCODING 1498
SWIDTH 533 0
DWIDTH 5 0
BBX 4 7 0 -2
BITMAP
F0
10
10
10
10
10
10
ENDCHAR
STARTCHAR 05DB
ENCODING 1499
SWIDTH 533 0
DWIDTH 5 0
BBX 5 5 0 0
BITMAP
F0
10
18
10
F0
ENDCHAR
STARTCHAR 05DC
ENCODING 1500
SWIDTH 533 0
DWIDTH 5 0
BBX 5 6 0 0
BITMAP
C0
F8
18
30
30
20
ENDCHAR
STARTCHAR 05DD
ENCODING 1501
SWIDTH 640 0
DWIDTH 6 0
BBX 4 5 1 0
BITMAP
F0
90
90
90
F0
ENDCHAR
STARTCHAR 05DE
ENCODING 1502
SWIDTH 746 0
DWIDTH 7 0
BBX 5 5 1 0
BITMAP
B0
D8
D8
98
B8
ENDCHAR
STARTCHAR 05DF
ENCODING 1503
SWIDTH 320 0
DWIDTH 3 0
BBX 1 7 1 -2
BITMAP
80
80
80
80
80
80
80
ENDCHAR
STARTCHAR 05E0
ENCODING 1504
SWIDTH 426 0
DWIDTH 4 0
BBX 3 5 0 0
BITMAP
E0
20
20
20
E0
ENDCHAR
STARTCHAR 05E1
ENCODING 1505
SWIDTH 640 0
DWIDTH 6 0
BBX 5 5 1 0
BITMAP
F0
98
98
90
70
ENDCHAR
STARTCHAR 05E2
ENCODING 1506
SWIDTH 640 0
DWIDTH 6 0
BBX 5 6 0 -1
BITMAP
48
48
68
78
30
C0
ENDCHAR
STARTCHAR 05E3
ENCODING 1507
SWIDTH 640 0
DWIDTH 6 0
BBX 4 7 1 -2
BITMAP
F0
90
D0
10
10
10
10
ENDCHAR
STARTCHAR 05E4
ENCODING 1508
SWIDTH 640 0
DWIDTH 6 0
BBX 4 5 1 0
BITMAP
F0
90
D0
10
F0
ENDCHAR
STARTCHAR 05E5
ENCODING 1509
SWIDTH 640 0
DWIDTH 6 0
BBX 5 7 0 -2
BITMAP
D8
78
30
20
20
20
20
ENDCHAR
STARTCHAR 05E6
ENCODING 1510
SWIDTH 640 0
DWIDTH 6 0
BBX 5 5 0 0
BITMAP
48
68
38
10
F8
ENDCHAR
STARTCHAR 05E7
ENCODING 1511
SWIDTH 746 0
DWIDTH 7 0
BBX 5 7 1 -2
BITMAP
F8
18
90
B0
B0
80
80
ENDCHAR
STARTCHAR 05E8
ENCODING 1512
SWIDTH 533 0
DWIDTH 5 0
BBX 5 5 0 0
BITMAP
F0
10
18
18
18
ENDCHAR
STARTCHAR 05E9
ENCODING 1513
SWIDTH 746 0
DWIDTH 7 0
BBX 7 5 0 0
BITMAP
D6
D4
F4
4C
78
ENDCHAR
STARTCHAR 05EA
ENCODING 1514
SWIDTH 640 0
DWIDTH 6 0
BBX 5 5 0 0
BITMAP
F8
48
48
48
C8
ENDCHAR
STARTCHAR 05F0
ENCODING 1520
SWIDTH 640 0
DWIDTH 6 0
BBX 4 5 1 0
BITMAP
90
90
90
90
90
ENDCHAR
STARTCHAR 05F1
ENCODING 1521
SWIDTH 533 0
DWIDTH 5 0
BBX 4 5 1 0
BITMAP
B0
B0
B0
B0
30
ENDCHAR
STARTCHAR 05F2
ENCODING 1522
SWIDTH 533 0
DWIDTH 5 0
BBX 3 4 1 1
BITMAP
A0
A0
A0
A0
ENDCHAR
STARTCHAR 05F3
ENCODING 1523
SWIDTH 426 0
DWIDTH 4 0
BBX 2 2 1 3
BITMAP
40
80
ENDCHAR
STARTCHAR 05F4
ENCODING 1524
SWIDTH 640 0
DWIDTH 6 0
BBX 4 2 1 3
BITMAP
50
A0
ENDCHAR
STARTCHAR 0606
ENCODING 1542
SWIDTH 640 0
DWIDTH 6 0
BBX 6 8 0 0
BITMAP
B8
90
50
40
4C
30
30
10
ENDCHAR
STARTCHAR 0607
ENCODING 1543
SWIDTH 640 0
DWIDTH 6 0
BBX 6 8 0 0
BITMAP
98
90
60
50
4C
30
30
10
ENDCHAR
STARTCHAR 0609
ENCODING 1545
SWIDTH 853 0
DWIDTH 8 0
BBX 6 6 1 0
BITMAP
90
A0
20
40
80
94
ENDCHAR
STARTCHAR 060A
ENCODING 1546
SWIDTH 1066 0
DWIDTH 10 0
BBX 9 6 1 0
BITMAP
9000
A000
2000
4000
8000
9480
ENDCHAR
STARTCHAR 060C
ENCODING 1548
SWIDTH 320 0
DWIDTH 3 0
BBX 2 3 1 0
BITMAP
40
C0
80
ENDCHAR
STARTCHAR 0615
ENCODING 1557
SWIDTH 0 0
DWIDTH 0 0
BBX 2 2 1 6
BITMAP
80
C0
ENDCHAR
STARTCHAR 061B
ENCODING 1563
SWIDTH 426 0
DWIDTH 4 0
BBX 2 6 1 0
BITMAP
C0
80
80
00
80
80
ENDCHAR
STARTCHAR 061F
ENCODING 1567
SWIDTH 533 0
DWIDTH 5 0
BBX 4 7 1 0
BITMAP
60
F0
80
C0
60
60
60
ENDCHAR
STARTCHAR 0621
ENCODING 1569
SWIDTH 533 0
DWIDTH 5 0
BBX 3 4 1 0
BITMAP
E0
80
E0
80
ENDCHAR
STARTCHAR 0622
ENCODING 1570
SWIDTH 320 0
DWIDTH 3 0
BBX 3 9 0 0
BITMAP
80
60
40
40
40
40
40
40
40
ENDCHAR
STARTCHAR 0623
ENCODING 1571
SWIDTH 320 0
DWIDTH 3 0
BBX 1 10 1 0
BITMAP
80
80
00
80
80
80
80
80
80
80
ENDCHAR
STARTCHAR 0624
ENCODING 1572
SWIDTH 640 0
DWIDTH 6 0
BBX 5 8 0 -2
BITMAP
20
30
00
70
58
78
18
F0
ENDCHAR
STARTCHAR 0625
ENCODING 1573
SWIDTH 320 0
DWIDTH 3 0
BBX 1 9 1 -2
BITMAP
80
80
80
80
80
80
80
80
80
ENDCHAR
STARTCHAR 0626
ENCODING 1574
SWIDTH 853 0
DWIDTH 8 0
BBX 7 7 1 -1
BITMAP
40
40
1E
18
84
8C
F8
ENDCHAR
STARTCHAR 0627
ENCODING 1575
SWIDTH 320 0
DWIDTH 3 0
BBX 1 7 1 0
BITMAP
80
80
80
80
80
80
80
ENDCHAR
STARTCHAR 0628
ENCODING 1576
SWIDTH 960 0
DWIDTH 9 0
BBX 7 4 1 -1
BITMAP
82
86
FC
10
ENDCHAR
STARTCHAR 0629
ENCODING 1577
SWIDTH 533 0
DWIDTH 5 0
BBX 5 5 0 0
BITMAP
60
00
70
D8
78
ENDCHAR
STARTCHAR 062A
ENCODING 1578
SWIDTH 960 0
DWIDTH 9 0
BBX 7 4 1 0
BITMAP
30
82
86
FC
ENDCHAR
STARTCHAR 062B
ENCODING 1579
SWIDTH 960 0
DWIDTH 9 0
BBX 7 5 1 0
BITMAP
10
30
82
86
FC
ENDCHAR
STARTCHAR 062C
ENCODING 1580
SWIDTH 640 0
DWIDTH 6 0
BBX 5 6 1 -2
BITMAP
F8
70
C0
90
C0
78
ENDCHAR
STARTCHAR 062D
ENCODING 1581
SWIDTH 640 0
DWIDTH 6 0
BBX 5 6 1 -2
BITMAP
F8
70
C0
80
C0
78
ENDCHAR
STARTCHAR 062E
ENCODING 1582
SWIDTH 640 0
DWIDTH 6 0
BBX 5 6 1 0
BITMAP
F8
70
C0
80
C0
78
ENDCHAR
STARTCHAR 062F
ENCODING 1583
SWIDTH 533 0
DWIDTH 5 0
BBX 3 4 1 0
BITMAP
40
60
20
E0
ENDCHAR
STARTCHAR 0630
ENCODING 1584
SWIDTH 533 0
DWIDTH 5 0
BBX 3 6 1 0
BITMAP
40
00
40
60
20
E0
ENDCHAR
STARTCHAR 0631
ENCODING 1585
SWIDTH 533 0
DWIDTH 5 0
BBX 5 4 0 -2
BITMAP
18
18
30
E0
ENDCHAR
STARTCHAR 0632
ENCODING 1586
SWIDTH 533 0
DWIDTH 5 0
BBX 5 6 0 -2
BITMAP
10
00
18
18
30
E0
ENDCHAR
STARTCHAR 0633
ENCODING 1587
SWIDTH 1280 0
DWIDTH 12 0
BBX 11 5 1 -2
BITMAP
1B60
CB60
8FC0
9800
F000
ENDCHAR
STARTCHAR 0634
ENCODING 1588
SWIDTH 1280 0
DWIDTH 12 0
BBX 11 8 1 -2
BITMAP
0200
0400
0000
1B60
CB60
8FC0
9800
F000
ENDCHAR
STARTCHAR 0635
ENCODING 1589
SWIDTH 1280 0
DWIDTH 12 0
BBX 10 5 1 -2
BITMAP
03C0
CE40
8FC0
9800
F000
ENDCHAR
STARTCHAR 0636
ENCODING 1590
SWIDTH 1280 0
DWIDTH 12 0
BBX 10 6 1 -2
BITMAP
0400
03C0
CE40
8FC0
9800
F000
ENDCHAR
STARTCHAR 0637
ENCODING 1591
SWIDTH 960 0
DWIDTH 9 0
BBX 8 7 1 0
BITMAP
60
60
60
60
6E
73
FE
ENDCHAR
STARTCHAR 0638
ENCODING 1592
SWIDTH 960 0
DWIDTH 9 0
BBX 8 7 1 0
BITMAP
60
60
68
60
6E
73
FE
ENDCHAR
STARTCHAR 0639
ENCODING 1593
SWIDTH 640 0
DWIDTH 6 0
BBX 5 7 1 -2
BITMAP
60
C0
F0
E0
80
C0
78
ENDCHAR
STARTCHAR 063A
ENCODING 1594
SWIDTH 640 0
DWIDTH 6 0
BBX 5 8 1 -2
BITMAP
40
60
C0
F0
E0
80
C0
78
ENDCHAR
STARTCHAR 0640
ENCODING 1600
SWIDTH 320 0
DWIDTH 3 0
BBX 3 1 0 0
BITMAP
E0
ENDCHAR
STARTCHAR 0641
ENCODING 1601
SWIDTH 1066 0
DWIDTH 10 0
BBX 9 6 1 0
BITMAP
0200
0000
0700
0780
8380
FF00
ENDCHAR
STARTCHAR 0642
ENCODING 1602
SWIDTH 853 0
DWIDTH 8 0
BBX 7 8 0 -2
BITMAP
0C
00
1E
1E
42
C6
4E
78
ENDCHAR
STARTCHAR 0643
ENCODING 1603
SWIDTH 853 0
DWIDTH 8 0
BBX 6 7 1 0
BITMAP
04
04
24
14
24
8C
FC
ENDCHAR
STARTCHAR 0644
ENCODING 1604
SWIDTH 853 0
DWIDTH 8 0
BBX 6 8 1 -2
BITMAP
0C
0C
0C
0C
0C
0C
8C
F8
ENDCHAR
STARTCHAR 0645
ENCODING 1605
SWIDTH 746 0
DWIDTH 7 0
BBX 5 5 1 -2
BITMAP
78
78
B0
80
80
ENDCHAR
STARTCHAR 0646
ENCODING 1606
SWIDTH 853 0
DWIDTH 8 0
BBX 6 5 1 -1
BITMAP
20
0C
8C
8C
F8
ENDCHAR
STARTCHAR 0647
ENCODING 1607
SWIDTH 533 0
DWIDTH 5 0
BBX 5 3 0 0
BITMAP
70
D8
78
ENDCHAR
STARTCHAR 0648
ENCODING 1608
SWIDTH 640 0
DWIDTH 6 0
BBX 5 5 0 -2
BITMAP
70
58
78
18
F0
ENDCHAR
STARTCHAR 0649
ENCODING 1609
SWIDTH 853 0
DWIDTH 8 0
BBX 7 5 1 -1
BITMAP
1E
18
84
8C
F8
ENDCHAR
STARTCHAR 064A
ENCODING 1610
SWIDTH 853 0
DWIDTH 8 0
BBX 7 6 1 -2
BITMAP
1E
18
84
8C
F8
30
ENDCHAR
STARTCHAR 064B
ENCODING 1611
SWIDTH 0 0
DWIDTH 0 0
BBX 2 2 1 5
BITMAP
C0
C0
ENDCHAR
STARTCHAR 064C
ENCODING 1612
SWIDTH 0 0
DWIDTH 0 0
BBX 3 3 1 5
BITMAP
40
E0
80
ENDCHAR
STARTCHAR 064D
ENCODING 1613
SWIDTH 0 0
DWIDTH 0 0
BBX 3 2 1 -2
BITMAP
E0
E0
ENDCHAR
STARTCHAR 064E
ENCODING 1614
SWIDTH 0 0
DWIDTH 0 0
BBX 2 1 1 6
BITMAP
C0
ENDCHAR
STARTCHAR 064F
ENCODING 1615
SWIDTH 0 0
DWIDTH 0 0
BBX 3 3 1 5
BITMAP
40
60
80
ENDCHAR
STARTCHAR 0650
ENCODING 1616
SWIDTH 0 0
DWIDTH 0 0
BBX 3 1 1 -1
BITMAP
E0
ENDCHAR
STARTCHAR 0651
ENCODING 1617
SWIDTH 0 0
DWIDTH 0 0
BBX 3 3 1 5
BITMAP
60
E0
80
ENDCHAR
STARTCHAR 0652
ENCODING 1618
SWIDTH 0 0
DWIDTH 0 0
BBX 2 2 1 5
BITMAP
C0
C0
ENDCHAR
STARTCHAR 0653
ENCODING 1619
SWIDTH 0 0
DWIDTH 0 0
BBX 2 1 1 6
BITMAP
C0
ENDCHAR
STARTCHAR 0654
ENCODING 1620
SWIDTH 0 0
DWIDTH 0 0
BBX 1 2 2 6
BITMAP
80
80
ENDCHAR
STARTCHAR 0655
ENCODING 1621
SWIDTH 0 0
DWIDTH 0 0
BBX 1 2 2 -2
BITMAP
80
80
ENDCHAR
STARTCHAR 0657
ENCODING 1623
SWIDTH 0 0
DWIDTH 0 0
BBX 2 2 1 6
BITMAP
40
C0
ENDCHAR
STARTCHAR 065A
ENCODING 1626
SWIDTH 533 0
DWIDTH 5 0
BBX 2 1 1 6
BITMAP
C0
ENDCHAR
STARTCHAR 0660
ENCODING 1632
SWIDTH 640 0
DWIDTH 6 0
BBX 2 1 2 2
BITMAP
C0
ENDCHAR
STARTCHAR 0661
ENCODING 1633
SWIDTH 640 0
DWIDTH 6 0
BBX 3 6 1 0
BITMAP
C0
40
60
60
60
60
ENDCHAR
STARTCHAR 0662
ENCODING 1634
SWIDTH 640 0
DWIDTH 6 0
BBX 5 6 0 0
BITMAP
C8
78
40
60
60
60
ENDCHAR
STARTCHAR 0663
ENCODING 1635
SWIDTH 640 0
DWIDTH 6 0
BBX 5 6 0 0
BITMAP
D8
78
40
60
60
60
ENDCHAR
STARTCHAR 0664
ENCODING 1636
SWIDTH 640 0
DWIDTH 6 0
BBX 4 6 1 0
BITMAP
60
C0
E0
C0
80
F0
ENDCHAR
STARTCHAR 0665
ENCODING 1637
SWIDTH 640 0
DWIDTH 6 0
BBX 4 6 1 0
BITMAP
60
E0
B0
B0
B0
E0
ENDCHAR
STARTCHAR 0666
ENCODING 1638
SWIDTH 640 0
DWIDTH 6 0
BBX 5 6 0 0
BITMAP
F0
70
18
18
18
18
ENDCHAR
STARTCHAR 0667
ENCODING 1639
SWIDTH 640 0
DWIDTH 6 0
BBX 5 6 0 0
BITMAP
C8
58
70
70
30
30
ENDCHAR
STARTCHAR 0668
ENCODING 1640
SWIDTH 640 0
DWIDTH 6 0
BBX 5 6 0 0
BITMAP
30
30
70
70
58
D8
ENDCHAR
STARTCHAR 0669
ENCODING 1641
SWIDTH 640 0
DWIDTH 6 0
BBX 5 6 0 0
BITMAP
70
D8
F8
38
18
08
ENDCHAR
STARTCHAR 066A
ENCODING 1642
SWIDTH 640 0
DWIDTH 6 0
BBX 4 6 1 0
BITMAP
90
A0
20
40
80
90
ENDCHAR
STARTCHAR 066B
ENCODING 1643
SWIDTH 320 0
DWIDTH 3 0
BBX 3 4 0 -1
BITMAP
20
20
60
C0
ENDCHAR
STARTCHAR 066C
ENCODING 1644
SWIDTH 320 0
DWIDTH 3 0
BBX 2 3 1 4
BITMAP
C0
80
80
ENDCHAR
STARTCHAR 066D
ENCODING 1645
SWIDTH 533 0
DWIDTH 5 0
BBX 3 4 1 1
BITMAP
40
40
E0
A0
ENDCHAR
STARTCHAR 066E
ENCODING 1646
SWIDTH 960 0
DWIDTH 9 0
BBX 7 3 1 0
BITMAP
82
86
FC
ENDCHAR
STARTCHAR 066F
ENCODING 1647
SWIDTH 853 0
DWIDTH 8 0
BBX 7 6 0 -2
BITMAP
1E
1E
42
C6
4E
78
ENDCHAR
STARTCHAR 0670
ENCODING 1648
SWIDTH 0 0
DWIDTH 0 0
BBX 1 3 2 5
BITMAP
80
80
80
ENDCHAR
STARTCHAR 0674
ENCODING 1652
SWIDTH 320 0
DWIDTH 3 0
BBX 1 2 1 6
BITMAP
80
80
ENDCHAR
STARTCHAR 0679
ENCODING 1657
SWIDTH 960 0
DWIDTH 9 0
BBX 7 6 1 0
BITMAP
20
30
00
82
86
FC
ENDCHAR
STARTCHAR 067A
ENCODING 1658
SWIDTH 960 0
DWIDTH 9 0
BBX 7 5 1 0
BITMAP
10
10
82
86
FC
ENDCHAR
STARTCHAR 067B
ENCODING 1659
SWIDTH 960 0
DWIDTH 9 0
BBX 7 5 1 -2
BITMAP
82
86
FC
10
10
ENDCHAR
STARTCHAR 067C
ENCODING 1660
SWIDTH 960 0
DWIDTH 9 0
BBX 7 6 1 -2
BITMAP
30
82
86
FC
30
30
ENDCHAR
STARTCHAR 067D
ENCODING 1661
SWIDTH 960 0
DWIDTH 9 0
BBX 7 5 1 0
BITMAP
30
10
82
86
FC
ENDCHAR
STARTCHAR 067E
ENCODING 1662
SWIDTH 960 0
DWIDTH 9 0
BBX 7 5 1 -2
BITMAP
82
86
FC
30
10
ENDCHAR
STARTCHAR 067F
ENCODING 1663
SWIDTH 960 0
DWIDTH 9 0
BBX 7 5 1 0
BITMAP
30
30
82
86
FC
ENDCHAR
STARTCHAR 0680
ENCODING 1664
SWIDTH 960 0
DWIDTH 9 0
BBX 7 5 1 -2
BITMAP
82
86
FC
30
30
ENDCHAR
STARTCHAR 0681
ENCODING 1665
SWIDTH 640 0
DWIDTH 6 0
BBX 5 9 1 -2
BITMAP
60
60
00
F8
70
C0
80
C0
78
ENDCHAR
STARTCHAR 0682
ENCODING 1666
SWIDTH 640 0
DWIDTH 6 0
BBX 5 6 1 1
BITMAP
F8
70
C0
80
C0
78
ENDCHAR
STARTCHAR 0683
ENCODING 1667
SWIDTH 640 0
DWIDTH 6 0
BBX 5 6 1 -2
BITMAP
F8
70
C0
80
C0
78
ENDCHAR
STARTCHAR 0684
ENCODING 1668
SWIDTH 640 0
DWIDTH 6 0
BBX 5 6 1 -2
BITMAP
F8
70
D0
90
C0
78
ENDCHAR
STARTCHAR 0685
ENCODING 1669
SWIDTH 640 0
DWIDTH 6 0
BBX 5 8 1 -1
BITMAP
60
00
F8
70
C0
80
C0
78
ENDCHAR
STARTCHAR 0686
ENCODING 1670
SWIDTH 640 0
DWIDTH 6 0
BBX 5 6 1 -2
BITMAP
F8
70
C0
90
C0
78
ENDCHAR
STARTCHAR 0687
ENCODING 1671
SWIDTH 640 0
DWIDTH 6 0
BBX 5 6 1 -2
BITMAP
F8
70
C0
80
C0
78
ENDCHAR
STARTCHAR 0688
ENCODING 1672
SWIDTH 426 0
DWIDTH 4 0
BBX 3 7 1 0
BITMAP
80
C0
00
40
60
20
E0
ENDCHAR
STARTCHAR 0689
ENCODING 1673
SWIDTH 426 0
DWIDTH 4 0
BBX 3 6 1 -2
BITMAP
40
60
20
E0
40
40
ENDCHAR
STARTCHAR 068A
ENCODING 1674
SWIDTH 426 0
DWIDTH 4 0
BBX 3 6 1 -2
BITMAP
40
60
20
E0
00
40
ENDCHAR
STARTCHAR 068B
ENCODING 1675
SWIDTH 426 0
DWIDTH 4 0
BBX 3 9 1 -2
BITMAP
80
C0
00
40
60
20
E0
00
40
ENDCHAR
STARTCHAR 068C
ENCODING 1676
SWIDTH 426 0
DWIDTH 4 0
BBX 3 6 1 0
BITMAP
C0
00
40
60
20
E0
ENDCHAR
STARTCHAR 068D
ENCODING 1677
SWIDTH 426 0
DWIDTH 4 0
BBX 3 4 1 -1
BITMAP
40
60
20
E0
ENDCHAR
STARTCHAR 068E
ENCODING 1678
SWIDTH 426 0
DWIDTH 4 0
BBX 3 7 1 0
BITMAP
40
C0
00
40
60
20
E0
ENDCHAR
STARTCHAR 068F
ENCODING 1679
SWIDTH 426 0
DWIDTH 4 0
BBX 3 7 1 0
BITMAP
C0
40
00
40
60
20
E0
ENDCHAR
STARTCHAR 0690
ENCODING 1680
SWIDTH 426 0
DWIDTH 4 0
BBX 3 7 1 0
BITMAP
C0
C0
00
40
60
20
E0
ENDCHAR
STARTCHAR 0691
ENCODING 1681
SWIDTH 533 0
DWIDTH 5 0
BBX 5 7 0 -1
BITMAP
18
00
00
18
18
30
E0
ENDCHAR
STARTCHAR 0692
ENCODING 1682
SWIDTH 533 0
DWIDTH 5 0
BBX 5 7 0 -2
BITMAP
28
10
00
18
18
30
E0
ENDCHAR
STARTCHAR 0693
ENCODING 1683
SWIDTH 533 0
DWIDTH 5 0
BBX 5 4 0 -2
BITMAP
18
18
38
F8
ENDCHAR
STARTCHAR 0694
ENCODING 1684
SWIDTH 533 0
DWIDTH 5 0
BBX 5 4 0 -2
BITMAP
18
18
30
E8
ENDCHAR
STARTCHAR 0695
ENCODING 1685
SWIDTH 640 0
DWIDTH 6 0
BBX 6 4 0 -2
BITMAP
18
18
30
EC
ENDCHAR
STARTCHAR 0696
ENCODING 1686
SWIDTH 533 0
DWIDTH 5 0
BBX 5 4 0 -2
BITMAP
18
58
30
E8
ENDCHAR
STARTCHAR 0697
ENCODING 1687
SWIDTH 533 0
DWIDTH 5 0
BBX 5 4 0 1
BITMAP
18
18
30
E0
ENDCHAR
STARTCHAR 0698
ENCODING 1688
SWIDTH 533 0
DWIDTH 5 0
BBX 5 8 0 -2
BITMAP
10
00
00
00
18
18
30
E0
ENDCHAR
STARTCHAR 0699
ENCODING 1689
SWIDTH 533 0
DWIDTH 5 0
BBX 5 4 0 2
BITMAP
18
18
30
E0
ENDCHAR
STARTCHAR 069A
ENCODING 1690
SWIDTH 1280 0
DWIDTH 12 0
BBX 11 5 1 0
BITMAP
1B60
CB60
8FC0
9800
F200
ENDCHAR
STARTCHAR 069B
ENCODING 1691
SWIDTH 1280 0
DWIDTH 12 0
BBX 11 5 1 -2
BITMAP
1B60
CB60
8FC0
9800
F200
ENDCHAR
STARTCHAR 069C
ENCODING 1692
SWIDTH 1280 0
DWIDTH 12 0
BBX 11 7 1 -1
BITMAP
0600
0000
1B60
CB60
8FC0
9800
F200
ENDCHAR
STARTCHAR 069D
ENCODING 1693
SWIDTH 1280 0
DWIDTH 12 0
BBX 10 5 1 -2
BITMAP
03C0
CE40
8FC0
9800
F000
ENDCHAR
STARTCHAR 069E
ENCODING 1694
SWIDTH 1280 0
DWIDTH 12 0
BBX 10 8 1 -2
BITMAP
0400
0000
0000
03C0
CE40
8FC0
9800
F000
ENDCHAR
STARTCHAR 069F
ENCODING 1695
SWIDTH 960 0
DWIDTH 9 0
BBX 8 7 1 0
BITMAP
60
68
70
60
6E
73
FE
ENDCHAR
STARTCHAR 06A0
ENCODING 1696
SWIDTH 640 0
DWIDTH 6 0
BBX 5 9 1 -2
BITMAP
40
60
60
C0
F0
E0
80
C0
78
ENDCHAR
STARTCHAR 06A1
ENCODING 1697
SWIDTH 1066 0
DWIDTH 10 0
BBX 9 4 1 0
BITMAP
0700
0780
8380
FF00
ENDCHAR
STARTCHAR 06A2
ENCODING 1698
SWIDTH 1066 0
DWIDTH 10 0
BBX 9 6 1 -2
BITMAP
0700
0780
8380
FF00
0000
1000
ENDCHAR
STARTCHAR 06A3
ENCODING 1699
SWIDTH 1066 0
DWIDTH 10 0
BBX 9 8 1 -2
BITMAP
0200
0000
0700
0780
8380
FF00
0000
1000
ENDCHAR
STARTCHAR 06A4
ENCODING 1700
SWIDTH 1066 0
DWIDTH 10 0
BBX 9 7 1 0
BITMAP
0200
0000
0000
0700
0780
8380
FF00
ENDCHAR
STARTCHAR 06A5
ENCODING 1701
SWIDTH 1066 0
DWIDTH 10 0
BBX 9 7 1 -3
BITMAP
0700
0780
8380
FF00
0000
1800
1000
ENDCHAR
STARTCHAR 06A6
ENCODING 1702
SWIDTH 1066 0
DWIDTH 10 0
BBX 9 4 1 3
BITMAP
0700
0780
8380
FF00
ENDCHAR
STARTCHAR 06A7
ENCODING 1703
SWIDTH 853 0
DWIDTH 8 0
BBX 7 6 0 0
BITMAP
1E
1E
42
C6
4E
78
ENDCHAR
STARTCHAR 06A8
ENCODING 1704
SWIDTH 853 0
DWIDTH 8 0
BBX 7 8 0 -1
BITMAP
0C
00
1E
1E
42
C6
4E
78
ENDCHAR
STARTCHAR 06A9
ENCODING 1705
SWIDTH 960 0
DWIDTH 9 0
BBX 8 7 1 0
BITMAP
01
0F
18
0C
06
86
FE
ENDCHAR
STARTCHAR 06AA
ENCODING 1706
SWIDTH 1173 0
DWIDTH 11 0
BBX 10 7 1 0
BITMAP
0E00
3800
6000
3E00
03C0
80C0
FFC0
ENDCHAR
STARTCHAR 06AB
ENCODING 1707
SWIDTH 960 0
DWIDTH 9 0
BBX 8 7 1 0
BITMAP
01
0F
1B
0C
06
86
FE
ENDCHAR
STARTCHAR 06AC
ENCODING 1708
SWIDTH 853 0
DWIDTH 8 0
BBX 6 7 1 0
BITMAP
04
04
24
14
24
8C
FC
ENDCHAR
STARTCHAR 06AD
ENCODING 1709
SWIDTH 853 0
DWIDTH 8 0
BBX 6 7 1 1
BITMAP
34
04
24
14
24
8C
FC
ENDCHAR
STARTCHAR 06AE
ENCODING 1710
SWIDTH 853 0
DWIDTH 8 0
BBX 6 9 1 -3
BITMAP
04
04
24
14
24
8C
FC
00
30
ENDCHAR
STARTCHAR 06AF
ENCODING 1711
SWIDTH 960 0
DWIDTH 9 0
BBX 8 8 1 0
BITMAP
03
0D
0F
18
0C
06
86
FE
ENDCHAR
STARTCHAR 06B0
ENCODING 1712
SWIDTH 960 0
DWIDTH 9 0
BBX 8 8 1 0
BITMAP
03
0D
0F
1B
0C
06
86
FE
ENDCHAR
STARTCHAR 06B1
ENCODING 1713
SWIDTH 960 0
DWIDTH 9 0
BBX 8 8 1 0
BITMAP
13
0D
0F
18
0C
06
86
FE
ENDCHAR
STARTCHAR 06B2
ENCODING 1714
SWIDTH 960 0
DWIDTH 9 0
BBX 8 10 1 -2
BITMAP
03
0D
0F
18
0C
06
86
FE
00
30
ENDCHAR
STARTCHAR 06B3
ENCODING 1715
SWIDTH 960 0
DWIDTH 9 0
BBX 8 8 1 -3
BITMAP
03
0D
0F
18
0C
06
86
FE
ENDCHAR
STARTCHAR 06B4
ENCODING 1716
SWIDTH 960 0
DWIDTH 9 0
BBX 8 9 1 0
BITMAP
08
13
0D
0F
18
0C
06
86
FE
ENDCHAR
STARTCHAR 06B5
ENCODING 1717
SWIDTH 853 0
DWIDTH 8 0
BBX 6 10 1 -2
BITMAP
0C
00
0C
0C
0C
0C
0C
0C
8C
F8
ENDCHAR
STARTCHAR 06B6
ENCODING 1718
SWIDTH 853 0
DWIDTH 8 0
BBX 6 10 1 -2
BITMAP
04
00
0C
0C
0C
0C
0C
0C
8C
F8
ENDCHAR
STARTCHAR 06B7
ENCODING 1719
SWIDTH 853 0
DWIDTH 8 0
BBX 6 9 1 -1
BITMAP
0C
0C
0C
0C
0C
0C
0C
8C
F8
ENDCHAR
STARTCHAR 06B8
ENCODING 1720
SWIDTH 853 0
DWIDTH 8 0
BBX 6 9 1 -3
BITMAP
0C
0C
0C
0C
0C
0C
8C
F8
30
ENDCHAR
STARTCHAR 06B9
ENCODING 1721
SWIDTH 853 0
DWIDTH 8 0
BBX 6 6 1 -3
BITMAP
20
00
0C
8C
8C
F8
ENDCHAR
STARTCHAR 06BA
ENCODING 1722
SWIDTH 853 0
DWIDTH 8 0
BBX 6 4 1 -1
BITMAP
0C
8C
8C
F8
ENDCHAR
STARTCHAR 06BB
ENCODING 1723
SWIDTH 853 0
DWIDTH 8 0
BBX 6 6 1 0
BITMAP
30
00
0C
8C
8C
F8
ENDCHAR
STARTCHAR 06BC
ENCODING 1724
SWIDTH 853 0
DWIDTH 8 0
BBX 6 8 1 -3
BITMAP
20
00
0C
8C
8C
F8
30
30
ENDCHAR
STARTCHAR 06BD
ENCODING 1725
SWIDTH 853 0
DWIDTH 8 0
BBX 6 7 1 -1
BITMAP
20
10
00
0C
8C
8C
F8
ENDCHAR
STARTCHAR 06BE
ENCODING 1726
SWIDTH 853 0
DWIDTH 8 0
BBX 7 5 1 0
BITMAP
20
38
3C
BE
FE
ENDCHAR
STARTCHAR 06BF
ENCODING 1727
SWIDTH 640 0
DWIDTH 6 0
BBX 5 6 1 0
BITMAP
F8
70
C0
90
C0
78
ENDCHAR
STARTCHAR 06C6
ENCODING 1734
SWIDTH 640 0
DWIDTH 6 0
BBX 5 7 0 -2
BITMAP
10
20
70
58
78
18
F0
ENDCHAR
STARTCHAR 06C7
ENCODING 1735
SWIDTH 640 0
DWIDTH 6 0
BBX 5 8 0 -2
BITMAP
20
30
40
70
58
78
18
F0
ENDCHAR
STARTCHAR 06C8
ENCODING 1736
SWIDTH 640 0
DWIDTH 6 0
BBX 5 8 0 -2
BITMAP
20
20
20
70
58
78
18
F0
ENDCHAR
STARTCHAR 06CB
ENCODING 1739
SWIDTH 640 0
DWIDTH 6 0
BBX 5 7 0 -1
BITMAP
30
00
70
58
78
18
F0
ENDCHAR
STARTCHAR 06CC
ENCODING 1740
SWIDTH 853 0
DWIDTH 8 0
BBX 7 5 1 -1
BITMAP
1E
18
84
8C
F8
ENDCHAR
STARTCHAR 06CE
ENCODING 1742
SWIDTH 853 0
DWIDTH 8 0
BBX 7 6 1 -1
BITMAP
80
5E
18
84
8C
F8
ENDCHAR
STARTCHAR 06D0
ENCODING 1744
SWIDTH 853 0
DWIDTH 8 0
BBX 7 7 1 -3
BITMAP
1E
18
84
8C
F8
20
20
ENDCHAR
STARTCHAR 06D5
ENCODING 1749
SWIDTH 533 0
DWIDTH 5 0
BBX 5 3 0 0
BITMAP
70
D8
78
ENDCHAR
STARTCHAR 06F0
ENCODING 1776
SWIDTH 640 0
DWIDTH 6 0
BBX 2 1 2 2
BITMAP
C0
ENDCHAR
STARTCHAR 06F1
ENCODING 1777
SWIDTH 640 0
DWIDTH 6 0
BBX 3 6 1 0
BITMAP
C0
40
60
60
60
60
ENDCHAR
STARTCHAR 06F2
ENCODING 1778
SWIDTH 640 0
DWIDTH 6 0
BBX 5 6 0 0
BITMAP
C8
78
40
60
60
60
ENDCHAR
STARTCHAR 06F3
ENCODING 1779
SWIDTH 640 0
DWIDTH 6 0
BBX 5 6 0 0
BITMAP
D8
78
40
60
60
60
ENDCHAR
STARTCHAR 06F4
ENCODING 1780
SWIDTH 640 0
DWIDTH 6 0
BBX 5 6 0 0
BITMAP
D8
70
78
60
60
60
ENDCHAR
STARTCHAR 06F5
ENCODING 1781
SWIDTH 640 0
DWIDTH 6 0
BBX 5 6 0 0
BITMAP
30
58
D8
C8
E8
78
ENDCHAR
STARTCHAR 06F6
ENCODING 1782
SWIDTH 640 0
DWIDTH 6 0
BBX 4 6 1 0
BITMAP
60
C0
D0
70
C0
80
ENDCHAR
STARTCHAR 06F7
ENCODING 1783
SWIDTH 640 0
DWIDTH 6 0
BBX 5 6 0 0
BITMAP
C8
58
70
70
30
30
ENDCHAR
STARTCHAR 06F8
ENCODING 1784
SWIDTH 640 0
DWIDTH 6 0
BBX 5 6 0 0
BITMAP
30
30
70
70
58
D8
ENDCHAR
STARTCHAR 06F9
ENCODING 1785
SWIDTH 640 0
DWIDTH 6 0
BBX 5 6 0 0
BITMAP
70
D8
F8
38
18
08
ENDCHAR
STARTCHAR 07C0
ENCODING 1984
SWIDTH 640 0
DWIDTH 6 0
BBX 6 7 0 0
BITMAP
30
78
4C
CC
CC
4C
78
ENDCHAR
STARTCHAR 07C1
ENCODING 1985
SWIDTH 640 0
DWIDTH 6 0
BBX 4 7 1 0
BITMAP
60
70
60
60
60
60
F0
ENDCHAR
STARTCHAR 07C2
ENCODING 1986
SWIDTH 640 0
DWIDTH 6 0
BBX 5 7 1 0
BITMAP
98
98
F8
F8
80
80
80
ENDCHAR
STARTCHAR 07C3
ENCODING 1987
SWIDTH 640 0
DWIDTH 6 0
BBX 5 7 1 0
BITMAP
18
18
18
F8
F8
18
F8
ENDCHAR
STARTCHAR 07C4
ENCODING 1988
SWIDTH 640 0
DWIDTH 6 0
BBX 5 7 1 0
BITMAP
18
18
18
F8
F8
80
F8
ENDCHAR
STARTCHAR 07C5
ENCODING 1989
SWIDTH 640 0
DWIDTH 6 0
BBX 5 7 1 0
BITMAP
80
80
80
F8
80
80
80
ENDCHAR
STARTCHAR 07C6
ENCODING 1990
SWIDTH 640 0
DWIDTH 6 0
BBX 5 7 1 0
BITMAP
80
80
80
F8
F8
18
18
ENDCHAR
STARTCHAR 07C7
ENCODING 1991
SWIDTH 640 0
DWIDTH 6 0
BBX 4 7 1 0
BITMAP
80
80
90
90
A0
A0
C0
ENDCHAR
STARTCHAR 07C8
ENCODING 1992
SWIDTH 640 0
DWIDTH 6 0
BBX 4 7 1 0
BITMAP
80
80
F0
90
A0
A0
C0
ENDCHAR
STARTCHAR 07C9
ENCODING 1993
SWIDTH 640 0
DWIDTH 6 0
BBX 5 7 1 0
BITMAP
60
D0
98
F0
60
60
60
ENDCHAR
STARTCHAR 07CA
ENCODING 1994
SWIDTH 320 0
DWIDTH 3 0
BBX 1 7 1 0
BITMAP
80
80
80
80
80
80
80
ENDCHAR
STARTCHAR 07CB
ENCODING 1995
SWIDTH 533 0
DWIDTH 5 0
BBX 4 4 0 0
BITMAP
70
D0
D0
70
ENDCHAR
STARTCHAR 07CC
ENCODING 1996
SWIDTH 533 0
DWIDTH 5 0
BBX 5 7 0 0
BITMAP
D8
50
50
70
20
20
20
ENDCHAR
STARTCHAR 07CD
ENCODING 1997
SWIDTH 640 0
DWIDTH 6 0
BBX 5 4 0 0
BITMAP
30
78
58
C8
ENDCHAR
STARTCHAR 07CE
ENCODING 1998
SWIDTH 640 0
DWIDTH 6 0
BBX 4 4 1 0
BITMAP
90
90
90
F0
ENDCHAR
STARTCHAR 07CF
ENCODING 1999
SWIDTH 640 0
DWIDTH 6 0
BBX 4 4 1 0
BITMAP
F0
10
10
F0
ENDCHAR
STARTCHAR 07D0
ENCODING 2000
SWIDTH 533 0
DWIDTH 5 0
BBX 5 7 0 0
BITMAP
30
58
58
70
20
20
F8
ENDCHAR
STARTCHAR 07D1
ENCODING 2001
SWIDTH 640 0
DWIDTH 6 0
BBX 4 6 1 0
BITMAP
20
60
60
00
00
F0
ENDCHAR
STARTCHAR 07D2
ENCODING 2002
SWIDTH 853 0
DWIDTH 8 0
BBX 7 7 0 0
BITMAP
70
D0
D8
7E
1A
02
02
ENDCHAR
STARTCHAR 07D3
ENCODING 2003
SWIDTH 533 0
DWIDTH 5 0
BBX 3 7 1 0
BITMAP
E0
E0
80
E0
80
80
80
ENDCHAR
STARTCHAR 07D4
ENCODING 2004
SWIDTH 533 0
DWIDTH 5 0
BBX 3 7 1 0
BITMAP
E0
E0
20
E0
20
20
20
ENDCHAR
STARTCHAR 07D5
ENCODING 2005
SWIDTH 640 0
DWIDTH 6 0
BBX 4 7 1 0
BITMAP
80
80
80
F0
90
B0
F0
ENDCHAR
STARTCHAR 07D6
ENCODING 2006
SWIDTH 640 0
DWIDTH 6 0
BBX 4 7 1 0
BITMAP
F0
F0
C0
40
60
20
20
ENDCHAR
STARTCHAR 07D7
ENCODING 2007
SWIDTH 426 0
DWIDTH 4 0
BBX 3 7 0 0
BITMAP
20
60
A0
20
20
20
20
ENDCHAR
STARTCHAR 07D8
ENCODING 2008
SWIDTH 960 0
DWIDTH 9 0
BBX 7 5 1 0
BITMAP
0C
FA
92
92
FE
ENDCHAR
STARTCHAR 07D9
ENCODING 2009
SWIDTH 533 0
DWIDTH 5 0
BBX 4 7 0 0
BITMAP
60
60
F0
60
60
60
60
ENDCHAR
STARTCHAR 07DA
ENCODING 2010
SWIDTH 746 0
DWIDTH 7 0
BBX 7 7 0 0
BITMAP
6C
6C
FE
6C
6C
6C
6C
ENDCHAR
STARTCHAR 07DB
ENCODING 2011
SWIDTH 640 0
DWIDTH 6 0
BBX 4 4 1 0
BITMAP
F0
90
90
F0
ENDCHAR
STARTCHAR 07DC
ENCODING 2012
SWIDTH 640 0
DWIDTH 6 0
BBX 6 7 0 0
BITMAP
FC
F8
48
78
78
30
30
ENDCHAR
STARTCHAR 07DD
ENCODING 2013
SWIDTH 853 0
DWIDTH 8 0
BBX 7 7 1 0
BITMAP
38
3E
36
FC
B0
B0
F0
ENDCHAR
STARTCHAR 07DE
ENCODING 2014
SWIDTH 640 0
DWIDTH 6 0
BBX 4 7 1 0
BITMAP
30
B0
F0
B0
B0
30
30
ENDCHAR
STARTCHAR 07DF
ENCODING 2015
SWIDTH 640 0
DWIDTH 6 0
BBX 6 7 0 0
BITMAP
38
78
D8
7C
3C
18
18
ENDCHAR
STARTCHAR 07E0
ENCODING 2016
SWIDTH 533 0
DWIDTH 5 0
BBX 4 7 0 0
BITMAP
F0
F0
60
60
60
60
60
ENDCHAR
STARTCHAR 07E1
ENCODING 2017
SWIDTH 640 0
DWIDTH 6 0
BBX 6 7 0 0
BITMAP
30
30
70
78
48
48
FC
ENDCHAR
STARTCHAR 07E2
ENCODING 2018
SWIDTH 533 0
DWIDTH 5 0
BBX 5 7 0 0
BITMAP
E0
E0
70
D8
78
20
20
ENDCHAR
STARTCHAR 07E3
ENCODING 2019
SWIDTH 640 0
DWIDTH 6 0
BBX 4 7 1 0
BITMAP
F0
F0
B0
30
30
30
30
ENDCHAR
STARTCHAR 07E4
ENCODING 2020
SWIDTH 640 0
DWIDTH 6 0
BBX 4 5 1 0
BITMAP
80
F0
B0
30
30
ENDCHAR
STARTCHAR 07E5
ENCODING 2021
SWIDTH 640 0
DWIDTH 6 0
BBX 4 7 1 0
BITMAP
F0
F0
30
F0
B0
B0
F0
ENDCHAR
STARTCHAR 07E6
ENCODING 2022
SWIDTH 533 0
DWIDTH 5 0
BBX 5 7 0 0
BITMAP
20
20
70
D8
78
20
20
ENDCHAR
STARTCHAR 07E7
ENCODING 2023
SWIDTH 533 0
DWIDTH 5 0
BBX 5 7 0 0
BITMAP
F8
F8
70
D8
78
20
20
ENDCHAR
STARTCHAR 07EB
ENCODING 2027
SWIDTH 0 0
DWIDTH 0 0
BBX 3 1 1 6
BITMAP
E0
ENDCHAR
STARTCHAR 07EC
ENCODING 2028
SWIDTH 0 0
DWIDTH 0 0
BBX 3 1 1 6
BITMAP
E0
ENDCHAR
STARTCHAR 07ED
ENCODING 2029
SWIDTH 0 0
DWIDTH 0 0
BBX 1 1 2 6
BITMAP
80
ENDCHAR
STARTCHAR 07EE
ENCODING 2030
SWIDTH 0 0
DWIDTH 0 0
BBX 2 1 1 6
BITMAP
C0
ENDCHAR
STARTCHAR 07EF
ENCODING 2031
SWIDTH 0 0
DWIDTH 0 0
BBX 2 1 1 6
BITMAP
C0
ENDCHAR
STARTCHAR 07F0
ENCODING 2032
SWIDTH 0 0
DWIDTH 0 0
BBX 2 1 1 6
BITMAP
C0
ENDCHAR
STARTCHAR 07F1
ENCODING 2033
SWIDTH 0 0
DWIDTH 0 0
BBX 2 1 1 6
BITMAP
C0
ENDCHAR
STARTCHAR 07F2
ENCODING 2034
SWIDTH 0 0
DWIDTH 0 0
BBX 1 1 2 -2
BITMAP
80
ENDCHAR
STARTCHAR 07F3
ENCODING 2035
SWIDTH 0 0
DWIDTH 0 0
BBX 3 1 1 6
BITMAP
A0
ENDCHAR
STARTCHAR 07F4
ENCODING 2036
SWIDTH 320 0
DWIDTH 3 0
BBX 2 3 1 4
BITMAP
C0
C0
80
ENDCHAR
STARTCHAR 07F5
ENCODING 2037
SWIDTH 320 0
DWIDTH 3 0
BBX 2 3 1 4
BITMAP
40
C0
80
ENDCHAR
STARTCHAR 07F8
ENCODING 2040
SWIDTH 640 0
DWIDTH 6 0
BBX 4 5 1 0
BITMAP
20
00
00
00
F0
ENDCHAR
STARTCHAR 07F9
ENCODING 2041
SWIDTH 640 0
DWIDTH 6 0
BBX 4 5 1 0
BITMAP
F0
00
20
00
20
ENDCHAR
STARTCHAR 07FA
ENCODING 2042
SWIDTH 426 0
DWIDTH 4 0
BBX 4 1 0 0
BITMAP
F0
ENDCHAR
STARTCHAR 0E3F
ENCODING 3647
SWIDTH 640 0
DWIDTH 6 0
BBX 5 7 1 0
BITMAP
F0
D0
F0
F8
D8
F0
40
ENDCHAR
STARTCHAR 0E81
ENCODING 3713
SWIDTH 746 0
DWIDTH 7 0
BBX 6 5 0 0
BITMAP
FC
E4
64
E4
64
ENDCHAR
STARTCHAR 0E82
ENCODING 3714
SWIDTH 746 0
DWIDTH 7 0
BBX 6 5 0 0
BITMAP
7C
C4
5C
70
7C
ENDCHAR
STARTCHAR 0E84
ENCODING 3716
SWIDTH 746 0
DWIDTH 7 0
BBX 6 5 0 0
BITMAP
78
CC
64
E4
64
ENDCHAR
STARTCHAR 0E87
ENCODING 3719
SWIDTH 533 0
DWIDTH 5 0
BBX 5 7 0 -2
BITMAP
F0
F8
18
18
18
D8
70
ENDCHAR
STARTCHAR 0E88
ENCODING 3720
SWIDTH 746 0
DWIDTH 7 0
BBX 6 5 0 0
BITMAP
78
C4
3C
1C
04
ENDCHAR
STARTCHAR 0E8A
ENCODING 3722
SWIDTH 746 0
DWIDTH 7 0
BBX 7 7 0 -2
BITMAP
7C
E4
5C
70
7C
04
06
ENDCHAR
STARTCHAR 0E8D
ENCODING 3725
SWIDTH 746 0
DWIDTH 7 0
BBX 6 5 0 1
BITMAP
74
E4
64
C4
7C
ENDCHAR
STARTCHAR 0E94
ENCODING 3732
SWIDTH 640 0
DWIDTH 6 0
BBX 6 5 0 0
BITMAP
78
CC
CC
EC
6C
ENDCHAR
STARTCHAR 0E95
ENCODING 3733
SWIDTH 640 0
DWIDTH 6 0
BBX 6 5 0 0
BITMAP
7C
FC
CC
EC
6C
ENDCHAR
STARTCHAR 0E96
ENCODING 3734
SWIDTH 746 0
DWIDTH 7 0
BBX 6 7 0 -2
BITMAP
FC
C4
44
64
64
04
04
ENDCHAR
STARTCHAR 0E97
ENCODING 3735
SWIDTH 746 0
DWIDTH 7 0
BBX 7 5 0 0
BITMAP
DE
DE
DE
DE
F6
ENDCHAR
STARTCHAR 0E99
ENCODING 3737
SWIDTH 746 0
DWIDTH 7 0
BBX 6 5 0 0
BITMAP
E4
E4
24
24
FC
ENDCHAR
STARTCHAR 0E9A
ENCODING 3738
SWIDTH 746 0
DWIDTH 7 0
BBX 6 5 0 0
BITMAP
64
E4
44
CC
78
ENDCHAR
STARTCHAR 0E9B
ENCODING 3739
SWIDTH 746 0
DWIDTH 7 0
BBX 6 7 0 0
BITMAP
04
04
64
E4
44
CC
78
ENDCHAR
STARTCHAR 0E9C
ENCODING 3740
SWIDTH 853 0
DWIDTH 8 0
BBX 7 6 1 0
BITMAP
02
CE
CE
B4
B4
FC
ENDCHAR
STARTCHAR 0E9D
ENCODING 3741
SWIDTH 746 0
DWIDTH 7 0
BBX 6 7 1 0
BITMAP
0C
0C
CC
CC
AC
AC
FC
ENDCHAR
STARTCHAR 0E9E
ENCODING 3742
SWIDTH 853 0
DWIDTH 8 0
BBX 6 5 1 0
BITMAP
C4
C4
B4
B4
FC
ENDCHAR
STARTCHAR 0E9F
ENCODING 3743
SWIDTH 853 0
DWIDTH 8 0
BBX 6 7 1 0
BITMAP
04
04
C4
C4
B4
B4
FC
ENDCHAR
STARTCHAR 0EA1
ENCODING 3745
SWIDTH 853 0
DWIDTH 8 0
BBX 7 5 0 0
BITMAP
36
36
36
F6
FE
ENDCHAR
STARTCHAR 0EA2
ENCODING 3746
SWIDTH 746 0
DWIDTH 7 0
BBX 6 7 0 0
BITMAP
04
04
E4
E4
64
C4
7C
ENDCHAR
STARTCHAR 0EA3
ENCODING 3747
SWIDTH 746 0
DWIDTH 7 0
BBX 6 6 0 0
BITMAP
10
7C
70
1C
E4
7C
ENDCHAR
STARTCHAR 0EA5
ENCODING 3749
SWIDTH 746 0
DWIDTH 7 0
BBX 6 5 0 0
BITMAP
7C
4C
04
F4
FC
ENDCHAR
STARTCHAR 0EA7
ENCODING 3751
SWIDTH 640 0
DWIDTH 6 0
BBX 6 5 0 0
BITMAP
78
4C
0C
EC
7C
ENDCHAR
STARTCHAR 0EAA
ENCODING 3754
SWIDTH 746 0
DWIDTH 7 0
BBX 6 6 1 1
BITMAP
64
FC
F8
08
E8
F8
ENDCHAR
STARTCHAR 0EAB
ENCODING 3755
SWIDTH 960 0
DWIDTH 9 0
BBX 8 6 0 0
BITMAP
4A
FF
6D
45
45
7D
ENDCHAR
STARTCHAR 0EAD
ENCODING 3757
SWIDTH 746 0
DWIDTH 7 0
BBX 5 5 1 0
BITMAP
F8
F8
08
C8
F8
ENDCHAR
STARTCHAR 0EAE
ENCODING 3758
SWIDTH 746 0
DWIDTH 7 0
BBX 7 6 0 0
BITMAP
32
7E
78
6C
E4
7C
ENDCHAR
STARTCHAR 0EAF
ENCODING 3759
SWIDTH 853 0
DWIDTH 8 0
BBX 8 8 0 -2
BITMAP
70
76
FD
5B
36
0C
18
10
ENDCHAR
STARTCHAR 0EB0
ENCODING 3760
SWIDTH 640 0
DWIDTH 6 0
BBX 6 5 0 -1
BITMAP
EC
FC
00
EC
FC
ENDCHAR
STARTCHAR 0EB1
ENCODING 3761
SWIDTH 0 0
DWIDTH 0 0
BBX 6 2 -6 5
BITMAP
E8
FC
ENDCHAR
STARTCHAR 0EB2
ENCODING 3762
SWIDTH 533 0
DWIDTH 5 0
BBX 5 5 0 0
BITMAP
78
E8
68
08
08
ENDCHAR
STARTCHAR 0EB3
ENCODING 3763
SWIDTH 533 0
DWIDTH 5 0
BBX 9 8 -4 0
BITMAP
C000
C000
0000
0780
0E80
0680
0080
0080
ENDCHAR
STARTCHAR 0EB4
ENCODING 3764
SWIDTH 0 0
DWIDTH 0 0
BBX 5 3 -6 6
BITMAP
30
C8
C8
ENDCHAR
STARTCHAR 0EB5
ENCODING 3765
SWIDTH 0 0
DWIDTH 0 0
BBX 6 3 -6 6
BITMAP
70
88
DC
ENDCHAR
STARTCHAR 0EB6
ENCODING 3766
SWIDTH 0 0
DWIDTH 0 0
BBX 5 3 -6 6
BITMAP
30
E8
E8
ENDCHAR
STARTCHAR 0EB7
ENCODING 3767
SWIDTH 0 0
DWIDTH 0 0
BBX 6 3 -6 6
BITMAP
70
A8
DC
ENDCHAR
STARTCHAR 0EB8
ENCODING 3768
SWIDTH 0 0
DWIDTH 0 0
BBX 2 2 -4 -2
BITMAP
C0
40
ENDCHAR
STARTCHAR 0EB9
ENCODING 3769
SWIDTH 0 0
DWIDTH 0 0
BBX 2 3 -4 -3
BITMAP
80
C0
C0
ENDCHAR
STARTCHAR 0EBB
ENCODING 3771
SWIDTH 0 0
DWIDTH 0 0
BBX 6 2 -6 5
BITMAP
78
EC
ENDCHAR
STARTCHAR 0EBC
ENCODING 3772
SWIDTH 0 0
DWIDTH 0 0
BBX 6 3 -6 -3
BITMAP
40
F4
D8
ENDCHAR
STARTCHAR 0EBD
ENCODING 3773
SWIDTH 640 0
DWIDTH 6 0
BBX 6 9 0 -2
BITMAP
70
5C
70
18
08
68
E8
C8
78
ENDCHAR
STARTCHAR 0EC0
ENCODING 3776
SWIDTH 533 0
DWIDTH 5 0
BBX 3 5 1 0
BITMAP
E0
80
80
E0
E0
ENDCHAR
STARTCHAR 0EC1
ENCODING 3777
SWIDTH 853 0
DWIDTH 8 0
BBX 6 5 1 0
BITMAP
FC
98
98
FC
FC
ENDCHAR
STARTCHAR 0EC2
ENCODING 3778
SWIDTH 533 0
DWIDTH 5 0
BBX 4 8 0 0
BITMAP
E0
A0
F0
40
60
60
70
70
ENDCHAR
STARTCHAR 0EC3
ENCODING 3779
SWIDTH 640 0
DWIDTH 6 0
BBX 5 8 0 0
BITMAP
78
C8
C8
58
30
30
38
38
ENDCHAR
STARTCHAR 0EC4
ENCODING 3780
SWIDTH 640 0
DWIDTH 6 0
BBX 5 7 0 0
BITMAP
C0
50
70
70
10
18
18
ENDCHAR
STARTCHAR 0EC6
ENCODING 3782
SWIDTH 746 0
DWIDTH 7 0
BBX 5 7 1 -2
BITMAP
D8
E8
C8
C8
08
88
F8
ENDCHAR
STARTCHAR 0EC8
ENCODING 3784
SWIDTH 0 0
DWIDTH 0 0
BBX 1 2 -4 6
BITMAP
80
80
ENDCHAR
STARTCHAR 0EC9
ENCODING 3785
SWIDTH 0 0
DWIDTH 0 0
BBX 6 2 -6 6
BITMAP
C4
78
ENDCHAR
STARTCHAR 0ECA
ENCODING 3786
SWIDTH 0 0
DWIDTH 0 0
BBX 6 3 -6 6
BITMAP
58
A8
DC
ENDCHAR
STARTCHAR 0ECB
ENCODING 3787
SWIDTH 0 0
DWIDTH 0 0
BBX 3 3 -5 5
BITMAP
40
E0
40
ENDCHAR
STARTCHAR 0ECC
ENCODING 3788
SWIDTH 0 0
DWIDTH 0 0
BBX 6 3 -6 5
BITMAP
40
F4
D8
ENDCHAR
STARTCHAR 0ECD
ENCODING 3789
SWIDTH 0 0
DWIDTH 0 0
BBX 2 2 -4 6
BITMAP
C0
C0
ENDCHAR
STARTCHAR 0ED0
ENCODING 3792
SWIDTH 746 0
DWIDTH 7 0
BBX 5 5 1 0
BITMAP
78
C8
88
88
F8
ENDCHAR
STARTCHAR 0ED1
ENCODING 3793
SWIDTH 746 0
DWIDTH 7 0
BBX 6 6 0 -1
BITMAP
7C
C4
E4
64
0C
18
ENDCHAR
STARTCHAR 0ED2
ENCODING 3794
SWIDTH 640 0
DWIDTH 6 0
BBX 5 7 0 -1
BITMAP
18
30
60
C0
D8
E8
30
ENDCHAR
STARTCHAR 0ED3
ENCODING 3795
SWIDTH 853 0
DWIDTH 8 0
BBX 8 9 0 0
BITMAP
18
3F
34
1C
06
36
36
F6
FE
ENDCHAR
STARTCHAR 0ED4
ENCODING 3796
SWIDTH 746 0
DWIDTH 7 0
BBX 6 7 0 -1
BITMAP
18
30
60
4C
DC
68
3C
ENDCHAR
STARTCHAR 0ED5
ENCODING 3797
SWIDTH 746 0
DWIDTH 7 0
BBX 6 7 0 -1
BITMAP
78
70
60
4C
DC
68
3C
ENDCHAR
STARTCHAR 0ED6
ENCODING 3798
SWIDTH 853 0
DWIDTH 8 0
BBX 7 8 1 1
BITMAP
7E
6C
38
CC
CC
CC
AC
FC
ENDCHAR
STARTCHAR 0ED7
ENCODING 3799
SWIDTH 746 0
DWIDTH 7 0
BBX 6 7 0 -2
BITMAP
FC
E4
64
E4
64
04
04
ENDCHAR
STARTCHAR 0ED8
ENCODING 3800
SWIDTH 746 0
DWIDTH 7 0
BBX 6 7 1 -2
BITMAP
D8
E8
C8
CC
18
2C
7C
ENDCHAR
STARTCHAR 0ED9
ENCODING 3801
SWIDTH 853 0
DWIDTH 8 0
BBX 7 5 1 0
BITMAP
DC
D6
96
96
F6
ENDCHAR
STARTCHAR 0EDC
ENCODING 3804
SWIDTH 1280 0
DWIDTH 12 0
BBX 12 6 0 0
BITMAP
4B00
FFB0
6CB0
44B0
44B0
7FE0
ENDCHAR
STARTCHAR 0EDD
ENCODING 3805
SWIDTH 1280 0
DWIDTH 12 0
BBX 12 6 0 0
BITMAP
4B00
FFB0
6CB0
44B0
47B0
7FE0
ENDCHAR
STARTCHAR 10A0
ENCODING 4256
SWIDTH 853 0
DWIDTH 8 0
BBX 7 7 0 0
BITMAP
7E
60
42
C2
42
66
3C
ENDCHAR
STARTCHAR 10A1
ENCODING 4257
SWIDTH 746 0
DWIDTH 7 0
BBX 6 7 0 0
BITMAP
48
C8
C8
78
08
08
0C
ENDCHAR
STARTCHAR 10A2
ENCODING 4258
SWIDTH 640 0
DWIDTH 6 0
BBX 6 8 0 -1
BITMAP
70
D0
50
10
10
10
1C
04
ENDCHAR
STARTCHAR 10A3
ENCODING 4259
SWIDTH 853 0
DWIDTH 8 0
BBX 7 7 0 0
BITMAP
7E
7C
46
C2
C2
46
3C
ENDCHAR
STARTCHAR 10A4
ENCODING 4260
SWIDTH 640 0
DWIDTH 6 0
BBX 5 7 0 0
BITMAP
78
C8
C8
48
08
08
08
ENDCHAR
STARTCHAR 10A5
ENCODING 4261
SWIDTH 746 0
DWIDTH 7 0
BBX 7 7 0 0
BITMAP
F0
D0
5E
16
16
10
10
ENDCHAR
STARTCHAR 10A6
ENCODING 4262
SWIDTH 746 0
DWIDTH 7 0
BBX 6 7 0 0
BITMAP
E0
60
7C
64
64
24
3C
ENDCHAR
STARTCHAR 10A7
ENCODING 4263
SWIDTH 853 0
DWIDTH 8 0
BBX 8 7 0 0
BITMAP
3C
44
47
C5
45
64
3C
ENDCHAR
STARTCHAR 10A8
ENCODING 4264
SWIDTH 426 0
DWIDTH 4 0
BBX 4 8 0 0
BITMAP
80
F0
30
30
30
30
30
30
ENDCHAR
STARTCHAR 10A9
ENCODING 4265
SWIDTH 640 0
DWIDTH 6 0
BBX 5 7 0 0
BITMAP
C0
F8
C8
C8
48
78
08
ENDCHAR
STARTCHAR 10AA
ENCODING 4266
SWIDTH 853 0
DWIDTH 8 0
BBX 7 7 0 0
BITMAP
F0
F0
FE
32
32
32
1C
ENDCHAR
STARTCHAR 10AB
ENCODING 4267
SWIDTH 853 0
DWIDTH 8 0
BBX 8 7 0 0
BITMAP
78
08
7F
4B
CB
4B
7B
ENDCHAR
STARTCHAR 10AC
ENCODING 4268
SWIDTH 640 0
DWIDTH 6 0
BBX 5 7 0 0
BITMAP
78
C0
F8
C8
C8
C8
C8
ENDCHAR
STARTCHAR 10AD
ENCODING 4269
SWIDTH 853 0
DWIDTH 8 0
BBX 7 8 0 -1
BITMAP
3C
46
C2
C2
42
66
3C
0E
ENDCHAR
STARTCHAR 10AE
ENCODING 4270
SWIDTH 746 0
DWIDTH 7 0
BBX 7 7 0 0
BITMAP
E6
26
26
26
26
24
3C
ENDCHAR
STARTCHAR 10AF
ENCODING 4271
SWIDTH 640 0
DWIDTH 6 0
BBX 5 7 0 0
BITMAP
E8
C8
C8
78
08
08
08
ENDCHAR
STARTCHAR 10B0
ENCODING 4272
SWIDTH 853 0
DWIDTH 8 0
BBX 8 7 0 0
BITMAP
08
08
0F
4B
CB
CB
78
ENDCHAR
STARTCHAR 10B1
ENCODING 4273
SWIDTH 640 0
DWIDTH 6 0
BBX 5 7 0 0
BITMAP
C0
C0
C0
C8
C8
48
70
ENDCHAR
STARTCHAR 10B2
ENCODING 4274
SWIDTH 640 0
DWIDTH 6 0
BBX 5 7 0 0
BITMAP
F8
C8
C8
F8
C0
C0
F8
ENDCHAR
STARTCHAR 10B3
ENCODING 4275
SWIDTH 853 0
DWIDTH 8 0
BBX 7 9 0 -2
BITMAP
7C
46
C2
C2
42
66
3E
06
04
ENDCHAR
STARTCHAR 10B4
ENCODING 4276
SWIDTH 853 0
DWIDTH 8 0
BBX 7 7 0 0
BITMAP
7E
DA
DA
5A
7E
18
18
ENDCHAR
STARTCHAR 10B5
ENCODING 4277
SWIDTH 746 0
DWIDTH 7 0
BBX 6 7 0 0
BITMAP
10
D0
FC
14
10
10
10
ENDCHAR
STARTCHAR 10B6
ENCODING 4278
SWIDTH 640 0
DWIDTH 6 0
BBX 5 7 0 0
BITMAP
78
C8
C8
C8
C8
C8
C8
ENDCHAR
STARTCHAR 10B7
ENCODING 4279
SWIDTH 640 0
DWIDTH 6 0
BBX 5 7 0 0
BITMAP
C8
C8
C8
78
08
08
08
ENDCHAR
STARTCHAR 10B8
ENCODING 4280
SWIDTH 640 0
DWIDTH 6 0
BBX 5 7 0 0
BITMAP
C8
C8
C8
78
08
C8
78
ENDCHAR
STARTCHAR 10B9
ENCODING 4281
SWIDTH 640 0
DWIDTH 6 0
BBX 5 7 0 0
BITMAP
C0
C0
F8
C8
C8
C8
C8
ENDCHAR
STARTCHAR 10BA
ENCODING 4282
SWIDTH 746 0
DWIDTH 7 0
BBX 7 7 0 0
BITMAP
3E
40
C0
C2
42
66
3E
ENDCHAR
STARTCHAR 10BB
ENCODING 4283
SWIDTH 853 0
DWIDTH 8 0
BBX 7 7 0 0
BITMAP
08
08
7E
4A
CA
4A
7A
ENDCHAR
STARTCHAR 10BC
ENCODING 4284
SWIDTH 640 0
DWIDTH 6 0
BBX 5 7 0 0
BITMAP
F8
C8
F8
C0
F0
D0
C0
ENDCHAR
STARTCHAR 10BD
ENCODING 4285
SWIDTH 640 0
DWIDTH 6 0
BBX 5 7 0 0
BITMAP
78
C8
60
38
C8
C8
78
ENDCHAR
STARTCHAR 10BE
ENCODING 4286
SWIDTH 640 0
DWIDTH 6 0
BBX 5 7 0 0
BITMAP
C8
C8
C8
F8
C0
C0
F8
ENDCHAR
STARTCHAR 10BF
ENCODING 4287
SWIDTH 746 0
DWIDTH 7 0
BBX 6 7 0 0
BITMAP
FC
28
38
10
38
68
40
ENDCHAR
STARTCHAR 10C0
ENCODING 4288
SWIDTH 853 0
DWIDTH 8 0
BBX 7 7 0 0
BITMAP
F0
F0
32
32
32
32
1C
ENDCHAR
STARTCHAR 10C1
ENCODING 4289
SWIDTH 533 0
DWIDTH 5 0
BBX 5 7 0 0
BITMAP
C0
C0
F0
D8
D8
C0
C0
ENDCHAR
STARTCHAR 10C2
ENCODING 4290
SWIDTH 640 0
DWIDTH 6 0
BBX 6 7 0 0
BITMAP
70
60
78
4C
CC
4C
78
ENDCHAR
STARTCHAR 10C3
ENCODING 4291
SWIDTH 533 0
DWIDTH 5 0
BBX 5 7 0 0
BITMAP
08
C8
C8
78
08
08
08
ENDCHAR
STARTCHAR 10C4
ENCODING 4292
SWIDTH 533 0
DWIDTH 5 0
BBX 5 7 0 0
BITMAP
C8
C8
C8
78
20
20
20
ENDCHAR
STARTCHAR 10C5
ENCODING 4293
SWIDTH 746 0
DWIDTH 7 0
BBX 6 7 0 0
BITMAP
1C
14
7C
10
F8
D0
70
ENDCHAR
STARTCHAR 10D0
ENCODING 4304
SWIDTH 533 0
DWIDTH 5 0
BBX 5 5 0 0
BITMAP
20
30
50
D8
70
ENDCHAR
STARTCHAR 10D1
ENCODING 4305
SWIDTH 533 0
DWIDTH 5 0
BBX 5 7 0 0
BITMAP
60
20
70
50
D8
58
70
ENDCHAR
STARTCHAR 10D2
ENCODING 4306
SWIDTH 640 0
DWIDTH 6 0
BBX 5 7 0 -2
BITMAP
70
50
30
58
C8
48
70
ENDCHAR
STARTCHAR 10D3
ENCODING 4307
SWIDTH 853 0
DWIDTH 8 0
BBX 7 7 0 -2
BITMAP
6C
52
D2
52
6C
70
48
ENDCHAR
STARTCHAR 10D4
ENCODING 4308
SWIDTH 533 0
DWIDTH 5 0
BBX 4 7 0 -2
BITMAP
70
50
50
10
50
D0
70
ENDCHAR
STARTCHAR 10D5
ENCODING 4309
SWIDTH 533 0
DWIDTH 5 0
BBX 5 7 0 -2
BITMAP
70
58
10
30
58
D8
70
ENDCHAR
STARTCHAR 10D6
ENCODING 4310
SWIDTH 533 0
DWIDTH 5 0
BBX 5 7 0 0
BITMAP
F0
F0
70
50
D8
D0
70
ENDCHAR
STARTCHAR 10D7
ENCODING 4311
SWIDTH 746 0
DWIDTH 7 0
BBX 7 5 0 0
BITMAP
7C
52
DA
56
74
ENDCHAR
STARTCHAR 10D8
ENCODING 4312
SWIDTH 533 0
DWIDTH 5 0
BBX 5 5 0 0
BITMAP
70
58
D8
58
50
ENDCHAR
STARTCHAR 10D9
ENCODING 4313
SWIDTH 533 0
DWIDTH 5 0
BBX 5 7 0 -2
BITMAP
30
10
10
30
58
D8
70
ENDCHAR
STARTCHAR 10DA
ENCODING 4314
SWIDTH 1066 0
DWIDTH 10 0
BBX 9 7 0 -2
BITMAP
7F80
D680
D680
4180
3000
3C00
0200
ENDCHAR
STARTCHAR 10DB
ENCODING 4315
SWIDTH 533 0
DWIDTH 5 0
BBX 5 7 0 0
BITMAP
70
18
78
58
D8
58
70
ENDCHAR
STARTCHAR 10DC
ENCODING 4316
SWIDTH 533 0
DWIDTH 5 0
BBX 4 7 1 0
BITMAP
E0
80
E0
B0
B0
B0
E0
ENDCHAR
STARTCHAR 10DD
ENCODING 4317
SWIDTH 746 0
DWIDTH 7 0
BBX 7 5 0 0
BITMAP
7C
56
D6
46
64
ENDCHAR
STARTCHAR 10DE
ENCODING 4318
SWIDTH 533 0
DWIDTH 5 0
BBX 5 7 0 0
BITMAP
30
10
30
10
D8
D0
70
ENDCHAR
STARTCHAR 10DF
ENCODING 4319
SWIDTH 533 0
DWIDTH 5 0
BBX 5 7 0 -2
BITMAP
38
58
78
58
D8
D8
70
ENDCHAR
STARTCHAR 10E0
ENCODING 4320
SWIDTH 746 0
DWIDTH 7 0
BBX 7 7 0 0
BITMAP
38
60
7C
56
D2
46
64
ENDCHAR
STARTCHAR 10E1
ENCODING 4321
SWIDTH 533 0
DWIDTH 5 0
BBX 4 7 1 0
BITMAP
80
80
A0
A0
B0
B0
E0
ENDCHAR
STARTCHAR 10E2
ENCODING 4322
SWIDTH 640 0
DWIDTH 6 0
BBX 6 8 0 -2
BITMAP
10
38
58
5C
FC
4C
48
38
ENDCHAR
STARTCHAR 10E3
ENCODING 4323
SWIDTH 533 0
DWIDTH 5 0
BBX 5 7 0 -2
BITMAP
F8
38
38
18
58
58
70
ENDCHAR
STARTCHAR 10E4
ENCODING 4324
SWIDTH 853 0
DWIDTH 8 0
BBX 7 7 0 -2
BITMAP
7E
52
DA
56
22
22
3C
ENDCHAR
STARTCHAR 10E5
ENCODING 4325
SWIDTH 533 0
DWIDTH 5 0
BBX 4 9 0 -2
BITMAP
10
10
70
50
50
10
50
D0
70
ENDCHAR
STARTCHAR 10E6
ENCODING 4326
SWIDTH 746 0
DWIDTH 7 0
BBX 7 7 0 -2
BITMAP
7C
D6
D6
44
60
78
08
ENDCHAR
STARTCHAR 10E7
ENCODING 4327
SWIDTH 533 0
DWIDTH 5 0
BBX 5 7 0 -2
BITMAP
58
58
58
78
58
D8
70
ENDCHAR
STARTCHAR 10E8
ENCODING 4328
SWIDTH 533 0
DWIDTH 5 0
BBX 4 7 0 0
BITMAP
F0
50
70
D0
D0
D0
70
ENDCHAR
STARTCHAR 10E9
ENCODING 4329
SWIDTH 533 0
DWIDTH 5 0
BBX 4 7 1 0
BITMAP
E0
80
E0
B0
B0
B0
A0
ENDCHAR
STARTCHAR 10EA
ENCODING 4330
SWIDTH 640 0
DWIDTH 6 0
BBX 5 7 0 -2
BITMAP
50
58
C8
F8
C8
48
78
ENDCHAR
STARTCHAR 10EB
ENCODING 4331
SWIDTH 533 0
DWIDTH 5 0
BBX 5 7 0 0
BITMAP
18
18
78
58
D8
50
70
ENDCHAR
STARTCHAR 10EC
ENCODING 4332
SWIDTH 533 0
DWIDTH 5 0
BBX 4 7 1 0
BITMAP
F0
A0
E0
B0
B0
B0
E0
ENDCHAR
STARTCHAR 10ED
ENCODING 4333
SWIDTH 533 0
DWIDTH 5 0
BBX 5 9 0 -2
BITMAP
30
30
78
F0
70
10
58
58
70
ENDCHAR
STARTCHAR 10EE
ENCODING 4334
SWIDTH 533 0
DWIDTH 5 0
BBX 4 7 1 0
BITMAP
80
80
E0
B0
B0
B0
E0
ENDCHAR
STARTCHAR 10EF
ENCODING 4335
SWIDTH 533 0
DWIDTH 5 0
BBX 4 7 0 -2
BITMAP
30
F0
30
60
60
30
60
ENDCHAR
STARTCHAR 10F0
ENCODING 4336
SWIDTH 533 0
DWIDTH 5 0
BBX 5 7 0 0
BITMAP
30
10
30
10
F0
D8
70
ENDCHAR
STARTCHAR 10F1
ENCODING 4337
SWIDTH 533 0
DWIDTH 5 0
BBX 5 7 0 0
BITMAP
D0
D0
F0
D0
F0
D8
70
ENDCHAR
STARTCHAR 10F2
ENCODING 4338
SWIDTH 533 0
DWIDTH 5 0
BBX 5 6 0 -1
BITMAP
70
50
D8
50
70
50
ENDCHAR
STARTCHAR 10F3
ENCODING 4339
SWIDTH 533 0
DWIDTH 5 0
BBX 5 7 0 -2
BITMAP
78
50
30
10
58
D8
70
ENDCHAR
STARTCHAR 10F4
ENCODING 4340
SWIDTH 533 0
DWIDTH 5 0
BBX 5 9 0 -2
BITMAP
60
C8
78
10
30
10
58
D8
70
ENDCHAR
STARTCHAR 10F5
ENCODING 4341
SWIDTH 533 0
DWIDTH 5 0
BBX 5 7 0 0
BITMAP
70
D8
78
18
78
D8
70
ENDCHAR
STARTCHAR 10F6
ENCODING 4342
SWIDTH 853 0
DWIDTH 8 0
BBX 7 7 0 -2
BITMAP
7E
5A
DA
5A
7E
18
30
ENDCHAR
STARTCHAR 10F7
ENCODING 4343
SWIDTH 533 0
DWIDTH 5 0
BBX 5 7 0 -2
BITMAP
70
50
30
60
C8
C8
70
ENDCHAR
STARTCHAR 10F8
ENCODING 4344
SWIDTH 533 0
DWIDTH 5 0
BBX 5 7 0 -2
BITMAP
D0
D0
D0
F0
D0
D8
70
ENDCHAR
STARTCHAR 10F9
ENCODING 4345
SWIDTH 640 0
DWIDTH 6 0
BBX 5 7 0 -2
BITMAP
70
48
C8
58
30
78
70
ENDCHAR
STARTCHAR 10FA
ENCODING 4346
SWIDTH 533 0
DWIDTH 5 0
BBX 5 6 0 -1
BITMAP
70
D8
D8
40
70
50
ENDCHAR
STARTCHAR 10FB
ENCODING 4347
SWIDTH 426 0
DWIDTH 4 0
BBX 4 5 0 0
BITMAP
80
00
10
00
80
ENDCHAR
STARTCHAR 10FC
ENCODING 4348
SWIDTH 320 0
DWIDTH 3 0
BBX 3 3 0 4
BITMAP
C0
E0
E0
ENDCHAR
STARTCHAR 1401
ENCODING 5121
SWIDTH 746 0
DWIDTH 7 0
BBX 7 7 0 0
BITMAP
FE
FE
44
6C
28
38
38
ENDCHAR
STARTCHAR 1402
ENCODING 5122
SWIDTH 746 0
DWIDTH 7 0
BBX 7 10 0 0
BITMAP
10
28
10
38
38
28
6C
6C
44
FE
ENDCHAR
STARTCHAR 1403
ENCODING 5123
SWIDTH 746 0
DWIDTH 7 0
BBX 7 7 0 0
BITMAP
38
38
28
6C
6C
44
FE
ENDCHAR
STARTCHAR 1404
ENCODING 5124
SWIDTH 746 0
DWIDTH 7 0
BBX 7 9 0 0
BITMAP
10
00
38
38
28
6C
6C
44
FE
ENDCHAR
STARTCHAR 1405
ENCODING 5125
SWIDTH 853 0
DWIDTH 8 0
BBX 6 6 1 1
BITMAP
E0
FC
CC
FC
F0
80
ENDCHAR
STARTCHAR 1406
ENCODING 5126
SWIDTH 853 0
DWIDTH 8 0
BBX 6 9 1 0
BITMAP
20
00
00
E0
FC
CC
FC
F0
80
ENDCHAR
STARTCHAR 1407
ENCODING 5127
SWIDTH 853 0
DWIDTH 8 0
BBX 6 9 1 0
BITMAP
50
00
00
E0
FC
CC
FC
F0
80
ENDCHAR
STARTCHAR 1409
ENCODING 5129
SWIDTH 853 0
DWIDTH 8 0
BBX 6 6 1 1
BITMAP
E0
FC
EC
FC
F0
80
ENDCHAR
STARTCHAR 140A
ENCODING 5130
SWIDTH 853 0
DWIDTH 8 0
BBX 6 6 1 1
BITMAP
1C
FC
C4
F4
3C
04
ENDCHAR
STARTCHAR 140B
ENCODING 5131
SWIDTH 853 0
DWIDTH 8 0
BBX 6 9 1 0
BITMAP
10
00
00
1C
FC
C4
F4
3C
04
ENDCHAR
STARTCHAR 140C
ENCODING 5132
SWIDTH 960 0
DWIDTH 9 0
BBX 8 7 1 0
BITMAP
7F
3F
32
B6
16
1C
1C
ENDCHAR
STARTCHAR 140D
ENCODING 5133
SWIDTH 960 0
DWIDTH 9 0
BBX 8 7 0 0
BITMAP
FE
FE
44
6D
28
38
38
ENDCHAR
STARTCHAR 140E
ENCODING 5134
SWIDTH 960 0
DWIDTH 9 0
BBX 8 7 1 0
BITMAP
0C
1C
1C
96
32
23
7F
ENDCHAR
STARTCHAR 140F
ENCODING 5135
SWIDTH 960 0
DWIDTH 9 0
BBX 8 7 0 0
BITMAP
38
38
28
6D
6C
44
FE
ENDCHAR
STARTCHAR 1410
ENCODING 5136
SWIDTH 960 0
DWIDTH 9 0
BBX 8 9 1 0
BITMAP
08
00
0C
1C
1C
96
32
23
7F
ENDCHAR
STARTCHAR 1411
ENCODING 5137
SWIDTH 960 0
DWIDTH 9 0
BBX 8 9 0 0
BITMAP
10
00
38
38
28
6D
6C
44
FE
ENDCHAR
STARTCHAR 1412
ENCODING 5138
SWIDTH 1066 0
DWIDTH 10 0
BBX 9 6 1 1
BITMAP
3800
3F00
B380
3780
3C00
2000
ENDCHAR
STARTCHAR 1413
ENCODING 5139
SWIDTH 1066 0
DWIDTH 10 0
BBX 9 6 1 1
BITMAP
E000
FC00
CD80
FC00
F000
8000
ENDCHAR
STARTCHAR 1414
ENCODING 5140
SWIDTH 1066 0
DWIDTH 10 0
BBX 9 9 1 0
BITMAP
0800
0000
0000
3800
3F00
B380
3780
3C00
2000
ENDCHAR
STARTCHAR 1415
ENCODING 5141
SWIDTH 1066 0
DWIDTH 10 0
BBX 9 9 1 0
BITMAP
2000
0000
0000
E000
FC00
CD80
FC00
F000
8000
ENDCHAR
STARTCHAR 1416
ENCODING 5142
SWIDTH 853 0
DWIDTH 8 0
BBX 6 9 1 0
BITMAP
20
00
04
E0
FC
CC
FC
F0
80
ENDCHAR
STARTCHAR 1417
ENCODING 5143
SWIDTH 1066 0
DWIDTH 10 0
BBX 9 7 1 0
BITMAP
0080
0780
1F80
B180
3D80
0F80
0180
ENDCHAR
STARTCHAR 1418
ENCODING 5144
SWIDTH 1066 0
DWIDTH 10 0
BBX 9 6 1 1
BITMAP
1C00
FC00
C580
F400
3C00
0400
ENDCHAR
STARTCHAR 1419
ENCODING 5145
SWIDTH 1066 0
DWIDTH 10 0
BBX 9 9 1 0
BITMAP
0400
0000
0080
0780
1F80
B180
3D80
0F80
0180
ENDCHAR
STARTCHAR 141A
ENCODING 5146
SWIDTH 1066 0
DWIDTH 10 0
BBX 9 9 1 0
BITMAP
1000
0000
0000
1C00
FC00
C580
F400
3C00
0400
ENDCHAR
STARTCHAR 141B
ENCODING 5147
SWIDTH 853 0
DWIDTH 8 0
BBX 6 9 1 0
BITMAP
10
00
80
1C
FC
C4
F4
3C
04
ENDCHAR
STARTCHAR 141D
ENCODING 5149
SWIDTH 320 0
DWIDTH 3 0
BBX 1 2 1 5
BITMAP
80
80
ENDCHAR
STARTCHAR 141E
ENCODING 5150
SWIDTH 533 0
DWIDTH 5 0
BBX 3 4 1 3
BITMAP
40
C0
A0
E0
ENDCHAR
STARTCHAR 141F
ENCODING 5151
SWIDTH 426 0
DWIDTH 4 0
BBX 2 2 1 4
BITMAP
40
80
ENDCHAR
STARTCHAR 1420
ENCODING 5152
SWIDTH 426 0
DWIDTH 4 0
BBX 2 3 1 4
BITMAP
80
C0
40
ENDCHAR
STARTCHAR 1421
ENCODING 5153
SWIDTH 426 0
DWIDTH 4 0
BBX 2 2 1 4
BITMAP
C0
C0
ENDCHAR
STARTCHAR 1422
ENCODING 5154
SWIDTH 426 0
DWIDTH 4 0
BBX 2 3 1 3
BITMAP
C0
C0
40
ENDCHAR
STARTCHAR 1423
ENCODING 5155
SWIDTH 426 0
DWIDTH 4 0
BBX 2 2 1 4
BITMAP
C0
C0
ENDCHAR
STARTCHAR 1424
ENCODING 5156
SWIDTH 426 0
DWIDTH 4 0
BBX 2 2 1 4
BITMAP
C0
C0
ENDCHAR
STARTCHAR 1425
ENCODING 5157
SWIDTH 533 0
DWIDTH 5 0
BBX 4 4 0 3
BITMAP
40
50
50
90
ENDCHAR
STARTCHAR 1426
ENCODING 5158
SWIDTH 426 0
DWIDTH 4 0
BBX 3 4 1 3
BITMAP
A0
A0
A0
A0
ENDCHAR
STARTCHAR 1427
ENCODING 5159
SWIDTH 320 0
DWIDTH 3 0
BBX 1 1 1 3
BITMAP
80
ENDCHAR
STARTCHAR 1428
ENCODING 5160
SWIDTH 426 0
DWIDTH 4 0
BBX 2 1 1 4
BITMAP
C0
ENDCHAR
STARTCHAR 1429
ENCODING 5161
SWIDTH 426 0
DWIDTH 4 0
BBX 2 2 1 4
BITMAP
80
C0
ENDCHAR
STARTCHAR 142A
ENCODING 5162
SWIDTH 426 0
DWIDTH 4 0
BBX 2 2 1 4
BITMAP
C0
80
ENDCHAR
STARTCHAR 142B
ENCODING 5163
SWIDTH 1173 0
DWIDTH 11 0
BBX 10 7 0 0
BITMAP
FE00
FE80
4440
6C40
2800
3800
3800
ENDCHAR
STARTCHAR 142C
ENCODING 5164
SWIDTH 960 0
DWIDTH 9 0
BBX 8 7 0 0
BITMAP
38
3A
2B
6D
6C
44
FE
ENDCHAR
STARTCHAR 142D
ENCODING 5165
SWIDTH 1173 0
DWIDTH 11 0
BBX 9 6 1 1
BITMAP
E100
FC80
CC80
FC00
F000
8000
ENDCHAR
STARTCHAR 142E
ENCODING 5166
SWIDTH 1280 0
DWIDTH 12 0
BBX 10 6 1 1
BITMAP
1D80
FCC0
C440
F400
3C00
0400
ENDCHAR
STARTCHAR 142F
ENCODING 5167
SWIDTH 746 0
DWIDTH 7 0
BBX 7 7 0 0
BITMAP
C6
C6
44
6C
28
38
38
ENDCHAR
STARTCHAR 1430
ENCODING 5168
SWIDTH 746 0
DWIDTH 7 0
BBX 7 10 0 0
BITMAP
10
28
10
38
38
28
6C
6C
44
C6
ENDCHAR
STARTCHAR 1431
ENCODING 5169
SWIDTH 746 0
DWIDTH 7 0
BBX 7 7 0 0
BITMAP
38
38
28
6C
6C
44
C6
ENDCHAR
STARTCHAR 1432
ENCODING 5170
SWIDTH 746 0
DWIDTH 7 0
BBX 7 9 0 0
BITMAP
10
00
38
38
28
6C
6C
44
C6
ENDCHAR
STARTCHAR 1433
ENCODING 5171
SWIDTH 853 0
DWIDTH 8 0
BBX 6 6 1 1
BITMAP
E0
7C
0C
3C
F0
80
ENDCHAR
STARTCHAR 1434
ENCODING 5172
SWIDTH 853 0
DWIDTH 8 0
BBX 6 9 1 0
BITMAP
20
00
00
E0
7C
0C
3C
F0
80
ENDCHAR
STARTCHAR 1435
ENCODING 5173
SWIDTH 853 0
DWIDTH 8 0
BBX 6 9 1 0
BITMAP
50
00
00
E0
7C
0C
3C
F0
80
ENDCHAR
STARTCHAR 1437
ENCODING 5175
SWIDTH 853 0
DWIDTH 8 0
BBX 6 6 1 1
BITMAP
E0
7C
4C
3C
F0
80
ENDCHAR
STARTCHAR 1438
ENCODING 5176
SWIDTH 853 0
DWIDTH 8 0
BBX 6 6 1 1
BITMAP
1C
F8
C0
F0
3C
04
ENDCHAR
STARTCHAR 1439
ENCODING 5177
SWIDTH 853 0
DWIDTH 8 0
BBX 6 9 1 0
BITMAP
10
00
00
1C
F8
C0
F0
3C
04
ENDCHAR
STARTCHAR 143A
ENCODING 5178
SWIDTH 960 0
DWIDTH 9 0
BBX 8 7 1 0
BITMAP
63
23
32
B6
16
1C
1C
ENDCHAR
STARTCHAR 143B
ENCODING 5179
SWIDTH 960 0
DWIDTH 9 0
BBX 8 7 0 0
BITMAP
C6
C6
44
6D
28
38
38
ENDCHAR
STARTCHAR 143C
ENCODING 5180
SWIDTH 960 0
DWIDTH 9 0
BBX 8 7 1 0
BITMAP
0C
1C
1C
96
32
23
63
ENDCHAR
STARTCHAR 143D
ENCODING 5181
SWIDTH 960 0
DWIDTH 9 0
BBX 8 7 0 0
BITMAP
38
38
28
6D
6C
44
C6
ENDCHAR
STARTCHAR 143E
ENCODING 5182
SWIDTH 960 0
DWIDTH 9 0
BBX 8 9 1 0
BITMAP
08
00
0C
1C
1C
96
32
23
63
ENDCHAR
STARTCHAR 143F
ENCODING 5183
SWIDTH 960 0
DWIDTH 9 0
BBX 8 9 0 0
BITMAP
10
00
38
38
28
6D
6C
44
C6
ENDCHAR
STARTCHAR 1440
ENCODING 5184
SWIDTH 1066 0
DWIDTH 10 0
BBX 8 6 1 1
BITMAP
38
1F
83
07
3C
20
ENDCHAR
STARTCHAR 1441
ENCODING 5185
SWIDTH 1066 0
DWIDTH 10 0
BBX 9 6 1 1
BITMAP
E000
7C00
0D80
3C00
F000
8000
ENDCHAR
STARTCHAR 1442
ENCODING 5186
SWIDTH 1066 0
DWIDTH 10 0
BBX 8 9 1 0
BITMAP
08
00
00
38
1F
83
07
3C
20
ENDCHAR
STARTCHAR 1443
ENCODING 5187
SWIDTH 1066 0
DWIDTH 10 0
BBX 9 9 1 0
BITMAP
2000
0000
0000
E000
7C00
0D80
3C00
F000
8000
ENDCHAR
STARTCHAR 1444
ENCODING 5188
SWIDTH 1066 0
DWIDTH 10 0
BBX 8 6 1 1
BITMAP
07
3E
B0
3C
0F
01
ENDCHAR
STARTCHAR 1445
ENCODING 5189
SWIDTH 1066 0
DWIDTH 10 0
BBX 9 6 1 1
BITMAP
1C00
F800
C180
F000
3C00
0400
ENDCHAR
STARTCHAR 1446
ENCODING 5190
SWIDTH 1066 0
DWIDTH 10 0
BBX 8 9 1 0
BITMAP
04
00
00
07
3E
B0
3C
0F
01
ENDCHAR
STARTCHAR 1447
ENCODING 5191
SWIDTH 1066 0
DWIDTH 10 0
BBX 9 9 1 0
BITMAP
1000
0000
0000
1C00
F800
C180
F000
3C00
0400
ENDCHAR
STARTCHAR 1448
ENCODING 5192
SWIDTH 853 0
DWIDTH 8 0
BBX 6 9 1 0
BITMAP
50
00
00
1C
F8
C0
F0
3C
04
ENDCHAR
STARTCHAR 1449
ENCODING 5193
SWIDTH 533 0
DWIDTH 5 0
BBX 4 3 1 4
BITMAP
E0
80
70
ENDCHAR
STARTCHAR 144A
ENCODING 5194
SWIDTH 213 0
DWIDTH 2 0
BBX 1 4 1 3
BITMAP
80
80
80
80
ENDCHAR
STARTCHAR 144C
ENCODING 5196
SWIDTH 746 0
DWIDTH 7 0
BBX 5 7 1 0
BITMAP
C8
C8
C8
C8
C8
C8
78
ENDCHAR
STARTCHAR 144D
ENCODING 5197
SWIDTH 746 0
DWIDTH 7 0
BBX 5 10 1 0
BITMAP
30
50
30
70
F8
C8
C8
C8
C8
C8
ENDCHAR
STARTCHAR 144E
ENCODING 5198
SWIDTH 746 0
DWIDTH 7 0
BBX 5 7 1 0
BITMAP
70
F8
C8
C8
C8
C8
C8
ENDCHAR
STARTCHAR 144F
ENCODING 5199
SWIDTH 746 0
DWIDTH 7 0
BBX 5 9 1 0
BITMAP
20
00
70
F8
C8
C8
C8
C8
C8
ENDCHAR
STARTCHAR 1450
ENCODING 5200
SWIDTH 746 0
DWIDTH 7 0
BBX 6 7 1 0
BITMAP
E0
F8
0C
0C
0C
18
F0
ENDCHAR
STARTCHAR 1451
ENCODING 5201
SWIDTH 746 0
DWIDTH 7 0
BBX 6 9 1 0
BITMAP
20
00
E0
F8
0C
0C
0C
18
F0
ENDCHAR
STARTCHAR 1452
ENCODING 5202
SWIDTH 746 0
DWIDTH 7 0
BBX 6 9 1 0
BITMAP
50
00
E0
F8
0C
0C
0C
18
F0
ENDCHAR
STARTCHAR 1454
ENCODING 5204
SWIDTH 746 0
DWIDTH 7 0
BBX 6 7 1 0
BITMAP
E0
F8
0C
4C
0C
18
F0
ENDCHAR
STARTCHAR 1455
ENCODING 5205
SWIDTH 746 0
DWIDTH 7 0
BBX 6 7 1 0
BITMAP
3C
FC
C0
80
80
C0
7C
ENDCHAR
STARTCHAR 1456
ENCODING 5206
SWIDTH 746 0
DWIDTH 7 0
BBX 6 9 1 0
BITMAP
20
00
3C
FC
C0
80
80
C0
7C
ENDCHAR
STARTCHAR 1457
ENCODING 5207
SWIDTH 1066 0
DWIDTH 10 0
BBX 8 7 1 0
BITMAP
33
33
33
B3
33
33
1E
ENDCHAR
STARTCHAR 1458
ENCODING 5208
SWIDTH 960 0
DWIDTH 9 0
BBX 8 7 1 0
BITMAP
C8
C8
C8
CB
C8
C8
78
ENDCHAR
STARTCHAR 1459
ENCODING 5209
SWIDTH 1066 0
DWIDTH 10 0
BBX 8 7 1 0
BITMAP
0C
3E
33
B3
33
33
33
ENDCHAR
STARTCHAR 145A
ENCODING 5210
SWIDTH 960 0
DWIDTH 9 0
BBX 8 7 1 0
BITMAP
70
F8
C8
CB
C8
C8
C8
ENDCHAR
STARTCHAR 145B
ENCODING 5211
SWIDTH 1066 0
DWIDTH 10 0
BBX 8 9 1 0
BITMAP
08
00
0C
3E
33
B3
33
33
33
ENDCHAR
STARTCHAR 145C
ENCODING 5212
SWIDTH 960 0
DWIDTH 9 0
BBX 8 9 1 0
BITMAP
20
00
70
F8
C8
CB
C8
C8
C8
ENDCHAR
STARTCHAR 145D
ENCODING 5213
SWIDTH 1066 0
DWIDTH 10 0
BBX 8 7 1 0
BITMAP
38
3E
03
83
03
07
3E
ENDCHAR
STARTCHAR 145E
ENCODING 5214
SWIDTH 960 0
DWIDTH 9 0
BBX 8 7 1 0
BITMAP
E0
F8
0C
0D
0C
18
F0
ENDCHAR
STARTCHAR 145F
ENCODING 5215
SWIDTH 1066 0
DWIDTH 10 0
BBX 8 9 1 0
BITMAP
08
00
38
3E
03
83
03
07
3E
ENDCHAR
STARTCHAR 1460
ENCODING 5216
SWIDTH 960 0
DWIDTH 9 0
BBX 8 9 1 0
BITMAP
20
00
E0
F8
0C
0D
0C
18
F0
ENDCHAR
STARTCHAR 1461
ENCODING 5217
SWIDTH 1066 0
DWIDTH 10 0
BBX 8 7 1 0
BITMAP
07
3F
30
A0
30
30
1F
ENDCHAR
STARTCHAR 1462
ENCODING 5218
SWIDTH 960 0
DWIDTH 9 0
BBX 8 7 1 0
BITMAP
3C
FC
C0
81
80
C0
7C
ENDCHAR
STARTCHAR 1463
ENCODING 5219
SWIDTH 1066 0
DWIDTH 10 0
BBX 8 9 1 0
BITMAP
08
00
07
3F
30
A0
30
30
1F
ENDCHAR
STARTCHAR 1464
ENCODING 5220
SWIDTH 960 0
DWIDTH 9 0
BBX 8 9 1 0
BITMAP
20
00
3C
FC
C0
81
80
C0
7C
ENDCHAR
STARTCHAR 1465
ENCODING 5221
SWIDTH 1066 0
DWIDTH 10 0
BBX 8 7 1 0
BITMAP
07
3F
B0
20
B0
B0
1F
ENDCHAR
STARTCHAR 1466
ENCODING 5222
SWIDTH 426 0
DWIDTH 4 0
BBX 3 4 1 3
BITMAP
60
80
80
E0
ENDCHAR
STARTCHAR 1467
ENCODING 5223
SWIDTH 960 0
DWIDTH 9 0
BBX 8 7 1 0
BITMAP
C9
C9
C9
C9
C8
C8
78
ENDCHAR
STARTCHAR 1468
ENCODING 5224
SWIDTH 960 0
DWIDTH 9 0
BBX 8 7 1 0
BITMAP
71
F9
C9
C9
C8
C8
C8
ENDCHAR
STARTCHAR 1469
ENCODING 5225
SWIDTH 960 0
DWIDTH 9 0
BBX 8 7 1 0
BITMAP
E1
F9
0D
0D
0C
18
F0
ENDCHAR
STARTCHAR 146A
ENCODING 5226
SWIDTH 960 0
DWIDTH 9 0
BBX 8 7 1 0
BITMAP
3D
FD
C1
81
80
C0
7C
ENDCHAR
STARTCHAR 146B
ENCODING 5227
SWIDTH 746 0
DWIDTH 7 0
BBX 6 7 0 0
BITMAP
30
7C
CC
6C
7C
0C
0C
ENDCHAR
STARTCHAR 146C
ENCODING 5228
SWIDTH 746 0
DWIDTH 7 0
BBX 5 10 1 0
BITMAP
30
50
30
70
F8
C8
D8
F0
C0
C0
ENDCHAR
STARTCHAR 146D
ENCODING 5229
SWIDTH 746 0
DWIDTH 7 0
BBX 5 7 1 0
BITMAP
70
F8
C8
D8
F0
C0
C0
ENDCHAR
STARTCHAR 146E
ENCODING 5230
SWIDTH 746 0
DWIDTH 7 0
BBX 5 9 1 0
BITMAP
20
00
70
F8
C8
D8
F0
C0
C0
ENDCHAR
STARTCHAR 146F
ENCODING 5231
SWIDTH 746 0
DWIDTH 7 0
BBX 6 7 0 0
BITMAP
0C
0C
0C
7C
CC
CC
78
ENDCHAR
STARTCHAR 1470
ENCODING 5232
SWIDTH 746 0
DWIDTH 7 0
BBX 6 9 0 0
BITMAP
0C
00
0C
0C
0C
7C
CC
CC
78
ENDCHAR
STARTCHAR 1471
ENCODING 5233
SWIDTH 746 0
DWIDTH 7 0
BBX 6 9 0 0
BITMAP
0C
00
0C
0C
0C
7C
CC
CC
78
ENDCHAR
STARTCHAR 1472
ENCODING 5234
SWIDTH 746 0
DWIDTH 7 0
BBX 5 7 1 0
BITMAP
C0
C0
C0
F8
C8
D8
78
ENDCHAR
STARTCHAR 1473
ENCODING 5235
SWIDTH 746 0
DWIDTH 7 0
BBX 5 9 1 0
BITMAP
80
00
C0
C0
C0
F8
C8
D8
78
ENDCHAR
STARTCHAR 1474
ENCODING 5236
SWIDTH 960 0
DWIDTH 9 0
BBX 7 7 1 0
BITMAP
1C
3E
32
B6
1E
02
02
ENDCHAR
STARTCHAR 1475
ENCODING 5237
SWIDTH 960 0
DWIDTH 9 0
BBX 8 7 0 0
BITMAP
30
7C
CC
6D
7C
0C
0C
ENDCHAR
STARTCHAR 1476
ENCODING 5238
SWIDTH 960 0
DWIDTH 9 0
BBX 7 7 1 0
BITMAP
1C
3E
32
B6
3C
30
30
ENDCHAR
STARTCHAR 1477
ENCODING 5239
SWIDTH 960 0
DWIDTH 9 0
BBX 7 7 1 0
BITMAP
70
F8
C8
DA
F0
C0
C0
ENDCHAR
STARTCHAR 1478
ENCODING 5240
SWIDTH 960 0
DWIDTH 9 0
BBX 7 9 1 0
BITMAP
08
00
1C
3E
32
B6
3C
30
30
ENDCHAR
STARTCHAR 1479
ENCODING 5241
SWIDTH 960 0
DWIDTH 9 0
BBX 7 9 1 0
BITMAP
20
00
70
F8
C8
DA
F0
C0
C0
ENDCHAR
STARTCHAR 147A
ENCODING 5242
SWIDTH 960 0
DWIDTH 9 0
BBX 7 7 1 0
BITMAP
02
02
02
BE
32
32
1E
ENDCHAR
STARTCHAR 147B
ENCODING 5243
SWIDTH 960 0
DWIDTH 9 0
BBX 8 7 0 0
BITMAP
0C
0C
0C
7D
CC
CC
78
ENDCHAR
STARTCHAR 147C
ENCODING 5244
SWIDTH 960 0
DWIDTH 9 0
BBX 7 9 1 0
BITMAP
02
00
02
02
02
BE
32
32
1E
ENDCHAR
STARTCHAR 147D
ENCODING 5245
SWIDTH 960 0
DWIDTH 9 0
BBX 8 9 0 0
BITMAP
0C
00
0C
0C
0C
7D
CC
CC
78
ENDCHAR
STARTCHAR 147E
ENCODING 5246
SWIDTH 960 0
DWIDTH 9 0
BBX 7 7 1 0
BITMAP
30
30
30
BE
32
32
1E
ENDCHAR
STARTCHAR 147F
ENCODING 5247
SWIDTH 960 0
DWIDTH 9 0
BBX 7 7 1 0
BITMAP
C0
C0
C0
FA
C8
D8
78
ENDCHAR
STARTCHAR 1480
ENCODING 5248
SWIDTH 960 0
DWIDTH 9 0
BBX 7 9 1 0
BITMAP
20
00
30
30
30
BE
32
32
1E
ENDCHAR
STARTCHAR 1481
ENCODING 5249
SWIDTH 960 0
DWIDTH 9 0
BBX 7 9 1 0
BITMAP
80
00
C0
C0
C0
FA
C8
D8
78
ENDCHAR
STARTCHAR 1482
ENCODING 5250
SWIDTH 960 0
DWIDTH 9 0
BBX 7 7 1 0
BITMAP
30
30
B0
3E
B2
B2
1E
ENDCHAR
STARTCHAR 1483
ENCODING 5251
SWIDTH 533 0
DWIDTH 5 0
BBX 3 4 1 3
BITMAP
80
80
E0
E0
ENDCHAR
STARTCHAR 1484
ENCODING 5252
SWIDTH 533 0
DWIDTH 5 0
BBX 3 4 1 3
BITMAP
20
20
E0
E0
ENDCHAR
STARTCHAR 1485
ENCODING 5253
SWIDTH 853 0
DWIDTH 8 0
BBX 8 7 0 0
BITMAP
31
7D
CD
6D
7C
0C
0C
ENDCHAR
STARTCHAR 1486
ENCODING 5254
SWIDTH 853 0
DWIDTH 8 0
BBX 7 7 1 0
BITMAP
72
FA
CA
DA
F0
C0
C0
ENDCHAR
STARTCHAR 1487
ENCODING 5255
SWIDTH 853 0
DWIDTH 8 0
BBX 8 7 0 0
BITMAP
0D
0D
0D
7D
CC
CC
78
ENDCHAR
STARTCHAR 1488
ENCODING 5256
SWIDTH 853 0
DWIDTH 8 0
BBX 7 7 1 0
BITMAP
C2
C2
C2
FA
C8
D8
78
ENDCHAR
STARTCHAR 1489
ENCODING 5257
SWIDTH 746 0
DWIDTH 7 0
BBX 6 7 0 0
BITMAP
30
7C
CC
0C
0C
0C
0C
ENDCHAR
STARTCHAR 148A
ENCODING 5258
SWIDTH 746 0
DWIDTH 7 0
BBX 5 10 1 0
BITMAP
30
50
30
70
F8
C8
C0
C0
C0
C0
ENDCHAR
STARTCHAR 148B
ENCODING 5259
SWIDTH 746 0
DWIDTH 7 0
BBX 5 7 1 0
BITMAP
70
F8
C8
C0
C0
C0
C0
ENDCHAR
STARTCHAR 148C
ENCODING 5260
SWIDTH 746 0
DWIDTH 7 0
BBX 5 9 1 0
BITMAP
20
00
70
F8
C8
C0
C0
C0
C0
ENDCHAR
STARTCHAR 148D
ENCODING 5261
SWIDTH 746 0
DWIDTH 7 0
BBX 6 7 0 0
BITMAP
0C
0C
0C
0C
0C
CC
78
ENDCHAR
STARTCHAR 148E
ENCODING 5262
SWIDTH 746 0
DWIDTH 7 0
BBX 6 9 0 0
BITMAP
0C
00
0C
0C
0C
0C
0C
CC
78
ENDCHAR
STARTCHAR 148F
ENCODING 5263
SWIDTH 746 0
DWIDTH 7 0
BBX 6 9 0 0
BITMAP
0C
00
0C
0C
0C
0C
0C
CC
78
ENDCHAR
STARTCHAR 1490
ENCODING 5264
SWIDTH 746 0
DWIDTH 7 0
BBX 5 7 1 0
BITMAP
C0
C0
C0
C0
C0
D8
78
ENDCHAR
STARTCHAR 1491
ENCODING 5265
SWIDTH 746 0
DWIDTH 7 0
BBX 5 9 1 0
BITMAP
80
00
C0
C0
C0
C0
C0
D8
78
ENDCHAR
STARTCHAR 1492
ENCODING 5266
SWIDTH 960 0
DWIDTH 9 0
BBX 7 7 1 0
BITMAP
1C
3E
32
82
02
02
02
ENDCHAR
STARTCHAR 1493
ENCODING 5267
SWIDTH 960 0
DWIDTH 9 0
BBX 8 7 0 0
BITMAP
30
7C
CC
0D
0C
0C
0C
ENDCHAR
STARTCHAR 1494
ENCODING 5268
SWIDTH 960 0
DWIDTH 9 0
BBX 8 7 1 0
BITMAP
0C
1F
33
B0
30
30
30
ENDCHAR
STARTCHAR 1495
ENCODING 5269
SWIDTH 960 0
DWIDTH 9 0
BBX 7 7 1 0
BITMAP
70
F8
C8
C2
C0
C0
C0
ENDCHAR
STARTCHAR 1496
ENCODING 5270
SWIDTH 960 0
DWIDTH 9 0
BBX 8 9 1 0
BITMAP
04
00
0C
1F
33
B0
30
30
30
ENDCHAR
STARTCHAR 1497
ENCODING 5271
SWIDTH 960 0
DWIDTH 9 0
BBX 7 9 1 0
BITMAP
20
00
70
F8
C8
C2
C0
C0
C0
ENDCHAR
STARTCHAR 1498
ENCODING 5272
SWIDTH 960 0
DWIDTH 9 0
BBX 7 7 1 0
BITMAP
02
02
02
82
02
32
1E
ENDCHAR
STARTCHAR 1499
ENCODING 5273
SWIDTH 960 0
DWIDTH 9 0
BBX 8 7 0 0
BITMAP
0C
0C
0C
0D
0C
CC
78
ENDCHAR
STARTCHAR 149A
ENCODING 5274
SWIDTH 960 0
DWIDTH 9 0
BBX 7 9 1 0
BITMAP
02
00
02
02
02
82
02
32
1E
ENDCHAR
STARTCHAR 149B
ENCODING 5275
SWIDTH 960 0
DWIDTH 9 0
BBX 8 9 0 0
BITMAP
0C
00
0C
0C
0C
0D
0C
CC
78
ENDCHAR
STARTCHAR 149C
ENCODING 5276
SWIDTH 960 0
DWIDTH 9 0
BBX 8 7 1 0
BITMAP
30
30
30
B0
30
33
1E
ENDCHAR
STARTCHAR 149D
ENCODING 5277
SWIDTH 960 0
DWIDTH 9 0
BBX 7 7 1 0
BITMAP
C0
C0
C0
C2
C0
D8
78
ENDCHAR
STARTCHAR 149E
ENCODING 5278
SWIDTH 960 0
DWIDTH 9 0
BBX 8 9 1 0
BITMAP
10
00
30
30
30
B0
30
33
1E
ENDCHAR
STARTCHAR 149F
ENCODING 5279
SWIDTH 960 0
DWIDTH 9 0
BBX 7 9 1 0
BITMAP
80
00
C0
C0
C0
C2
C0
D8
78
ENDCHAR
STARTCHAR 14A0
ENCODING 5280
SWIDTH 960 0
DWIDTH 9 0
BBX 8 7 1 0
BITMAP
30
30
B0
30
B0
B3
1E
ENDCHAR
STARTCHAR 14A1
ENCODING 5281
SWIDTH 533 0
DWIDTH 5 0
BBX 3 4 1 3
BITMAP
80
80
80
E0
ENDCHAR
STARTCHAR 14A2
ENCODING 5282
SWIDTH 533 0
DWIDTH 5 0
BBX 3 4 1 3
BITMAP
20
20
20
E0
ENDCHAR
STARTCHAR 14A3
ENCODING 5283
SWIDTH 640 0
DWIDTH 6 0
BBX 5 7 0 0
BITMAP
F8
F8
18
18
18
18
18
ENDCHAR
STARTCHAR 14A4
ENCODING 5284
SWIDTH 640 0
DWIDTH 6 0
BBX 4 10 1 0
BITMAP
60
50
60
F0
F0
C0
C0
C0
C0
C0
ENDCHAR
STARTCHAR 14A5
ENCODING 5285
SWIDTH 640 0
DWIDTH 6 0
BBX 4 7 1 0
BITMAP
F0
F0
C0
C0
C0
C0
C0
ENDCHAR
STARTCHAR 14A6
ENCODING 5286
SWIDTH 640 0
DWIDTH 6 0
BBX 4 9 1 0
BITMAP
20
00
F0
F0
C0
C0
C0
C0
C0
ENDCHAR
STARTCHAR 14A7
ENCODING 5287
SWIDTH 640 0
DWIDTH 6 0
BBX 5 7 0 0
BITMAP
18
18
18
18
18
18
F8
ENDCHAR
STARTCHAR 14A8
ENCODING 5288
SWIDTH 640 0
DWIDTH 6 0
BBX 5 9 0 0
BITMAP
18
00
18
18
18
18
18
18
F8
ENDCHAR
STARTCHAR 14A9
ENCODING 5289
SWIDTH 640 0
DWIDTH 6 0
BBX 5 9 0 0
BITMAP
18
00
18
18
18
18
18
18
F8
ENDCHAR
STARTCHAR 14AA
ENCODING 5290
SWIDTH 640 0
DWIDTH 6 0
BBX 4 7 1 0
BITMAP
C0
C0
C0
C0
C0
C0
F0
ENDCHAR
STARTCHAR 14AB
ENCODING 5291
SWIDTH 640 0
DWIDTH 6 0
BBX 4 9 1 0
BITMAP
80
00
C0
C0
C0
C0
C0
C0
F0
ENDCHAR
STARTCHAR 14AC
ENCODING 5292
SWIDTH 853 0
DWIDTH 8 0
BBX 6 7 1 0
BITMAP
3C
3C
0C
8C
0C
0C
0C
ENDCHAR
STARTCHAR 14AD
ENCODING 5293
SWIDTH 853 0
DWIDTH 8 0
BBX 7 7 0 0
BITMAP
F8
F8
18
1A
18
18
18
ENDCHAR
STARTCHAR 14AE
ENCODING 5294
SWIDTH 853 0
DWIDTH 8 0
BBX 7 7 1 0
BITMAP
3E
3E
30
B0
30
30
30
ENDCHAR
STARTCHAR 14AF
ENCODING 5295
SWIDTH 853 0
DWIDTH 8 0
BBX 6 7 1 0
BITMAP
F0
F0
C0
C4
C0
C0
C0
ENDCHAR
STARTCHAR 14B0
ENCODING 5296
SWIDTH 853 0
DWIDTH 8 0
BBX 7 9 1 0
BITMAP
08
00
3E
3E
30
B0
30
30
30
ENDCHAR
STARTCHAR 14B1
ENCODING 5297
SWIDTH 853 0
DWIDTH 8 0
BBX 6 9 1 0
BITMAP
20
00
F0
F0
C0
C4
C0
C0
C0
ENDCHAR
STARTCHAR 14B2
ENCODING 5298
SWIDTH 853 0
DWIDTH 8 0
BBX 6 7 1 0
BITMAP
0C
0C
0C
8C
0C
0C
3C
ENDCHAR
STARTCHAR 14B3
ENCODING 5299
SWIDTH 853 0
DWIDTH 8 0
BBX 7 7 0 0
BITMAP
18
18
18
1A
18
18
F8
ENDCHAR
STARTCHAR 14B4
ENCODING 5300
SWIDTH 853 0
DWIDTH 8 0
BBX 6 9 1 0
BITMAP
04
00
0C
0C
0C
8C
0C
0C
3C
ENDCHAR
STARTCHAR 14B5
ENCODING 5301
SWIDTH 853 0
DWIDTH 8 0
BBX 7 9 0 0
BITMAP
18
00
18
18
18
1A
18
18
F8
ENDCHAR
STARTCHAR 14B6
ENCODING 5302
SWIDTH 853 0
DWIDTH 8 0
BBX 7 7 1 0
BITMAP
30
30
30
B0
30
30
3E
ENDCHAR
STARTCHAR 14B7
ENCODING 5303
SWIDTH 853 0
DWIDTH 8 0
BBX 6 7 1 0
BITMAP
C0
C0
C0
C4
C0
C0
F0
ENDCHAR
STARTCHAR 14B8
ENCODING 5304
SWIDTH 853 0
DWIDTH 8 0
BBX 7 9 1 0
BITMAP
20
00
30
30
30
B0
30
30
3E
ENDCHAR
STARTCHAR 14B9
ENCODING 5305
SWIDTH 853 0
DWIDTH 8 0
BBX 6 9 1 0
BITMAP
80
00
C0
C0
C0
C4
C0
C0
F0
ENDCHAR
STARTCHAR 14BA
ENCODING 5306
SWIDTH 853 0
DWIDTH 8 0
BBX 7 7 1 0
BITMAP
30
30
B0
30
B0
B0
3E
ENDCHAR
STARTCHAR 14BB
ENCODING 5307
SWIDTH 426 0
DWIDTH 4 0
BBX 2 4 1 3
BITMAP
80
80
80
C0
ENDCHAR
STARTCHAR 14BC
ENCODING 5308
SWIDTH 533 0
DWIDTH 5 0
BBX 3 4 1 3
BITMAP
60
80
80
E0
ENDCHAR
STARTCHAR 14BD
ENCODING 5309
SWIDTH 426 0
DWIDTH 4 0
BBX 2 4 1 3
BITMAP
40
40
40
C0
ENDCHAR
STARTCHAR 14C0
ENCODING 5312
SWIDTH 960 0
DWIDTH 9 0
BBX 7 4 1 0
BITMAP
FE
32
32
1E
ENDCHAR
STARTCHAR 14C1
ENCODING 5313
SWIDTH 960 0
DWIDTH 9 0
BBX 8 7 0 0
BITMAP
10
28
10
7F
CC
CC
78
ENDCHAR
STARTCHAR 14C2
ENCODING 5314
SWIDTH 960 0
DWIDTH 9 0
BBX 8 4 0 0
BITMAP
7F
CC
CC
78
ENDCHAR
STARTCHAR 14C3
ENCODING 5315
SWIDTH 960 0
DWIDTH 9 0
BBX 8 6 0 0
BITMAP
10
00
7F
CC
CC
78
ENDCHAR
STARTCHAR 14C4
ENCODING 5316
SWIDTH 853 0
DWIDTH 8 0
BBX 8 4 0 0
BITMAP
1F
33
1B
FE
ENDCHAR
STARTCHAR 14C5
ENCODING 5317
SWIDTH 853 0
DWIDTH 8 0
BBX 8 6 0 0
BITMAP
04
00
1F
33
1B
FE
ENDCHAR
STARTCHAR 14C6
ENCODING 5318
SWIDTH 853 0
DWIDTH 8 0
BBX 8 6 0 0
BITMAP
0A
00
1F
33
1B
FE
ENDCHAR
STARTCHAR 14C7
ENCODING 5319
SWIDTH 853 0
DWIDTH 8 0
BBX 8 4 0 0
BITMAP
7C
CC
CC
7F
ENDCHAR
STARTCHAR 14C8
ENCODING 5320
SWIDTH 853 0
DWIDTH 8 0
BBX 8 6 0 0
BITMAP
10
00
7C
CC
CC
7F
ENDCHAR
STARTCHAR 14C9
ENCODING 5321
SWIDTH 1173 0
DWIDTH 11 0
BBX 10 4 1 0
BITMAP
BF80
0CC0
0CC0
0780
ENDCHAR
STARTCHAR 14CA
ENCODING 5322
SWIDTH 1173 0
DWIDTH 11 0
BBX 9 4 1 0
BITMAP
FE80
3200
3200
1E00
ENDCHAR
STARTCHAR 14CB
ENCODING 5323
SWIDTH 1173 0
DWIDTH 11 0
BBX 10 4 1 0
BITMAP
BE00
3200
3600
1FC0
ENDCHAR
STARTCHAR 14CC
ENCODING 5324
SWIDTH 1173 0
DWIDTH 11 0
BBX 10 4 0 0
BITMAP
7C40
CC00
CC00
7F00
ENDCHAR
STARTCHAR 14CD
ENCODING 5325
SWIDTH 1173 0
DWIDTH 11 0
BBX 10 6 1 0
BITMAP
0800
0000
BE00
3200
3600
1FC0
ENDCHAR
STARTCHAR 14CE
ENCODING 5326
SWIDTH 1173 0
DWIDTH 11 0
BBX 10 6 0 0
BITMAP
1000
0000
7C40
CC00
CC00
7F00
ENDCHAR
STARTCHAR 14CF
ENCODING 5327
SWIDTH 853 0
DWIDTH 8 0
BBX 8 6 0 0
BITMAP
28
00
7C
CC
CC
7F
ENDCHAR
STARTCHAR 14D0
ENCODING 5328
SWIDTH 640 0
DWIDTH 6 0
BBX 4 3 1 4
BITMAP
C0
A0
F0
ENDCHAR
STARTCHAR 14D1
ENCODING 5329
SWIDTH 426 0
DWIDTH 4 0
BBX 3 4 1 3
BITMAP
A0
A0
A0
E0
ENDCHAR
STARTCHAR 14D2
ENCODING 5330
SWIDTH 640 0
DWIDTH 6 0
BBX 4 3 1 4
BITMAP
30
50
F0
ENDCHAR
STARTCHAR 14D3
ENCODING 5331
SWIDTH 960 0
DWIDTH 9 0
BBX 7 4 1 0
BITMAP
FE
02
02
06
ENDCHAR
STARTCHAR 14D4
ENCODING 5332
SWIDTH 960 0
DWIDTH 9 0
BBX 8 7 0 0
BITMAP
10
28
10
7F
C0
C0
60
ENDCHAR
STARTCHAR 14D5
ENCODING 5333
SWIDTH 960 0
DWIDTH 9 0
BBX 8 4 0 0
BITMAP
7F
C0
C0
60
ENDCHAR
STARTCHAR 14D6
ENCODING 5334
SWIDTH 960 0
DWIDTH 9 0
BBX 8 6 0 0
BITMAP
10
00
7F
C0
C0
60
ENDCHAR
STARTCHAR 14D7
ENCODING 5335
SWIDTH 853 0
DWIDTH 8 0
BBX 8 4 0 0
BITMAP
07
03
03
FE
ENDCHAR
STARTCHAR 14D8
ENCODING 5336
SWIDTH 853 0
DWIDTH 8 0
BBX 8 6 0 0
BITMAP
04
00
07
03
03
FE
ENDCHAR
STARTCHAR 14D9
ENCODING 5337
SWIDTH 853 0
DWIDTH 8 0
BBX 8 6 0 0
BITMAP
0A
00
07
03
03
FE
ENDCHAR
STARTCHAR 14DA
ENCODING 5338
SWIDTH 853 0
DWIDTH 8 0
BBX 8 4 0 0
BITMAP
60
C0
C0
7F
ENDCHAR
STARTCHAR 14DB
ENCODING 5339
SWIDTH 853 0
DWIDTH 8 0
BBX 8 6 0 0
BITMAP
10
00
60
C0
C0
7F
ENDCHAR
STARTCHAR 14DC
ENCODING 5340
SWIDTH 1173 0
DWIDTH 11 0
BBX 10 4 1 0
BITMAP
BF80
00C0
00C0
0180
ENDCHAR
STARTCHAR 14DD
ENCODING 5341
SWIDTH 1173 0
DWIDTH 11 0
BBX 9 4 1 0
BITMAP
FE80
0200
0200
0600
ENDCHAR
STARTCHAR 14DE
ENCODING 5342
SWIDTH 1280 0
DWIDTH 12 0
BBX 10 4 1 0
BITMAP
9FC0
3000
3000
1800
ENDCHAR
STARTCHAR 14DF
ENCODING 5343
SWIDTH 1173 0
DWIDTH 11 0
BBX 10 4 0 0
BITMAP
7F40
C000
C000
6000
ENDCHAR
STARTCHAR 14E0
ENCODING 5344
SWIDTH 1280 0
DWIDTH 12 0
BBX 10 6 1 0
BITMAP
0400
0000
9FC0
3000
3000
1800
ENDCHAR
STARTCHAR 14E1
ENCODING 5345
SWIDTH 1173 0
DWIDTH 11 0
BBX 10 6 0 0
BITMAP
1000
0000
7F40
C000
C000
6000
ENDCHAR
STARTCHAR 14E2
ENCODING 5346
SWIDTH 1173 0
DWIDTH 11 0
BBX 10 4 1 0
BITMAP
8180
00C0
00C0
3F80
ENDCHAR
STARTCHAR 14E3
ENCODING 5347
SWIDTH 1173 0
DWIDTH 11 0
BBX 10 4 0 0
BITMAP
0740
0300
0300
FE00
ENDCHAR
STARTCHAR 14E4
ENCODING 5348
SWIDTH 1173 0
DWIDTH 11 0
BBX 10 6 1 0
BITMAP
0300
0000
8180
00C0
00C0
3F80
ENDCHAR
STARTCHAR 14E5
ENCODING 5349
SWIDTH 1173 0
DWIDTH 11 0
BBX 10 6 0 0
BITMAP
0400
0000
0740
0300
0300
FE00
ENDCHAR
STARTCHAR 14E6
ENCODING 5350
SWIDTH 1280 0
DWIDTH 12 0
BBX 10 4 1 0
BITMAP
B800
3000
3000
1FC0
ENDCHAR
STARTCHAR 14E7
ENCODING 5351
SWIDTH 1173 0
DWIDTH 11 0
BBX 10 4 0 0
BITMAP
6040
C000
C000
7F00
ENDCHAR
STARTCHAR 14E8
ENCODING 5352
SWIDTH 1280 0
DWIDTH 12 0
BBX 10 6 1 0
BITMAP
0800
0000
B800
3000
3000
1FC0
ENDCHAR
STARTCHAR 14E9
ENCODING 5353
SWIDTH 1173 0
DWIDTH 11 0
BBX 10 6 0 0
BITMAP
1000
0000
6040
C000
C000
7F00
ENDCHAR
STARTCHAR 14EA
ENCODING 5354
SWIDTH 640 0
DWIDTH 6 0
BBX 4 3 1 4
BITMAP
80
80
F0
ENDCHAR
STARTCHAR 14EC
ENCODING 5356
SWIDTH 853 0
DWIDTH 8 0
BBX 6 6 1 1
BITMAP
FC
E0
3C
FC
F8
1C
ENDCHAR
STARTCHAR 14ED
ENCODING 5357
SWIDTH 746 0
DWIDTH 7 0
BBX 6 7 0 0
BITMAP
C0
C0
40
7C
1C
0C
0C
ENDCHAR
STARTCHAR 14EE
ENCODING 5358
SWIDTH 746 0
DWIDTH 7 0
BBX 6 10 1 0
BITMAP
18
14
18
08
18
18
F0
E0
C0
C0
ENDCHAR
STARTCHAR 14EF
ENCODING 5359
SWIDTH 746 0
DWIDTH 7 0
BBX 5 7 1 0
BITMAP
08
18
18
F0
E0
C0
C0
ENDCHAR
STARTCHAR 14F0
ENCODING 5360
SWIDTH 746 0
DWIDTH 7 0
BBX 5 9 1 0
BITMAP
08
00
08
18
18
F0
E0
C0
C0
ENDCHAR
STARTCHAR 14F1
ENCODING 5361
SWIDTH 746 0
DWIDTH 7 0
BBX 6 7 0 0
BITMAP
0C
0C
0C
3C
60
C0
C0
ENDCHAR
STARTCHAR 14F2
ENCODING 5362
SWIDTH 746 0
DWIDTH 7 0
BBX 6 9 0 0
BITMAP
08
00
0C
0C
0C
3C
60
C0
C0
ENDCHAR
STARTCHAR 14F3
ENCODING 5363
SWIDTH 746 0
DWIDTH 7 0
BBX 6 9 0 0
BITMAP
1C
00
0C
0C
0C
3C
60
C0
C0
ENDCHAR
STARTCHAR 14F4
ENCODING 5364
SWIDTH 746 0
DWIDTH 7 0
BBX 5 7 1 0
BITMAP
C0
C0
C0
F0
18
18
18
ENDCHAR
STARTCHAR 14F5
ENCODING 5365
SWIDTH 746 0
DWIDTH 7 0
BBX 5 9 1 0
BITMAP
80
00
C0
C0
C0
F0
18
18
18
ENDCHAR
STARTCHAR 14F6
ENCODING 5366
SWIDTH 960 0
DWIDTH 9 0
BBX 7 7 1 0
BITMAP
20
30
30
9E
0E
06
06
ENDCHAR
STARTCHAR 14F7
ENCODING 5367
SWIDTH 960 0
DWIDTH 9 0
BBX 8 7 0 0
BITMAP
C0
C0
40
7D
1C
0C
0C
ENDCHAR
STARTCHAR 14F8
ENCODING 5368
SWIDTH 960 0
DWIDTH 9 0
BBX 7 7 1 0
BITMAP
02
02
06
BC
38
30
30
ENDCHAR
STARTCHAR 14F9
ENCODING 5369
SWIDTH 960 0
DWIDTH 9 0
BBX 7 7 1 0
BITMAP
08
18
18
F2
E0
C0
C0
ENDCHAR
STARTCHAR 14FA
ENCODING 5370
SWIDTH 960 0
DWIDTH 9 0
BBX 7 9 1 0
BITMAP
02
00
02
02
06
BC
38
30
30
ENDCHAR
STARTCHAR 14FB
ENCODING 5371
SWIDTH 960 0
DWIDTH 9 0
BBX 7 9 1 0
BITMAP
08
00
08
18
18
F2
E0
C0
C0
ENDCHAR
STARTCHAR 14FC
ENCODING 5372
SWIDTH 960 0
DWIDTH 9 0
BBX 7 7 1 0
BITMAP
06
06
06
9E
30
30
20
ENDCHAR
STARTCHAR 14FD
ENCODING 5373
SWIDTH 960 0
DWIDTH 9 0
BBX 8 7 0 0
BITMAP
0C
0C
0C
3D
60
C0
C0
ENDCHAR
STARTCHAR 14FE
ENCODING 5374
SWIDTH 960 0
DWIDTH 9 0
BBX 7 9 1 0
BITMAP
02
00
06
06
06
9E
30
30
20
ENDCHAR
STARTCHAR 14FF
ENCODING 5375
SWIDTH 960 0
DWIDTH 9 0
BBX 8 9 0 0
BITMAP
08
00
0C
0C
0C
3D
60
C0
C0
ENDCHAR
STARTCHAR 1500
ENCODING 5376
SWIDTH 960 0
DWIDTH 9 0
BBX 7 7 1 0
BITMAP
30
30
30
BC
06
06
02
ENDCHAR
STARTCHAR 1501
ENCODING 5377
SWIDTH 960 0
DWIDTH 9 0
BBX 7 7 1 0
BITMAP
C0
C0
C0
F2
18
18
18
ENDCHAR
STARTCHAR 1502
ENCODING 5378
SWIDTH 960 0
DWIDTH 9 0
BBX 7 9 1 0
BITMAP
20
00
30
30
30
BC
06
06
02
ENDCHAR
STARTCHAR 1503
ENCODING 5379
SWIDTH 960 0
DWIDTH 9 0
BBX 7 9 1 0
BITMAP
80
00
C0
C0
C0
F2
18
18
18
ENDCHAR
STARTCHAR 1504
ENCODING 5380
SWIDTH 960 0
DWIDTH 9 0
BBX 7 7 1 0
BITMAP
30
30
B0
3C
86
86
02
ENDCHAR
STARTCHAR 1505
ENCODING 5381
SWIDTH 426 0
DWIDTH 4 0
BBX 3 4 1 3
BITMAP
80
80
40
20
ENDCHAR
STARTCHAR 1506
ENCODING 5382
SWIDTH 426 0
DWIDTH 4 0
BBX 3 4 1 3
BITMAP
C0
80
60
E0
ENDCHAR
STARTCHAR 1507
ENCODING 5383
SWIDTH 426 0
DWIDTH 4 0
BBX 3 4 1 3
BITMAP
20
20
C0
80
ENDCHAR
STARTCHAR 1510
ENCODING 5392
SWIDTH 853 0
DWIDTH 8 0
BBX 8 7 0 0
BITMAP
30
78
D8
18
18
1B
0E
ENDCHAR
STARTCHAR 1511
ENCODING 5393
SWIDTH 853 0
DWIDTH 8 0
BBX 8 7 0 0
BITMAP
0E
1F
1B
18
18
D8
70
ENDCHAR
STARTCHAR 1512
ENCODING 5394
SWIDTH 853 0
DWIDTH 8 0
BBX 8 9 0 0
BITMAP
08
00
0E
1F
1B
18
18
D8
70
ENDCHAR
STARTCHAR 1513
ENCODING 5395
SWIDTH 1066 0
DWIDTH 10 0
BBX 10 4 0 0
BITMAP
7980
CCC0
C4C0
6780
ENDCHAR
STARTCHAR 1514
ENCODING 5396
SWIDTH 1066 0
DWIDTH 10 0
BBX 10 6 0 0
BITMAP
0C00
0000
7980
CCC0
C4C0
6780
ENDCHAR
STARTCHAR 1515
ENCODING 5397
SWIDTH 1066 0
DWIDTH 10 0
BBX 10 4 0 0
BITMAP
6780
C4C0
CCC0
7980
ENDCHAR
STARTCHAR 1516
ENCODING 5398
SWIDTH 1066 0
DWIDTH 10 0
BBX 10 6 0 0
BITMAP
0C00
0000
6780
C4C0
CCC0
7980
ENDCHAR
STARTCHAR 1517
ENCODING 5399
SWIDTH 1173 0
DWIDTH 11 0
BBX 9 7 1 0
BITMAP
1800
3C00
3600
8600
0600
0680
0780
ENDCHAR
STARTCHAR 1518
ENCODING 5400
SWIDTH 1173 0
DWIDTH 11 0
BBX 10 7 0 0
BITMAP
3000
7800
D800
1840
1800
1B00
0E00
ENDCHAR
STARTCHAR 1519
ENCODING 5401
SWIDTH 1173 0
DWIDTH 11 0
BBX 10 7 1 0
BITMAP
0300
0780
06C0
8600
0600
3600
3C00
ENDCHAR
STARTCHAR 151A
ENCODING 5402
SWIDTH 1173 0
DWIDTH 11 0
BBX 10 7 0 0
BITMAP
0E00
1F00
1B00
1840
1800
D800
7000
ENDCHAR
STARTCHAR 151B
ENCODING 5403
SWIDTH 1173 0
DWIDTH 11 0
BBX 10 9 1 0
BITMAP
0600
0000
0300
0780
06C0
8600
0600
3600
3C00
ENDCHAR
STARTCHAR 151C
ENCODING 5404
SWIDTH 1173 0
DWIDTH 11 0
BBX 10 9 0 0
BITMAP
0800
0000
0E00
1F00
1B00
1840
1800
D800
7000
ENDCHAR
STARTCHAR 151D
ENCODING 5405
SWIDTH 1386 0
DWIDTH 13 0
BBX 11 4 1 0
BITMAP
9E60
3220
3320
19E0
ENDCHAR
STARTCHAR 151E
ENCODING 5406
SWIDTH 1386 0
DWIDTH 13 0
BBX 12 4 0 0
BITMAP
7990
CCC0
C4C0
6780
ENDCHAR
STARTCHAR 151F
ENCODING 5407
SWIDTH 1386 0
DWIDTH 13 0
BBX 11 6 1 0
BITMAP
0200
0000
9E60
3220
3320
19E0
ENDCHAR
STARTCHAR 1520
ENCODING 5408
SWIDTH 1386 0
DWIDTH 13 0
BBX 12 6 0 0
BITMAP
0C00
0000
7990
CCC0
C4C0
6780
ENDCHAR
STARTCHAR 1521
ENCODING 5409
SWIDTH 1386 0
DWIDTH 13 0
BBX 11 4 1 0
BITMAP
B9E0
3320
3220
1E60
ENDCHAR
STARTCHAR 1522
ENCODING 5410
SWIDTH 1386 0
DWIDTH 13 0
BBX 12 4 0 0
BITMAP
6790
C4C0
CCC0
7980
ENDCHAR
STARTCHAR 1523
ENCODING 5411
SWIDTH 1386 0
DWIDTH 13 0
BBX 11 6 1 0
BITMAP
0200
0000
B9E0
3320
3220
1E60
ENDCHAR
ENDFONT
